<?xml version="1.0" encoding="iso-8859-1"?>
<!-- Generator: Adobe Illustrator 16.0.0, SVG Export Plug-In . SVG Version: 6.00 Build 0)  -->
<!DOCTYPE svg PUBLIC "-//W3C//DTD SVG 1.1//EN" "http://www.w3.org/Graphics/SVG/1.1/DTD/svg11.dtd">
<svg version="1.1" id="Capa_1" xmlns="http://www.w3.org/2000/svg" xmlns:xlink="http://www.w3.org/1999/xlink" x="0px" y="0px"
	 width="602.723px" height="602.723px" viewBox="0 0 602.723 602.723" style="enable-background:new 0 0 602.723 602.723;"
	 xml:space="preserve">
<g>
	<g>
		<path d="M294.995,343.704c-32.505,0-58.95,26.445-58.95,58.949c0,32.505,26.445,58.95,58.95,58.95
			c32.505,0,58.951-26.445,58.951-58.95C353.945,370.149,327.5,343.704,294.995,343.704z M294.995,418.764
			c-8.897,0-16.109-7.213-16.109-16.109s7.212-16.109,16.109-16.109c8.898,0,16.11,7.213,16.11,16.109
			S303.893,418.764,294.995,418.764z"/>
		<path d="M294.995,462.104c-32.781,0-59.45-26.669-59.45-59.45c0-32.78,26.669-59.449,59.45-59.449s59.451,26.669,59.451,59.449
			C354.445,435.435,327.775,462.104,294.995,462.104z M294.995,344.204c-32.229,0-58.45,26.22-58.45,58.449s26.22,58.45,58.45,58.45
			c32.23,0,58.451-26.221,58.451-58.45S327.225,344.204,294.995,344.204z M294.995,419.264c-9.158,0-16.609-7.451-16.609-16.609
			s7.451-16.609,16.609-16.609c9.159,0,16.61,7.451,16.61,16.609S304.153,419.264,294.995,419.264z M294.995,387.045
			c-8.607,0-15.609,7.002-15.609,15.609s7.002,15.609,15.609,15.609s15.61-7.002,15.61-15.609S303.602,387.045,294.995,387.045z"/>
	</g>
	<g>
		<path d="M464.596,292.328c0-32.847-26.723-59.569-59.569-59.569s-59.57,26.723-59.57,59.569c0,32.847,26.724,59.57,59.57,59.57
			S464.596,325.176,464.596,292.328z M388.296,292.328c0-9.239,7.49-16.729,16.729-16.729s16.729,7.49,16.729,16.729
			c0,9.24-7.49,16.729-16.729,16.729S388.296,301.568,388.296,292.328z"/>
		<path d="M405.026,352.398c-33.123,0-60.07-26.947-60.07-60.07c0-33.123,26.947-60.069,60.07-60.069
			c33.122,0,60.069,26.947,60.069,60.069C465.096,325.451,438.148,352.398,405.026,352.398z M405.026,233.259
			c-32.571,0-59.07,26.499-59.07,59.069c0,32.571,26.499,59.07,59.07,59.07s59.069-26.499,59.069-59.07
			C464.096,259.757,437.598,233.259,405.026,233.259z M405.025,309.558c-9.5,0-17.229-7.729-17.229-17.229
			c0-9.5,7.729-17.229,17.229-17.229s17.229,7.729,17.229,17.229C422.255,301.828,414.525,309.558,405.025,309.558z
			 M405.025,276.099c-8.949,0-16.229,7.28-16.229,16.229s7.28,16.229,16.229,16.229s16.229-7.28,16.229-16.229
			S413.975,276.099,405.025,276.099z"/>
	</g>
	<g>
		<path d="M448.191,377.273c-17.875,0-34.681,6.961-47.32,19.601s-19.601,29.445-19.601,47.32s6.961,34.681,19.602,47.32
			c12.64,12.64,29.445,19.601,47.32,19.601s34.681-6.961,47.32-19.601s19.602-29.445,19.602-47.32s-6.961-34.681-19.601-47.32
			C482.872,384.234,466.067,377.273,448.191,377.273z M448.191,468.275c-13.299,0-24.081-10.781-24.081-24.081
			s10.782-24.081,24.081-24.081c13.3,0,24.081,10.781,24.081,24.081S461.491,468.275,448.191,468.275z"/>
		<path d="M448.192,511.615c-18.009,0-34.939-7.013-47.674-19.747c-12.734-12.733-19.748-29.665-19.748-47.674
			s7.013-34.939,19.747-47.674s29.665-19.747,47.674-19.747c18.008,0,34.939,7.013,47.676,19.747
			c12.734,12.734,19.747,29.665,19.747,47.674c0,18.008-7.014,34.939-19.748,47.674S466.201,511.615,448.192,511.615z
			 M448.191,377.773c-17.742,0-34.422,6.909-46.967,19.454s-19.454,29.225-19.454,46.967s6.909,34.422,19.455,46.967
			c12.545,12.545,29.225,19.454,46.967,19.454s34.422-6.909,46.967-19.454c12.546-12.546,19.455-29.226,19.455-46.967
			c0-17.742-6.909-34.422-19.454-46.967C482.613,384.683,465.933,377.773,448.191,377.773z M448.191,468.775
			c-13.554,0-24.581-11.027-24.581-24.581s11.027-24.581,24.581-24.581s24.581,11.027,24.581,24.581
			S461.745,468.775,448.191,468.775z M448.191,420.613c-13.003,0-23.581,10.578-23.581,23.581s10.578,23.581,23.581,23.581
			s23.581-10.578,23.581-23.581S461.194,420.613,448.191,420.613z"/>
	</g>
	<g>
		<path d="M480.481,117.349l-14.283-39.751c1.851-18.688-4.364-38.033-18.648-52.317l-5.78-5.78c-12.252-12.251-28.543-19-45.871-19
			s-33.619,6.748-45.871,19L22.164,347.363c-25.293,25.294-25.293,66.449,0,91.742l5.78,5.78c12.252,12.252,28.543,19,45.871,19
			c2.194,0,4.371-0.108,6.525-0.323l39.672,14.255L456.45,598.7c6.503,2.337,13.296,3.522,20.189,3.522
			c25.546,0,48.249-16.243,56.493-40.418c7.334-21.503,21.729-40.503,40.535-53.5c22.304-15.413,31.497-43.943,22.357-69.381
			L480.481,117.349z M52.456,377.655L380.319,49.793c4.302-4.302,9.941-6.453,15.579-6.453c5.639,0,11.277,2.151,15.579,6.453
			l5.78,5.779c8.604,8.604,8.604,22.554,0,31.158L89.394,414.593c-4.302,4.302-9.941,6.453-15.579,6.453s-11.277-2.151-15.579-6.453
			l-5.78-5.779C43.853,400.209,43.853,386.26,52.456,377.655z M549.312,473.062c-26.153,18.074-46.271,44.256-56.726,74.914
			c-2.392,7.013-8.944,11.406-15.947,11.406c-1.893,0-3.819-0.321-5.703-0.998L134.498,437.501l305.667-305.667L555.708,453.41
			C558.312,460.653,555.644,468.688,549.312,473.062z"/>
		<path d="M476.64,602.723c-6.95,0-13.8-1.195-20.358-3.552l-376.004-135.1c-2.13,0.209-4.304,0.314-6.462,0.314
			c-17.461,0-33.877-6.8-46.224-19.146l-5.78-5.78c-25.488-25.488-25.488-66.96,0-92.449L349.674,19.147
			C362.021,6.8,378.437,0,395.898,0s33.878,6.799,46.225,19.146l5.78,5.78c13.859,13.86,20.709,33.028,18.804,52.608
			l129.789,361.221c9.216,25.65-0.055,54.42-22.544,69.961c-18.718,12.937-33.047,31.848-40.346,53.25
			C525.293,586.344,502.399,602.723,476.64,602.723z M80.402,463.054l0.106,0.038l376.11,135.138
			c6.45,2.318,13.186,3.493,20.021,3.493c25.332,0,47.845-16.106,56.02-40.079c7.369-21.604,21.832-40.692,40.725-53.75
			c22.117-15.284,31.234-43.576,22.171-68.801L465.689,77.66l0.012-0.112c1.912-19.319-4.832-38.241-18.505-51.915l-5.78-5.78
			C429.258,7.695,413.093,1,395.898,1s-33.359,6.696-45.518,18.854L22.518,347.717c-25.098,25.099-25.098,65.938,0,91.035l5.78,5.78
			c12.158,12.158,28.323,18.854,45.517,18.854c2.163,0,4.342-0.108,6.475-0.32L80.402,463.054z M476.639,559.883
			c-1.999,0-3.975-0.346-5.872-1.027l-337.18-121.15l306.783-306.782l115.81,322.318c2.659,7.397-0.048,15.718-6.583,20.232
			c-26.218,18.119-46.296,44.635-56.536,74.664C490.663,555.163,484.064,559.883,476.639,559.883z M135.409,437.297l335.696,120.617
			c1.789,0.643,3.651,0.969,5.534,0.969c6.998,0,13.217-4.448,15.474-11.067c10.31-30.23,30.522-56.925,56.915-75.164
			c6.162-4.258,8.716-12.101,6.21-19.072L439.961,132.746L135.409,437.297z M73.815,421.546c-6.018,0-11.676-2.344-15.933-6.6
			l-5.78-5.779c-8.784-8.785-8.784-23.08,0-31.865L379.966,49.439c4.256-4.256,9.914-6.6,15.933-6.6s11.677,2.344,15.933,6.6
			l5.78,5.779c8.784,8.786,8.784,23.08,0,31.865L89.748,414.946C85.492,419.202,79.833,421.546,73.815,421.546z M395.898,43.84
			c-5.752,0-11.158,2.24-15.226,6.307L52.81,378.009c-8.395,8.396-8.395,22.056,0,30.451l5.78,5.779
			c4.067,4.066,9.475,6.307,15.226,6.307c5.751,0,11.159-2.24,15.226-6.307L416.904,86.377c8.395-8.395,8.395-22.056,0-30.451
			l-5.78-5.779C407.057,46.08,401.65,43.84,395.898,43.84z"/>
	</g>
</g>
<g>
</g>
<g>
</g>
<g>
</g>
<g>
</g>
<g>
</g>
<g>
</g>
<g>
</g>
<g>
</g>
<g>
</g>
<g>
</g>
<g>
</g>
<g>
</g>
<g>
</g>
<g>
</g>
<g>
</g>
</svg>
