<?xml version="1.0" encoding="iso-8859-1"?>
<!-- Generator: Adobe Illustrator 16.0.0, SVG Export Plug-In . SVG Version: 6.00 Build 0)  -->
<!DOCTYPE svg PUBLIC "-//W3C//DTD SVG 1.1//EN" "http://www.w3.org/Graphics/SVG/1.1/DTD/svg11.dtd">
<svg version="1.1" id="Capa_1" xmlns="http://www.w3.org/2000/svg" xmlns:xlink="http://www.w3.org/1999/xlink" x="0px" y="0px"
	 width="593.033px" height="593.033px" viewBox="0 0 593.033 593.033" style="enable-background:new 0 0 593.033 593.033;"
	 xml:space="preserve">
<g>
	<g>
		<path d="M130.612,491.26c4.12,3.807,9.332,5.688,14.532,5.688c5.766,0,11.515-2.314,15.737-6.883l128.902-139.498v0.693v192.258
			c0,13.801,5.473,26.492,15.412,35.738c9.07,8.439,21.38,13.277,33.771,13.277c13.638,0,26.33-5.607,35.737-15.787l81.601-88.309
			c8.385-9.074,13.002-20.875,13.002-33.229s-4.617-24.154-13.001-33.227L340.367,296.517l115.935-125.465
			c8.385-9.073,13.002-20.874,13.002-33.228c0-12.354-4.617-24.154-13.001-33.227l-81.602-88.309
			C365.293,6.107,352.602,0.5,338.964,0.5c-12.39,0-24.699,4.84-33.77,13.279c-9.939,9.246-15.413,21.938-15.413,35.737v192.258
			v0.543L160.88,102.82c-8.029-8.689-21.58-9.223-30.269-1.195c-8.689,8.029-9.224,21.581-1.195,30.269l152.049,164.548
			L129.417,460.99C121.388,469.678,121.923,483.23,130.612,491.26z M424.839,451.057c2.152,2.328,2.152,5.977,0,8.307
			l-81.603,88.309c-1.274,1.379-2.632,2.021-4.272,2.021c-1.764,0-6.342-1.109-6.342-6.176V351.26L424.839,451.057z M332.622,49.516
			c0-5.066,4.578-6.176,6.342-6.176c1.641,0,2.998,0.643,4.272,2.022l81.603,88.31c2.151,2.329,2.151,5.978,0,8.306l-92.217,99.796
			V49.516z"/>
		<path d="M338.965,593.033c-12.518,0-24.951-4.889-34.111-13.411c-10.041-9.342-15.571-22.164-15.571-36.104V351.844
			l-128.035,138.56c-4.137,4.477-10.006,7.044-16.104,7.044c-5.528,0-10.809-2.067-14.871-5.82c-4.3-3.974-6.796-9.385-7.027-15.235
			s1.831-11.441,5.804-15.741l151.736-164.208L129.05,132.233c-3.974-4.3-6.035-9.89-5.804-15.741s2.727-11.261,7.027-15.235
			c4.062-3.753,9.344-5.821,14.871-5.821c6.098,0,11.968,2.567,16.104,7.044L289.281,241.04V49.516
			c0-13.94,5.53-26.762,15.572-36.104C314.016,4.889,326.448,0,338.964,0c13.778,0,26.601,5.664,36.104,15.949l81.602,88.309
			c8.47,9.165,13.134,21.085,13.134,33.566c0,12.481-4.665,24.402-13.135,33.567L341.048,296.517l115.623,125.127
			c8.47,9.164,13.134,21.085,13.134,33.565s-4.665,24.401-13.135,33.567l-81.601,88.309
			C365.565,587.369,352.743,593.033,338.965,593.033z M290.282,349.288v194.229c0,13.66,5.417,26.222,15.253,35.372
			c8.977,8.353,21.162,13.144,33.43,13.144c13.496,0,26.058-5.55,35.37-15.627l81.601-88.308
			c8.299-8.981,12.869-20.662,12.869-32.89c0-12.229-4.57-23.907-12.868-32.887l-116.25-125.806l116.248-125.804
			c8.299-8.979,12.869-20.66,12.869-32.889c0-12.228-4.57-23.908-12.868-32.887l-81.602-88.309C365.021,6.55,352.46,1,338.964,1
			c-12.266,0-24.45,4.791-33.429,13.145c-9.837,9.15-15.254,21.711-15.254,35.371v194.079L160.513,103.16
			c-3.948-4.272-9.55-6.723-15.37-6.723c-5.275,0-10.315,1.973-14.192,5.555c-4.104,3.792-6.486,8.956-6.707,14.54
			c-0.22,5.583,1.747,10.918,5.54,15.022l152.363,164.887L129.784,461.329c-3.792,4.104-5.76,9.439-5.54,15.023
			c0.221,5.583,2.602,10.747,6.707,14.54c3.876,3.582,8.917,5.555,14.192,5.555c5.82,0,11.422-2.45,15.37-6.722L290.282,349.288z
			 M338.964,550.193c-1.903,0-6.842-1.199-6.842-6.676V349.981l0.867,0.939l92.217,99.797c2.328,2.518,2.328,6.465,0,8.984
			l-81.603,88.309C342.228,549.5,340.753,550.193,338.964,550.193z M333.122,352.537v190.98c0,4.656,4.217,5.676,5.842,5.676
			c1.491,0,2.731-0.591,3.905-1.86l81.603-88.309c1.977-2.14,1.977-5.49,0-7.628L333.122,352.537z M332.122,243.052V49.516
			c0-5.477,4.938-6.676,6.842-6.676c1.79,0,3.264,0.693,4.64,2.183l81.603,88.31c2.327,2.519,2.327,6.466,0,8.985L332.122,243.052z
			 M338.964,43.84c-1.625,0-5.842,1.02-5.842,5.676v190.98l91.35-98.857c1.976-2.139,1.976-5.489,0-7.627l-81.603-88.31
			C341.696,44.432,340.455,43.84,338.964,43.84z"/>
	</g>
</g>
<g>
</g>
<g>
</g>
<g>
</g>
<g>
</g>
<g>
</g>
<g>
</g>
<g>
</g>
<g>
</g>
<g>
</g>
<g>
</g>
<g>
</g>
<g>
</g>
<g>
</g>
<g>
</g>
<g>
</g>
</svg>
