<?xml version="1.0" encoding="iso-8859-1"?>
<!-- Generator: Adobe Illustrator 16.0.0, SVG Export Plug-In . SVG Version: 6.00 Build 0)  -->
<!DOCTYPE svg PUBLIC "-//W3C//DTD SVG 1.1//EN" "http://www.w3.org/Graphics/SVG/1.1/DTD/svg11.dtd">
<svg version="1.1" id="Capa_1" xmlns="http://www.w3.org/2000/svg" xmlns:xlink="http://www.w3.org/1999/xlink" x="0px" y="0px"
	 width="600.111px" height="600.111px" viewBox="0 0 600.111 600.111" style="enable-background:new 0 0 600.111 600.111;"
	 xml:space="preserve">
<g>
	<g>
		<g>
			<path d="M537.423,52.562h-59.836V21.92c0-11.83-9.59-21.42-21.42-21.42s-21.42,9.59-21.42,21.42v30.642H165.364V21.92
				c0-11.83-9.59-21.42-21.42-21.42s-21.42,9.59-21.42,21.42v30.642H62.688c-32.059,0-58.14,26.082-58.14,58.14v430.77
				c0,32.059,26.082,58.14,58.14,58.14h474.737c32.059,0,58.139-26.081,58.139-58.14v-430.77
				C595.563,78.643,569.481,52.562,537.423,52.562z M47.387,110.702c0-8.45,6.85-15.3,15.3-15.3h59.835v24.444
				c0,11.83,9.59,21.42,21.42,21.42c11.83,0,21.42-9.59,21.42-21.42V95.401h269.384v24.444c0,11.83,9.59,21.42,21.42,21.42
				s21.42-9.59,21.42-21.42V95.401h59.836c8.449,0,15.301,6.851,15.301,15.3v53.856H47.387V110.702z M552.724,541.471
				c0,8.45-6.85,15.301-15.301,15.301H62.688c-8.451,0-15.3-6.851-15.3-15.301V207.397h505.336V541.471L552.724,541.471z"/>
			<path d="M537.425,600.111H62.688c-32.334,0-58.64-26.306-58.64-58.64v-430.77c0-32.334,26.306-58.64,58.64-58.64h59.336V21.92
				c0-12.087,9.833-21.92,21.92-21.92c12.086,0,21.92,9.833,21.92,21.92v30.142h268.383V21.92c0-12.087,9.833-21.92,21.92-21.92
				s21.92,9.833,21.92,21.92v30.142h59.336c32.335,0,58.641,26.306,58.641,58.64v430.77
				C596.063,573.806,569.758,600.111,537.425,600.111z M62.688,53.062c-31.783,0-57.64,25.857-57.64,57.64v430.77
				c0,31.782,25.857,57.64,57.64,57.64h474.737c31.782,0,57.639-25.857,57.639-57.64v-430.77c0-31.783-25.857-57.64-57.641-57.64
				h-60.336V21.92c0-11.535-9.385-20.92-20.92-20.92s-20.92,9.385-20.92,20.92v31.142H164.864V21.92
				c0-11.535-9.385-20.92-20.92-20.92s-20.92,9.385-20.92,20.92v31.142H62.688z M537.423,557.271H62.688
				c-8.712,0-15.8-7.088-15.8-15.801V206.897h506.336v334.573C553.224,550.184,546.136,557.271,537.423,557.271z M47.887,207.897
				v333.573c0,8.161,6.639,14.801,14.8,14.801h474.735c8.161,0,14.801-6.64,14.801-14.801V207.897H47.887z M553.224,165.058H46.887
				v-54.356c0-8.712,7.088-15.8,15.8-15.8h60.335v24.944c0,11.535,9.385,20.92,20.92,20.92c11.535,0,20.92-9.385,20.92-20.92V94.901
				h270.384v24.944c0,11.535,9.385,20.92,20.92,20.92s20.92-9.385,20.92-20.92V94.901h60.336c8.713,0,15.801,7.088,15.801,15.8
				V165.058z M47.887,164.058h504.336v-53.356c0-8.161-6.64-14.8-14.801-14.8h-59.336v23.944c0,12.086-9.833,21.92-21.92,21.92
				s-21.92-9.833-21.92-21.92V95.901H165.863v23.944c0,12.086-9.833,21.92-21.92,21.92s-21.92-9.833-21.92-21.92V95.901H62.688
				c-8.161,0-14.8,6.639-14.8,14.8V164.058z"/>
		</g>
		<g>
			<path d="M292.914,534.512h18.691c32.059,0,58.141-26.081,58.141-58.14v-18.691c0-32.058-26.082-58.14-58.141-58.14h-18.691
				c-32.058,0-58.14,26.082-58.14,58.14v18.691C234.774,508.431,260.855,534.512,292.914,534.512z M277.614,457.681
				c0-8.436,6.864-15.3,15.3-15.3h18.691c8.438,0,15.301,6.864,15.301,15.3v18.691c0,8.437-6.863,15.3-15.301,15.3h-18.691
				c-8.436,0-15.3-6.863-15.3-15.3V457.681L277.614,457.681z"/>
			<path d="M311.604,535.012h-18.691c-32.334,0-58.64-26.306-58.64-58.64v-18.691c0-32.334,26.306-58.64,58.64-58.64h18.691
				c32.335,0,58.641,26.306,58.641,58.64v18.691C370.245,508.706,343.939,535.012,311.604,535.012z M292.914,400.041
				c-31.783,0-57.64,25.857-57.64,57.64v18.691c0,31.782,25.857,57.64,57.64,57.64h18.691c31.783,0,57.641-25.857,57.641-57.64
				v-18.691c0-31.782-25.857-57.64-57.641-57.64H292.914z M311.604,492.172h-18.691c-8.712,0-15.8-7.088-15.8-15.8v-18.691
				c0-8.712,7.088-15.8,15.8-15.8h18.691c8.713,0,15.801,7.088,15.801,15.8v18.691C327.405,485.084,320.317,492.172,311.604,492.172
				z M292.914,442.881c-8.161,0-14.8,6.64-14.8,14.8v18.691c0,8.16,6.639,14.8,14.8,14.8h18.691c8.161,0,14.801-6.64,14.801-14.8
				v-18.691c0-8.16-6.64-14.8-14.801-14.8H292.914z"/>
		</g>
		<g>
			<path d="M126.036,534.512h18.691c32.059,0,58.14-26.081,58.14-58.14v-18.691c0-32.058-26.082-58.14-58.14-58.14h-18.691
				c-32.059,0-58.14,26.082-58.14,58.14v18.691C67.896,508.431,93.977,534.512,126.036,534.512z M110.735,457.681
				c0-8.436,6.864-15.3,15.3-15.3h18.691c8.437,0,15.3,6.864,15.3,15.3v18.691c0,8.437-6.863,15.3-15.3,15.3h-18.691
				c-8.437,0-15.3-6.863-15.3-15.3V457.681L110.735,457.681z"/>
			<path d="M144.727,535.012h-18.691c-32.334,0-58.64-26.306-58.64-58.64v-18.691c0-32.334,26.306-58.64,58.64-58.64h18.691
				c32.334,0,58.64,26.306,58.64,58.64v18.691C203.367,508.706,177.061,535.012,144.727,535.012z M126.036,400.041
				c-31.783,0-57.64,25.857-57.64,57.64v18.691c0,31.782,25.857,57.64,57.64,57.64h18.691c31.783,0,57.64-25.857,57.64-57.64
				v-18.691c0-31.782-25.857-57.64-57.64-57.64H126.036z M144.727,492.172h-18.691c-8.712,0-15.8-7.088-15.8-15.8v-18.691
				c0-8.712,7.088-15.8,15.8-15.8h18.691c8.712,0,15.8,7.088,15.8,15.8v18.691C160.526,485.084,153.438,492.172,144.727,492.172z
				 M126.036,442.881c-8.161,0-14.8,6.64-14.8,14.8v18.691c0,8.16,6.639,14.8,14.8,14.8h18.691c8.161,0,14.8-6.64,14.8-14.8v-18.691
				c0-8.16-6.639-14.8-14.8-14.8H126.036z"/>
		</g>
		<g>
			<path d="M458.894,534.512h18.691c32.057,0,58.139-26.081,58.139-58.14v-18.691c0-32.058-26.082-58.14-58.139-58.14h-18.691
				c-32.059,0-58.141,26.082-58.141,58.14v18.691C400.753,508.431,426.835,534.512,458.894,534.512z M443.593,457.681
				c0-8.436,6.863-15.3,15.301-15.3h18.691c8.436,0,15.299,6.864,15.299,15.3v18.691c0,8.437-6.863,15.3-15.299,15.3h-18.691
				c-8.438,0-15.301-6.863-15.301-15.3V457.681z"/>
			<path d="M477.585,535.012h-18.691c-32.335,0-58.641-26.306-58.641-58.64v-18.691c0-32.334,26.306-58.64,58.641-58.64h18.691
				c32.333,0,58.639,26.306,58.639,58.64v18.691C536.224,508.706,509.918,535.012,477.585,535.012z M458.894,400.041
				c-31.783,0-57.641,25.857-57.641,57.64v18.691c0,31.782,25.857,57.64,57.641,57.64h18.691c31.782,0,57.639-25.857,57.639-57.64
				v-18.691c0-31.782-25.856-57.64-57.639-57.64H458.894z M477.585,492.172h-18.691c-8.713,0-15.801-7.088-15.801-15.8v-18.691
				c0-8.712,7.088-15.8,15.801-15.8h18.691c8.712,0,15.799,7.088,15.799,15.8v18.691
				C493.384,485.084,486.297,492.172,477.585,492.172z M458.894,442.881c-8.161,0-14.801,6.64-14.801,14.8v18.691
				c0,8.16,6.64,14.8,14.801,14.8h18.691c8.16,0,14.799-6.64,14.799-14.8v-18.691c0-8.16-6.639-14.8-14.799-14.8H458.894z"/>
		</g>
		<g>
			<path d="M292.914,367.742h18.691c32.059,0,58.141-26.082,58.141-58.14v-18.691c0-32.059-26.082-58.14-58.141-58.14h-18.691
				c-32.058,0-58.14,26.082-58.14,58.14v18.691C234.774,341.66,260.855,367.742,292.914,367.742z M277.614,290.911
				c0-8.437,6.864-15.3,15.3-15.3h18.691c8.438,0,15.301,6.863,15.301,15.3v18.691c0,8.437-6.863,15.3-15.301,15.3h-18.691
				c-8.436,0-15.3-6.863-15.3-15.3V290.911L277.614,290.911z"/>
			<path d="M311.604,368.242h-18.691c-32.334,0-58.64-26.306-58.64-58.64v-18.691c0-32.334,26.306-58.64,58.64-58.64h18.691
				c32.335,0,58.641,26.306,58.641,58.64v18.691C370.245,341.937,343.939,368.242,311.604,368.242z M292.914,233.271
				c-31.783,0-57.64,25.857-57.64,57.64v18.691c0,31.782,25.857,57.64,57.64,57.64h18.691c31.783,0,57.641-25.857,57.641-57.64
				v-18.691c0-31.783-25.857-57.64-57.641-57.64H292.914z M311.604,325.402h-18.691c-8.712,0-15.8-7.088-15.8-15.8v-18.691
				c0-8.712,7.088-15.8,15.8-15.8h18.691c8.713,0,15.801,7.088,15.801,15.8v18.691C327.405,318.314,320.317,325.402,311.604,325.402
				z M292.914,276.111c-8.161,0-14.8,6.639-14.8,14.8v18.691c0,8.16,6.639,14.8,14.8,14.8h18.691c8.161,0,14.801-6.64,14.801-14.8
				v-18.691c0-8.161-6.64-14.8-14.801-14.8H292.914z"/>
		</g>
		<g>
			<path d="M458.894,367.742h18.691c32.057,0,58.139-26.082,58.139-58.14v-18.691c0-32.059-26.082-58.14-58.139-58.14h-18.691
				c-32.059,0-58.141,26.082-58.141,58.14v18.691C400.753,341.66,426.835,367.742,458.894,367.742z M443.593,290.911
				c0-8.437,6.863-15.3,15.301-15.3h18.691c8.436,0,15.299,6.863,15.299,15.3v18.691c0,8.437-6.863,15.3-15.299,15.3h-18.691
				c-8.438,0-15.301-6.863-15.301-15.3V290.911z"/>
			<path d="M477.585,368.242h-18.691c-32.335,0-58.641-26.306-58.641-58.64v-18.691c0-32.334,26.306-58.64,58.641-58.64h18.691
				c32.333,0,58.639,26.306,58.639,58.64v18.691C536.224,341.937,509.918,368.242,477.585,368.242z M458.894,233.271
				c-31.783,0-57.641,25.857-57.641,57.64v18.691c0,31.782,25.857,57.64,57.641,57.64h18.691c31.782,0,57.639-25.857,57.639-57.64
				v-18.691c0-31.783-25.856-57.64-57.639-57.64H458.894z M477.585,325.402h-18.691c-8.713,0-15.801-7.088-15.801-15.8v-18.691
				c0-8.712,7.088-15.8,15.801-15.8h18.691c8.712,0,15.799,7.088,15.799,15.8v18.691
				C493.384,318.314,486.297,325.402,477.585,325.402z M458.894,276.111c-8.161,0-14.801,6.639-14.801,14.8v18.691
				c0,8.16,6.64,14.8,14.801,14.8h18.691c8.16,0,14.799-6.64,14.799-14.8v-18.691c0-8.161-6.639-14.8-14.799-14.8H458.894z"/>
		</g>
	</g>
</g>
<g>
</g>
<g>
</g>
<g>
</g>
<g>
</g>
<g>
</g>
<g>
</g>
<g>
</g>
<g>
</g>
<g>
</g>
<g>
</g>
<g>
</g>
<g>
</g>
<g>
</g>
<g>
</g>
<g>
</g>
</svg>
