<svg xmlns="http://www.w3.org/2000/svg" xmlns:xlink="http://www.w3.org/1999/xlink" width="215" height="81" viewBox="0 0 215 81"><defs><path id="v3owd" d="M287.76 271.37a4.92 4.92 0 0 1 4.87 4.86 4.92 4.92 0 0 1-4.87 4.87 4.92 4.92 0 0 1-4.86-4.87 4.92 4.92 0 0 1 4.86-4.86"/><path id="v3owe" d="M289.6 270.82a.88.88 0 0 0-.69-.32h-.03c-.03-.03-.05-.06-.1-.09a1.3 1.3 0 0 0-.6-.19c-.22-.01-.4.1-.6.1a1 1 0 0 0-.32.09c-1.55-.19-3.53 1.57-4.12 2.76a7.22 7.22 0 0 0-.56 4.45c.3 1.47 1.32 2.34 2.67 2.93 1.95.86 3.86.78 5.25-.3a3.89 3.89 0 0 0 2.6-3.75c-.04-2.26-1.36-4.8-3.5-5.68m-.02 5.95c-.1.4-.26.76-.47 1.05a5.2 5.2 0 0 1-.36.11 1.2 1.2 0 0 0-.67.5c-.06.02-.1.05-.17.05a3.97 3.97 0 0 1-2.23-.63c-1.2-.81-.78-3.11-.07-4.17a4.03 4.03 0 0 1 1.67-1.28c.08.31.29.6.66.78a3.06 3.06 0 0 1 1.64 3.59"/><path id="v3owf" d="M284.48 283.42c-.16-.55-.31-.99-.38-1.56-.05-.37-.6-.74-.94-.36-.27.33-.36.63-.3 1.02-.63 1.15-1.3 2.86.27 2.99.62.04 1.23-.39 1.4-.93.13-.38.06-.78-.05-1.16"/><path id="v3owg" d="M286.87 270.73a4.92 4.92 0 0 1 4.87 4.86 4.92 4.92 0 0 1-4.87 4.87 4.92 4.92 0 0 1-4.86-4.87 4.92 4.92 0 0 1 4.86-4.86"/><path id="v3owh" d="M196.57 210.58c8.1 0 14.9 2.8 19.7 6.9l-6.4 10.7c-3.6-3.4-7.4-5.3-13.3-5.3-10.1 0-16.7 8.7-16.7 19.3 0 .5 0 .99.1 1.39 3.1-4.5 9.8-8.5 17.1-8.5 12 0 22.7 7.3 22.7 21.5 0 13-10.3 22.9-25.5 22.9-20.3 0-28.79-15.6-28.79-34.4 0-20.2 11.4-34.49 31.1-34.49m-3.6 36.3c-5 0-9.8 2.5-13 6.4.6 6.4 4.2 13.8 13.6 13.8 7.7 0 11.8-5.2 11.8-9.9 0-7.2-5.9-10.3-12.4-10.3"/><path id="v3owi" d="M213.44 238.63c-7-5.62-16.34-5.57-24.4-2.33-2.34.94-4.27 2.35-6.48 3.5 4.36-2.27-1.73 1.18-1.64 1.2-1.9-.54-.4-3.68.06-5.19 2.9-9.78 12.04-12.41 21.36-9.9 2.6.71 5.82 3.26 8.55 1.97 1.46-.69 2.26-3.41 3.02-4.77 1.1-1.94 2.56-3.72 2.53-5.98 0-.46-.3-.7-.62-.76-12.63-11.21-35.56-8.53-45.13 5.26-5.91 8.52-6.47 20.43-5.7 30.43.67 8.64 4.05 18.68 11.43 24.03 3.95 2.86 9.02 3.35 13.69 4.14 4.51.76 8.55 1.65 12.96.03 8.89-3.28 15.17-7.9 16.84-17.8 1.46-8.61.76-18.01-6.47-23.83m-5.95 36.77c-4.07 1.52-7.54 3.4-12.04 3.02a65.27 65.27 0 0 1-13.04-2.27c-9.3-2.85-14.02-14.23-14.85-23.1-.82-8.7-.63-18.8 3.24-26.81 7.36-15.23 30.97-19.36 43.51-8l.17.13c-.88 2.41-3.26 6.95-4.34 7.3-1.3.43-3.2-1.43-4.55-1.89-4.56-1.55-10.83-2.1-15.43-.6-7.12 2.3-14.47 12.39-11.74 20.13.16.45.5.69.96.73 2.16.19 3.99-2.5 5.66-3.53 3.8-2.35 8.32-4.16 12.84-4.2 8.94-.08 17.78 5.27 19.48 14.4 1.65 8.9-.36 21.16-9.87 24.7"/><path id="v3owj" d="M192.84 245.05c-.47-.02-.78.3-.9.7-5.4-.05-12.53 2.6-13.11 8.1-.73 6.82 6.96 13.72 13.16 14.81 6.93 1.23 13.91-3.8 14.66-10.94.82-7.85-6.98-12.34-13.8-12.67m-1.79 21c-3.75-1.1-11.24-7-10.1-11.55 1.36-5.41 7.87-6.15 12.58-7.33 4.5.9 9.47 2.63 10.7 7.62 1.9 7.68-6.63 13.21-13.18 11.27"/><path id="v3owk" d="M178.7 279.78c-.35-1.19-.58-2.45-.98-3.6a.77.77 0 0 0-.52-.47 3.43 3.43 0 0 0-.96-1.57c-.16-.15-.38-.1-.5.07-.43.58-.16.9-.1 1.55.12 1.33-.46 1.96-.84 3.12-.46 1.4-1.52 2.54-.1 3.4 1.2.72 2.64 1.1 3.5.08.49-.6.72-1.86.5-2.58"/><path id="v3owl" d="M182.1 281.66c-.01-.03-.03-.04-.05-.06.05-.28-1.08-1.31-1.3-1.05-.67.78-1.81 1.9-1.9 3-.08.9.96 1.77 1.91 1.82.91.04 1.65-.62 1.79-1.5a2.8 2.8 0 0 0-.45-2.21"/><path id="v3owm" d="M219.51 265.28c.44-1.9.93-3.16.26-5.05a.08.08 0 0 0-.14 0 29.79 29.79 0 0 0-1.88 8.28c-.47-.15-1.05.08-1 .7.25 3.28-1.04 5.18-1.93 8.15-.33 1.08-.6 2.13-.06 3.2.74 1.5 2.27 1.96 3.67 1.07 2.68-1.72 1.2-6.3.9-8.8-.31-2.65-.43-4.9.18-7.55"/><path id="v3own" d="M166.65 260.92c-.03-1.24.11-2.53-.37-3.69a.57.57 0 0 0-.56-.37l.03-.55c0-.17-.26-.26-.35-.09-1 1.9 0 4.64-1.6 6.06-1.25 1.1-.77 3.38.82 3.85 1.18.35 1.92-.72 2.07-1.74.16-1.11-.02-2.34-.04-3.47"/><path id="v3owo" d="M216.69 217.84c0-.72-1.15-.91-1.3-.17a6.39 6.39 0 0 0-.07 1.96.76.76 0 0 0-.4.49c-.74 2.62-3.3 4.59-3.65 7.26-.1.75.12 1.42.2 2.16.19 1.76-1.07 2.61-.6 4.33.19.72.82 1.35 1.76 1.22 1.75-.25 2.13-3.16 2.23-4.9.06-1.05-.25-2.12.17-3.01a2.5 2.5 0 0 0 1.4-1.03l.07-.05c2.72-1.8.15-5.63.19-8.26"/><path id="v3owp" d="M211.31 281.67c-.11-.44-.16-.93-.53-1.23h-.02a.18.18 0 0 0-.13-.08c-.17-.05-.34.04-.42.24-.08.18-.09.36-.07.54-.46 1.1-1.72 2.11.4 2.96.64.25 1.05-.65 1.03-1.25-.02-.4-.16-.8-.26-1.18"/><path id="v3owq" d="M196.74 249.57c.55-.73.44-1.7-.11-2.39-.87-1.07-2.44-.87-3.64-.76-1.8.17-3.56.48-5.31.91a.85.85 0 0 0-.62.52c-.3.1-.58.28-.77.63-.08.16 0 .34.17.4 2.92.98 1.52 5.37 5.17 5.74.91.1 1.95-.18 2.54-.93.3-.38.43-.8.46-1.27.03-.38-.4-1.48-.28-1.73.27-.59 1.85-.4 2.4-1.12"/><path id="v3owr" d="M195.56 209.76c8.1 0 14.9 2.8 19.7 6.9l-6.4 10.7c-3.6-3.4-7.4-5.3-13.3-5.3-10.1 0-16.7 8.7-16.7 19.3 0 .5 0 1 .1 1.4 3.1-4.5 9.8-8.5 17.1-8.5 12 0 22.7 7.3 22.7 21.49 0 13-10.3 22.9-25.5 22.9-20.3 0-28.79-15.6-28.79-34.4 0-20.2 11.4-34.49 31.1-34.49m-3.6 36.3c-5 0-9.8 2.5-13 6.4.6 6.4 4.2 13.8 13.6 13.8 7.7 0 11.79-5.2 11.79-9.9 0-7.2-5.9-10.3-12.4-10.3"/><path id="v3ows" d="M212.44 237.81c-7-5.62-16.34-5.57-24.4-2.33-2.34.94-4.27 2.35-6.48 3.5 4.36-2.27-1.73 1.18-1.64 1.2-1.9-.54-.4-3.68.06-5.19 2.9-9.78 12.6-13.06 21.91-10.54 2.61.7 5.26 3.9 8 2.61 1.46-.69 2.25-3.41 3.02-4.77 1.1-1.94 2.56-3.72 2.53-5.98 0-.45-.3-.7-.62-.76-12.63-11.21-35.56-8.53-45.13 5.26-5.91 8.52-6.47 20.43-5.7 30.43.67 8.64 4.04 18.69 11.42 24.03 3.96 2.86 9.03 3.35 13.7 4.14 4.51.76 8.55 1.65 12.96.03 8.89-3.28 15.17-7.9 16.84-17.8 1.46-8.61.76-18.01-6.47-23.83m-5.95 36.77c-4.07 1.52-7.54 3.4-12.04 3.02a65.27 65.27 0 0 1-13.04-2.27c-9.3-2.85-14.02-14.23-14.85-23.1-.82-8.7-.63-18.8 3.24-26.81 7.36-15.23 30.97-19.36 43.51-8l.17.13c-.88 2.41-3.26 6.95-4.34 7.3-1.3.43-3.2-1.42-4.55-1.89-4.56-1.55-10.83-2.1-15.43-.6-7.12 2.3-14.47 12.39-11.74 20.13.16.45.5.69.96.73 2.16.19 3.99-2.5 5.66-3.53 3.8-2.35 8.32-4.16 12.84-4.2 8.94-.08 17.78 5.27 19.48 14.4 1.65 8.9-.36 21.16-9.87 24.69"/><path id="v3owt" d="M191.84 244.23c-.47-.02-.78.3-.9.7-5.4-.05-12.53 2.6-13.11 8.1-.73 6.82 6.97 13.72 13.16 14.81 6.94 1.23 13.92-3.8 14.66-10.94.82-7.85-6.98-12.34-13.8-12.67m-1.79 21c-3.75-1.1-11.24-7-10.1-11.55 1.36-5.41 7.87-6.15 12.58-7.33 4.5.9 9.47 2.63 10.7 7.62 1.9 7.68-6.63 13.21-13.18 11.27"/><path id="v3owu" d="M177.7 278.96c-.35-1.19-.59-2.45-.99-3.6a.77.77 0 0 0-.51-.47 3.42 3.42 0 0 0-.96-1.57c-.16-.15-.38-.1-.5.07-.43.58-.16.9-.1 1.55.11 1.33-.46 1.95-.84 3.12-.46 1.4-.51 3.36.9 4.21 1.2.73 2.53.1 3.02-1.15.29-.72.2-1.44-.02-2.16"/><path id="v3owv" d="M181.1 280.84l-.06-.06c.05-.28-.3-.56-.53-.3-.67.78-1.58 1.6-1.67 2.69-.08.9.47 1.77 1.43 1.82.9.04 1.65-.62 1.79-1.5.15-.97-.5-1.86-.97-2.65"/><path id="v3oww" d="M218.5 264.45c.44-1.9.93-3.16.26-5.05a.08.08 0 0 0-.14 0 29.8 29.8 0 0 0-1.88 8.28c-.47-.15-1.05.08-1 .7.25 3.28-1.04 5.18-1.93 8.15-.33 1.08-.6 2.13-.06 3.2.75 1.5 2.27 1.96 3.67 1.07 2.68-1.72 1.2-6.3.9-8.8-.31-2.65-.43-4.9.18-7.55"/><path id="v3owx" d="M166.2 260.5c-.03-1.24.12-2.53-.36-3.69a.57.57 0 0 0-.56-.37l.03-.55c-.01-.17-.26-.26-.35-.09-1.01 1.9-1.33 3.94-1.6 6.06-.16 1.17-.77 3.38.82 3.85 1.18.35 1.92-.72 2.07-1.74.16-1.11-.02-2.34-.05-3.47"/><path id="v3owy" d="M215.69 217.03c0-.73-1.15-.92-1.3-.18a6.4 6.4 0 0 0-.07 1.96.76.76 0 0 0-.4.49c-.74 2.62-3.3 4.59-3.65 7.26-.1.75.12 1.42.2 2.16.19 1.76-.06 3.43.4 5.15.2.72 1.1.75 1.49.2a8.6 8.6 0 0 0 1.5-4.7c.06-1.05-.25-2.12.17-3.01a2.5 2.5 0 0 0 1.4-1.03l.07-.05c2.72-1.79.15-5.63.19-8.25"/><path id="v3owz" d="M210.94 281.28c-.12-.44-.17-.93-.53-1.23h-.02a.19.19 0 0 0-.14-.08c-.17-.05-.34.04-.42.24-.08.18-.08.36-.06.54-.46 1.1-.97 2.9.4 2.96.68.02 1.05-.65 1.02-1.25-.02-.4-.15-.8-.25-1.18"/><path id="v3owA" d="M195.73 248.75c.55-.73.44-1.7-.11-2.39-.86-1.07-2.44-.87-3.64-.76-1.8.17-3.56.48-5.31.91a.84.84 0 0 0-.62.52c-.3.1-.58.28-.76.63-.1.16-.01.34.16.4 2.92.98 1.52 5.37 5.17 5.74.91.1 1.95-.18 2.54-.93.3-.38.43-.8.46-1.27.03-.38-.4-1.48-.28-1.74.27-.58 1.85-.4 2.4-1.11"/><path id="v3owB" d="M181.32 215.71a.37.37 0 0 1-.32-.18.37.37 0 0 1 .13-.51 30.2 30.2 0 0 1 25.55-2.47c.2.07.3.29.22.48-.07.2-.28.3-.48.22a29.44 29.44 0 0 0-24.9 2.4.37.37 0 0 1-.2.06"/><path id="v3owC" d="M211.66 233.03a.37.37 0 0 1-.12-.73l.34-.12a.38.38 0 0 1 .24.7l-.33.13a.38.38 0 0 1-.13.02"/><path id="v3owD" d="M212.64 231.2a.38.38 0 0 1-.37-.48c.16-.6.25-1.21.28-1.83 0-.2.21-.35.39-.36.2.01.36.18.36.4a9.88 9.88 0 0 1-.3 1.98.37.37 0 0 1-.36.28"/><path id="v3owE" d="M164.63 265.06a.37.37 0 0 1-.18-.7c.33-.2.49-.66.34-1.02a.38.38 0 0 1 .69-.3c.3.72 0 1.6-.67 1.97a.37.37 0 0 1-.18.05"/><path id="v3owF" d="M175.4 281.48a.6.6 0 0 1-.44-.2c-.18-.2-.19-.46-.19-.6l-.03-1.55c0-.2.16-.37.37-.38.2 0 .38.16.38.37l.03 1.52c.05 0 .1 0 .16.02.2.06.3.27.24.47-.06.17-.2.3-.4.34a.6.6 0 0 1-.11.01zm-.2-.58z"/><path id="v3owG" d="M180.67 284.25h-.45a.38.38 0 0 1 0-.75h.45a.38.38 0 0 1 0 .75"/><path id="v3owH" d="M216.2 279.84a2 2 0 0 1-.84-.18.38.38 0 0 1 .31-.68c.47.22 1.08.11 1.45-.26.36-.37.47-.98.24-1.44a.37.37 0 0 1 .18-.5.37.37 0 0 1 .5.17c.36.76.2 1.7-.39 2.3-.38.39-.92.6-1.45.6"/><path id="v3owI" d="M215.3 254.72h-.03a.37.37 0 0 1-.34-.4c.25-3.72-.14-6.79-1.2-9.38-1.28-3.11-3.67-5.54-6.4-6.5a.37.37 0 0 1-.23-.48c.07-.2.28-.3.48-.23 2.97 1.04 5.47 3.57 6.84 6.92 1.11 2.7 1.52 5.89 1.25 9.73a.38.38 0 0 1-.37.34"/><path id="v3owJ" d="M197.7 278.48c-2.13 0-4.36-.28-6.64-.61l-5.21-.76c-2.64-.38-5.14-.88-6.73-2.74a.38.38 0 0 1 .04-.53c.16-.13.4-.12.53.04 1.42 1.67 3.78 2.13 6.27 2.5l5.2.75c5.22.76 10.22 1.22 14.1-1.35.18-.12.41-.07.53.1.11.17.06.4-.1.52-2.37 1.57-5.08 2.08-7.98 2.08"/><path id="v3owK" d="M165.71 245.52a.37.37 0 0 1-.37-.35c-.22-4.1-.48-9.2 1.72-13.37.1-.18.32-.25.5-.16.19.1.26.33.16.5-2.1 4-1.84 8.98-1.63 12.99.01.2-.15.38-.36.39h-.02"/><path id="v3owL" d="M166.48 249.49a.37.37 0 0 1-.33-.18 2.86 2.86 0 0 1-.39-1.57c.01-.2.2-.37.4-.36.2 0 .36.19.35.4-.02.4.09.8.29 1.15a.37.37 0 0 1-.32.56"/><path id="v3owM" d="M190.68 252.58c-.28 0-.43-.12-.51-.23a.49.49 0 0 1 0-.56l.15-.22.33.04c.1.03.19.1.23.18.28-.09.51-.32.57-.6.04-.2.24-.33.45-.28.2.04.33.24.28.45a1.6 1.6 0 0 1-1.49 1.22z"/><path id="v3owN" d="M193.95 248.81h-.57a.38.38 0 0 1-.38-.38c0-.2.17-.37.38-.37h.57c.2 0 .38.17.38.38 0 .2-.17.37-.38.37"/><path id="v3owO" d="M210.5 283.11l-.26-.28-.16-.34.14-.1a.37.37 0 1 1 .42.63zm-.26-.28h.01z"/><path id="v3owP" d="M255.21 211.28c8.1 0 14.9 2.8 19.7 6.9l-6.4 10.7c-3.6-3.4-7.4-5.3-13.3-5.3-10.1 0-16.7 8.7-16.7 19.3 0 .5 0 1 .1 1.4 3.1-4.5 9.8-8.5 17.1-8.5 12 0 22.7 7.3 22.7 21.49 0 13-10.3 22.9-25.5 22.9-20.3 0-28.79-15.6-28.79-34.4 0-20.2 11.4-34.49 31.1-34.49m-3.6 36.3c-5 0-9.8 2.5-13 6.39.6 6.4 4.2 13.8 13.6 13.8 7.7 0 11.79-5.2 11.79-9.9 0-7.2-5.9-10.3-12.4-10.3"/><path id="v3owQ" d="M272.7 241.26c-2.71-2.32-5.79-4.62-9.31-5.47-2.54-.61-5.16-.43-7.77-.22-1.93-.19-3.75-.11-5.74.3-.3.06-.5.2-.67.38a21.88 21.88 0 0 0-10.42 5.93c.03-2.63 1.66-5.75 2.5-7.8 1.9-4.7 4.48-7.44 9.57-8.7 3.17-.77 6.81-.92 10-.12 2.82.71 4.78 2.63 7.4 3.6.43.15.97-.03 1.28-.34 2.55-2.58 4.46-6.43 6.48-9.42.5-.74.1-1.45-.52-1.76a1.16 1.16 0 0 0-.5-.91c-11.66-8.46-27.9-9.54-39.69-.62-5.06 3.84-8.35 9.27-10.07 15.33-1.03 3.63-1.04 7.04-1.47 10.74-.47 4.08-1.77 7.12-.6 11.25 1.16 4.15 2.88 8.22 4.35 12.28 1.1 3.06 2.18 5.92 4.73 8.05 4.8 4.03 11.88 6.12 17.98 6.86 7.9.97 13.43.37 20.12-4.17 5.47-3.71 8.16-9.17 9.1-15.71.93-6.5-1.72-15.16-6.75-19.48m1.7 25.65c-3.42 8.55-13.3 11.54-21.67 10.69-7.5-.76-17.56-3.04-21.08-10.42-1.64-3.45-2.69-7.33-3.95-10.93-.63-1.77-1.34-3.48-1.57-5.35-.3-2.44.44-4.44.79-6.84 1.06-7.43.77-14.18 5.44-20.6 9.86-13.57 28-13.49 41.13-4.98-1.34 2.19-3.73 7.24-6 7.18-1.28-.03-4.43-2.27-5.93-2.64a25.16 25.16 0 0 0-14.66 1.1c-4.23 1.64-6.17 4.75-7.85 8.78-1.63 3.94-4.16 8.58-2.1 12.72.34.7 1.55.9 2.07.27a19.51 19.51 0 0 1 11.94-7.25c1.7.03 3.45-.13 5.2-.25l.43.02c.2.02.4-.01.55-.08 1.86-.1 3.7-.1 5.46.32 3.2.78 6.76 3.28 9 5.6 5.72 5.94 5.65 15.53 2.8 22.66"/><path id="v3owR" d="M249.3 245.67c-.99-.1-1.36.77-1.15 1.52-5.74.4-11.05 4.18-10.26 10.5.82 6.6 8.34 11.47 14.59 11.68 6.92.24 13.6-4.97 13.18-12.29-.5-8.49-9.42-10.69-16.35-11.41m.49 20.72c-4.23-1.12-9.87-5.2-9.63-10.18.3-6 5.84-6.05 9.87-7.88 5.57.77 13.12 2.36 13.07 9.51-.04 6.8-7.52 10.08-13.31 8.55"/><path id="v3owS" d="M253.18 279.75c-.65-.32-1.23-.23-1.89-.07-.68.17-.84-.07-1.48-.17-.1-.02-.5-.1-.52-.03-.1-.11-.2-.25-.29-.33a4.07 4.07 0 0 0-1.84-.76.93.93 0 0 0-.77.16 2.65 2.65 0 0 0-.9-.02c-.36.06-.33.51-.1.68.25.17.46.35.65.54.05.14.16.27.31.36.98 1.2.32 1.7.53 3.43.14 1.13 1.38 3.26 2.66 3.43 1.22.15 2-.93 2.03-2.03a7.76 7.76 0 0 0-.23-2.05l.23.17c2.2 1.33 3.87-2.18 1.6-3.31"/><path id="v3owT" d="M230.14 268.73c-.1-.4-.36-.61-.65-.68-.17-2.33-.74-4.61-2.35-6.3-.18-.19-.6-.06-.56.23.58 4.35.9 8.13.66 12.53-.1 1.95-2.64 4.13 1.5 7.5 4.92 4.01 1.8-11.7 1.4-13.28"/><path id="v3owU" d="M256.78 225.94c-.3-2.85-5.45-1.2-7.14-.86-.38.08-.58.31-.65.58-2.07.54-4 1.8-5.35 3.4-.2.24.07.68.37.47 1-.72 1.96-1.34 3.13-1.78.8-.3 2.7-1.07 3.5-.67 1 .52-.4.27-.35 1.38.02.4.87 1.55 1.05 1.92.34.7 3.31.74 3.11-1.15-.03-.31-.12-.6-.25-.9-.42-.35-.45-.43-.09-.24.28-.11.88.12 1.26 0a2.12 2.12 0 0 0 1.4-2.15"/><path id="v3owV" d="M276.5 218.76a5.32 5.32 0 0 0-1.5-2.03c-.14-.2.42.97.24 1.2l-.14.2a.62.62 0 0 0-.22.35c-.62 1.1-1.98 2.54-2.01 3.77-.02.96 1.12 2.39 2.17 2.88 1.09.51 1.88-.59 2.07-1.52.34-1.65-.48-3.24-.61-4.85"/><path id="v3owW" d="M275.47 228.74c.04-.37 0-.63-.3-.57-.06-.02.05.15 0 .21v.01a.5.5 0 0 0-.27.4c0 .02-.66-.2-.67-.19-.4.83.07 2.37 1.05 2.7.47.16.92-.2 1.06-.65.2-.7-.94-1.25-.87-1.91"/><path id="v3owX" d="M234.64 280.07l-.06-.06.02-.14c.04-.23-.24-.36-.39-.16l-.05.1c-.43-.02-.86.4-.56.88l.08.1c-.26.74-1.21 0-1.1.83.1.77 1.32 2.3 2.2 2.23.89-.07 1.55-.13 1.52-.98-.04-1.2-1.05-1.89-1.66-2.8"/><path id="v3owY" d="M280.48 264.11c-.07-1.6-.53-1.38-1.09-2.9l-.03-.33a.99.99 0 0 0-.28-.58l-.29-.98c-.04-.17-.3-.21-.38-.05-.12.23-.2.46-.29.7-.43.05-.79.35-.73.91.14 1.42.24 2.76-.07 4.16-.23 1.03-.6 1.96-.41 3.03.17 1.06 1 2.42 2.24 1.92 1.52-.62 1.4-4.52 1.33-5.88"/><path id="v3owZ" d="M254.34 209.76c8.1 0 14.9 2.8 19.7 6.9l-6.4 10.7c-3.6-3.4-7.4-5.3-13.3-5.3-10.1 0-16.7 8.7-16.7 19.3 0 .5 0 1 .1 1.4 3.1-4.5 9.8-8.5 17.1-8.5 12 0 22.7 7.3 22.7 21.49 0 13-10.3 22.9-25.5 22.9-20.3 0-28.79-15.6-28.79-34.4 0-20.2 11.4-34.49 31.1-34.49m-3.6 36.3c-5 0-9.8 2.5-13 6.4.6 6.4 4.2 13.8 13.6 13.8 7.7 0 11.8-5.2 11.8-9.9 0-7.2-5.9-10.3-12.4-10.3"/><path id="v3owaa" d="M271.82 239.75c-2.7-2.32-5.78-4.62-9.3-5.47-2.54-.61-5.16-.43-7.77-.22-1.93-.19-3.75-.11-5.74.3-.3.06-.5.2-.67.38a21.9 21.9 0 0 0-10.42 5.93c.03-2.63 1.66-5.75 2.5-7.8 1.9-4.7 4.48-7.44 9.57-8.7 3.17-.77 6.81-.92 10-.12 2.82.71 4.78 2.63 7.4 3.6.43.15.97-.03 1.28-.34 2.55-2.58 4.46-6.44 6.48-9.42.5-.74.1-1.45-.52-1.76a1.16 1.16 0 0 0-.5-.91c-11.66-8.46-27.9-9.54-39.69-.62-5.06 3.84-8.35 9.27-10.07 15.33-1.03 3.63-1.04 7.04-1.47 10.74-.47 4.08-1.77 7.12-.6 11.25 1.16 4.15 2.88 8.22 4.35 12.28 1.1 3.06 2.18 5.92 4.73 8.05 4.8 4.03 11.88 6.12 17.98 6.86 7.9.97 13.43.36 20.12-4.17 5.47-3.71 8.16-9.17 9.1-15.71.93-6.5-1.72-15.16-6.76-19.48m1.7 25.65c-3.41 8.55-13.3 11.54-21.66 10.69-7.5-.76-17.56-3.04-21.08-10.42-1.64-3.45-2.69-7.33-3.95-10.93-.63-1.77-1.34-3.48-1.57-5.35-.3-2.45.44-4.44.79-6.84 1.06-7.43.77-14.18 5.44-20.6 9.86-13.57 28-13.49 41.13-4.98-1.34 2.19-3.73 7.24-6 7.18-1.29-.03-4.43-2.27-5.93-2.64a25.17 25.17 0 0 0-14.66 1.1c-4.23 1.64-6.17 4.74-7.85 8.78-1.63 3.94-4.16 8.58-2.1 12.72.34.7 1.55.9 2.07.27a19.5 19.5 0 0 1 11.94-7.25c1.7.03 3.45-.13 5.2-.25l.43.02c.2.02.4-.01.55-.08 1.86-.1 3.7-.1 5.46.32 3.2.78 6.76 3.28 9 5.6 5.72 5.94 5.65 15.53 2.8 22.66"/><path id="v3owab" d="M248.44 244.16c-1-.1-1.37.77-1.16 1.52-5.74.4-11.05 4.18-10.26 10.5.82 6.6 8.33 11.47 14.59 11.68 6.92.24 13.6-4.97 13.18-12.29-.5-8.49-9.42-10.69-16.35-11.41m.49 20.72c-4.23-1.12-9.87-5.2-9.63-10.18.3-6 5.84-6.05 9.87-7.88 5.57.77 13.12 2.36 13.07 9.51-.04 6.8-7.52 10.08-13.31 8.55"/><path id="v3owac" d="M252.31 278.24c-.65-.32-1.23-.23-1.89-.07-.68.17-.84-.07-1.48-.17-.1-.02-.5-.1-.52-.03-.1-.11-.2-.25-.29-.33a4.06 4.06 0 0 0-1.84-.76.93.93 0 0 0-.77.16 2.62 2.62 0 0 0-.9-.02c-.36.06-.33.51-.1.68.25.17.46.35.65.54.06.14.16.27.31.36.98 1.2 1.1 2.66 1.3 4.39.14 1.13.61 2.3 1.9 2.47 1.21.15 1.99-.93 2.03-2.03a7.85 7.85 0 0 0-.23-2.05l.22.17c2.2 1.33 3.88-2.18 1.61-3.31"/><path id="v3owad" d="M229.27 267.22a.87.87 0 0 0-.65-.68c-.17-2.33-.74-4.61-2.35-6.3-.18-.19-.6-.06-.56.23.59 4.35.9 8.12.67 12.53-.1 1.95-.94 6.37 1.5 7.5 5.74 2.69 1.79-11.7 1.4-13.28"/><path id="v3owae" d="M255.91 224.43c-.3-2.85-5.45-1.2-7.14-.86-.38.08-.58.31-.65.58-2.07.54-4 1.8-5.35 3.4-.2.24.07.68.37.47 1-.72 1.96-1.34 3.13-1.78.8-.3 2.7-1.07 3.5-.67 1 .52.45 1.03.5 2.14.03.4.02.8.2 1.16.9 1.88 3.31.74 3.11-1.15-.03-.31-.12-.6-.25-.9-.42-.35-.45-.43-.09-.24.28-.11.88.12 1.26 0a2.12 2.12 0 0 0 1.41-2.15"/><path id="v3owaf" d="M275.62 217.24a.83.83 0 0 0-.6-.74c-.14-.21-.47-.3-.65-.08l-.14.2c-.11.08-.19.2-.23.35a7.9 7.9 0 0 0-.81 3.67c-.02.95-.07 2.48.98 2.98 1.09.51 1.87-.59 2.07-1.52.34-1.65-.49-3.24-.62-4.86"/><path id="v3owag" d="M275.47 227.99c.04-.37-.28-.52-.57-.47-.06-.01-.13 0-.18.06a.5.5 0 0 0-.27.41v.04c-.4.83-.6 2.14.38 2.46.48.16.93-.2 1.06-.65.2-.7-.5-1.19-.42-1.85"/><path id="v3owah" d="M233.77 278.56l-.06-.06.02-.14c.04-.23-.24-.36-.39-.16l-.05.1c-.43-.02-.86.4-.56.87l.08.11a4.96 4.96 0 0 0-.23 2.34c.1.77.52 1.5 1.4 1.44.89-.07 1.48-.85 1.45-1.7-.04-1.2-1.05-1.89-1.66-2.8"/><path id="v3owai" d="M280.48 264.11c-.07-1.6-.7-3.13-1.26-4.66l-.03-.32a.99.99 0 0 0-.28-.58l-.29-.98c-.04-.17-.3-.21-.38-.05a5 5 0 0 0-.29.7c-.43.05-.79.35-.73.91.14 1.42.24 2.76-.07 4.16-.23 1.03-.6 1.96-.41 3.03.18 1.06 1 2.42 2.24 1.92 1.52-.62 1.56-2.77 1.5-4.13"/><path id="v3owaj" d="M253.4 225.6a.38.38 0 0 1-.01-.75l.39-.02a.53.53 0 0 0-.13-.25.37.37 0 1 1 .55-.51c.3.32.42.8.3 1.23l-.08.26-1 .03zm.73-.4h.01z"/><path id="v3owak" d="M251.52 228.84a.37.37 0 0 1-.32-.19l-.23-.38a.37.37 0 1 1 .65-.39l.23.39c.1.18.04.4-.13.51a.37.37 0 0 1-.2.06"/><path id="v3owal" d="M227.06 231.23c-.03 0-.07 0-.1-.02a.37.37 0 0 1-.25-.47 32.84 32.84 0 0 1 11.41-16.42c.17-.13.4-.1.53.07.12.16.1.4-.07.52a32.1 32.1 0 0 0-11.16 16.05.37.37 0 0 1-.36.27"/><path id="v3owam" d="M226.08 236.19a.37.37 0 0 1-.37-.47l.41-1.73a.38.38 0 1 1 .73.17l-.41 1.74a.38.38 0 0 1-.36.29"/><path id="v3owan" d="M264.82 254.14a.38.38 0 0 1-.37-.34c-.13-1.17-.76-2.35-1.92-3.6a14.15 14.15 0 0 0-6.83-4.02.37.37 0 1 1 .19-.73c2.72.69 5.27 2.2 7.19 4.25 1.27 1.36 1.96 2.68 2.11 4.02.02.2-.12.4-.33.42h-.04"/><path id="v3owao" d="M278.7 265.77a.62.62 0 0 1-.35-.12.38.38 0 0 1-.1-.52c.11-.14.3-.19.45-.13.04-.08.04-.2.04-.32l-.04-2.05c0-.2.17-.38.37-.38.22 0 .38.16.38.37l.04 2.05c0 .2 0 .48-.15.73a.77.77 0 0 1-.63.37"/><path id="v3owap" d="M248.62 284.22a.87.87 0 0 1-.35-.07 1.09 1.09 0 0 1-.58-.64c-.14-.42-.04-.84.04-1.16.05-.2.25-.32.45-.27.2.05.33.25.28.45-.07.3-.13.55-.06.75.03.07.1.15.17.18.18-.08.44 0 .53.19.09.19.04.41-.15.5a.78.78 0 0 1-.33.07"/><path id="v3owaq" d="M251.42 281.2c-.16 0-.3-.08-.36-.23a.37.37 0 0 1 .22-.49c.2-.07.35-.26.38-.46.03-.2.22-.34.43-.32.2.03.34.23.31.43-.07.47-.4.89-.85 1.05a.38.38 0 0 1-.13.03"/><path id="v3owar" d="M233.6 282.36a.38.38 0 0 1-.18-.7c.2-.11.33-.38.27-.6-.06-.2.06-.41.26-.47.2-.05.4.07.46.27.15.55-.12 1.18-.62 1.46a.38.38 0 0 1-.18.04"/><path id="v3owas" d="M228.94 279.62h-.09a1 1 0 0 1-.67-.38 1.85 1.85 0 0 1-.32-.97c-.21-1.96-.3-3.96-.23-5.94 0-.2.19-.35.39-.36.2 0 .37.18.36.39-.06 1.94.02 3.9.23 5.83.03.23.06.45.16.59.06.07.16.1.2.09.15-.13.39-.11.52.04.13.16.11.4-.05.53a.77.77 0 0 1-.5.18"/><path id="v3owat" d="M274.69 222.08a.58.58 0 0 1-.24-.05.37.37 0 0 1-.19-.5.38.38 0 0 1 .33-.22.42.42 0 0 0 .02-.13l-.02-1.45c0-.2.17-.38.37-.38.21 0 .38.17.38.37l.02 1.45c0 .28-.11.65-.37.82-.1.06-.2.09-.3.09"/><path id="v3owau" d="M267.47 226.1c-.48 0-.91-.23-1.28-.42a19.35 19.35 0 0 0-4.27-1.6.38.38 0 0 1 .19-.74c1.53.38 3.02.95 4.42 1.67.37.2.75.4 1.07.33.37-.08.65-.48.87-.86a16 16 0 0 0 1.03-2.15c.07-.2.29-.29.48-.22.2.08.3.3.22.5-.3.77-.67 1.52-1.08 2.24-.29.5-.7 1.1-1.37 1.22l-.28.03"/><path id="v3owav" d="M274.84 230.21a.38.38 0 0 1-.26-.1.84.84 0 0 1-.19-.92c.08-.19.3-.28.5-.2.18.08.27.3.2.49a.1.1 0 0 0 .01.09.38.38 0 0 1-.26.64"/><path id="v3owaw" d="M262.2 276.13a.37.37 0 0 1-.03-.75c2.52-.14 4.97-1.1 6.9-2.71.16-.14.4-.11.53.05s.11.4-.05.52a12.64 12.64 0 0 1-7.33 2.89h-.03"/><path id="v3owax" d="M288.71 270.18a.88.88 0 0 0-.69-.32H288c-.03-.03-.05-.06-.1-.09a1.3 1.3 0 0 0-.6-.19c-.22-.01-.4.1-.6.1a1 1 0 0 0-.32.09c-1.55-.19-3.53 1.57-4.12 2.76a7.22 7.22 0 0 0-.56 4.45c.3 1.47 1.32 2.34 2.67 2.93 1.95.86 3.86.78 5.25-.3a3.89 3.89 0 0 0 2.6-3.75c-.04-2.26-1.36-4.8-3.5-5.68m-.02 5.95c-.1.4-.26.76-.47 1.05a5.4 5.4 0 0 1-.36.11 1.2 1.2 0 0 0-.66.5c-.07.02-.11.05-.18.05a3.98 3.98 0 0 1-2.24-.63c-1.2-.81-.77-3.11-.06-4.17a4.03 4.03 0 0 1 1.67-1.28c.08.31.3.6.66.78a3.06 3.06 0 0 1 1.64 3.59"/><path id="v3oway" d="M283.86 283.14c-.14-.5-.26-.9-.32-1.42-.04-.34-.51-.68-.79-.33-.23.3-.3.57-.25.93-.53 1.04-1.1 2.6.23 2.71.52.04 1.03-.35 1.17-.84.1-.34.05-.71-.04-1.05"/><path id="v3owaz" d="M287.2 279.6a8.8 8.8 0 0 1-2.5-.41 2.1 2.1 0 0 1-1.22-1.31c-.05-.2.07-.4.27-.46.2-.07.4.06.46.26.09.33.39.64.8.82.4.19.88.24 1.36.3.58.05 1.14.1 1.65-.05.51-.14.91-.5 1.02-.89.05-.2.25-.32.46-.26.2.05.32.26.26.46-.17.65-.76 1.2-1.53 1.41-.34.1-.68.13-1.02.13"/><path id="v3owaA" d="M288.24 272.01a.4.4 0 0 1-.12-.02l-.77-.27a.37.37 0 1 1 .25-.7l.77.26a.38.38 0 0 1-.13.73"/><path id="v3owaB" d="M282.93 284.43a.37.37 0 0 1-.33-.2.37.37 0 0 1 .03-.4.37.37 0 0 1 .71-.2c.13.26.03.6-.23.74a.38.38 0 0 1-.18.06zm-.26-.47z"/><path id="v3owaC" d="M325.58 285.64c-.05-.44-.15-.88-.25-1.3-.1-.47-.12-.9-.57-1.14-.2-.1-.4-.04-.53.14-.22.29-.22.62-.14.97-.29.65-.6 1.35-.58 2.03.02.63.56 1.12 1.2.96.76-.2.96-.98.87-1.66"/><path id="v3owaD" d="M323.86 210.5c8.1 0 14.9 2.8 19.7 6.9l-6.4 10.7c-3.6-3.4-7.4-5.3-13.3-5.3-10.1 0-16.7 8.7-16.7 19.3 0 .5 0 1 .1 1.39 3.1-4.5 9.8-8.5 17.1-8.5 12 0 22.7 7.3 22.7 21.5 0 13-10.3 22.9-25.5 22.9-20.3 0-28.79-15.6-28.79-34.4 0-20.2 11.4-34.49 31.1-34.49m-3.6 36.29c-5 0-9.8 2.5-13 6.4.6 6.4 4.2 13.8 13.6 13.8 7.7 0 11.79-5.2 11.79-9.9 0-7.2-5.9-10.3-12.4-10.3"/><path id="v3owaE" d="M345.3 244.74c-5.16-7.67-11.49-10.98-20.51-10.9-5.95.04-12.14 1.07-16.09 5.1.81-6.01 3.52-11.83 9.67-14.04 3.75-1.35 8.42-.96 12.2.3 2.5.84 3.7 3.25 6.13 3.83.46.1.98.01 1.32-.35 1.74-1.88 6.03-7.44 6.23-10.08.19-2.54-1.99-3.2-3.99-4.3-9.92-7.89-28.34-7.26-37.12 1.01-2.83 2.67-5.94 6.06-7.64 9.59-1.94 4.02-2.32 8.72-3.08 13.06-1.34 7.67-2.19 16.59.9 24.04 3.25 7.85 10.47 13.4 17.8 17.11 6.85 3.5 15.9 2.57 22.87-.3 12.29-5.08 19.06-22.59 11.32-34.07m-13.76 31.95a34.9 34.9 0 0 1-12 1.7c-4.66-.13-8.7-2.57-12.48-5.08-4-2.66-6.83-5.86-9.33-9.94-2.15-3.5-2.56-7.05-3.15-11.07-1.08-7.42.48-16.7 2.79-23.87 2.87-8.94 12.2-15.96 21.38-16.57 8.15-.53 15.8 1.43 22.26 6.3a6.4 6.4 0 0 1-.56 1.73c-.45 1.1-1.36 2.3-2.03 3.3-1.65 2.43-1.02 2.46-3.04 1.35-.59-.32-1.1-.79-1.71-1.1-3.9-2.06-10.53-2.8-14.77-1.69-9.97 2.62-13.55 13.2-13.29 22.47.05 1.63 2.23 1.84 2.76.37 3.22-8.87 18.88-10.22 26.15-6.16 7.36 4.1 11.87 11.79 10.92 20.21-.92 8.16-6.03 15.34-13.9 18.05"/><path id="v3owaF" d="M319.1 225.6c.68-.9-.86-2.1-1.6-1.22-.18.23-.34.48-.46.73a1.38 1.38 0 0 0-.71-.27c-1.23-.13-2.3 1.57-2.7 2.53-.08.17.04.41.26.34.57-.17 1.48-.51 1.86-1 .06 0 .1-.02.14-.04 0 .06.02.11.01.16.01.36-.03.72-.04 1.08-.06 1.39-.28 2.92 1.51 3.11 1.28.14 2.57-.61 2.66-1.98.09-1.42-1.98-2.05-.94-3.44"/><path id="v3owaG" d="M314.28 253.45c-.3-.73-.87-1.4-1.41-1.97-.3-.32-.95-.83-.8-1.37.1-.37.75-.8 1-1.14.12-.15 0-.4-.18-.45a2.22 2.22 0 0 0-2.55 1.31c-.29-.12-.6-.2-.98-.17-1.79.12-2.96 2.44-3.65 3.82-.45.9.76 2.02 1.48 1.14.56-.68 1.1-2.09 1.8-2.56.65-.45.84-.28.99.73.05.37.04.75.1 1.12.18 1.4 1.13 2.87 2.75 2.67 1.52-.2 1.98-1.87 1.45-3.13"/><path id="v3owaH" d="M316.51 251.21c-.1-.15-.29-.3-.49-.28-.46.05-.56.27-.53.55-.4.68-.08 1.76.2 2.39.15.31.66.37.88.11.68-.8.5-1.93-.06-2.77"/><path id="v3owa" d="M329.01 276.4h7.61v11.74h-7.61z"/><path id="v3owaJ" d="M335.63 276.55c-1.34-.56-3.42.6-4.54 1.28-.35.22-.47.6-.42.97a15.77 15.77 0 0 0-1.59 5.53c-.16 1.28-.13 2.66 1.06 3.45a2.1 2.1 0 0 0 2.8-.41c.98-1.13.75-2.66.54-4-.05-.31-.07-1.62-.15-2.45.22.11.51.2.71.23 1.16.17 2.14-.59 2.45-1.69.27-.96.18-2.47-.86-2.91"/><path id="v3owaK" d="M293.37 231.92a35.43 35.43 0 0 0-2.02 4.3.87.87 0 0 0-.35.6 18.36 18.36 0 0 1-.35 1.95c-.57 2.55-1.53 4.98-1.95 7.57-.21 1.35-.57 2.8.42 3.86.2.22.5.27.78.2 3.83-.87 3.17-10.15 3.04-13.9a30.57 30.57 0 0 1 1.75-3.8c.46-.87-.86-1.65-1.32-.78"/><path id="v3owaL" d="M288.23 258.38a.3.3 0 0 0-.22.03c-.1-.16-.38-.15-.43.06a9.02 9.02 0 0 0-.14 2.42c.03.46.38.92.9.73.56-.2.58-.99.57-1.48-.01-.57-.01-1.58-.68-1.76"/><path id="v3owaM" d="M334.12 226.08c-.57-.8-1.91-.04-1.34.78l.12.19c-.13.96.16 2.06.28 2.97.1.81.46 1.83 1.52 1.44 1.98-.72.16-4.34-.58-5.38"/><path id="v3owaN" d="M301.57 271.57a.39.39 0 0 0-.2-.15.88.88 0 0 0-.33-.5l-1.45-1.1a.6.6 0 0 0-.53-.1.8.8 0 0 0-1.27.65c-.1 1.27-.5 4.87 1.22 5.44 1 .33 1.41-.36 1.65-1.21.26 1.13.53 2.49.59 2.72.26 1.01.46 1.91 1.23 2.66.44.43 1.3.28 1.44-.38.69-3.22-.54-5.48-2.35-8.03"/><path id="v3owaO" d="M322.45 209.76c8.1 0 14.9 2.8 19.7 6.9l-6.4 10.7c-3.6-3.4-7.4-5.3-13.3-5.3-10.1 0-16.7 8.7-16.7 19.3 0 .5 0 1 .1 1.4 3.1-4.5 9.8-8.5 17.1-8.5 12 0 22.7 7.3 22.7 21.49 0 13-10.3 22.9-25.5 22.9-20.3 0-28.79-15.6-28.79-34.4 0-20.2 11.4-34.49 31.1-34.49m-3.6 36.3c-5 0-9.8 2.5-13 6.4.6 6.4 4.2 13.8 13.6 13.8 7.7 0 11.79-5.2 11.79-9.9 0-7.2-5.9-10.3-12.4-10.3"/><path id="v3owb" d="M289.8 208h57.4v72.64h-57.4z"/><path id="v3owaQ" d="M343.9 244.01c-5.17-7.67-11.5-10.98-20.52-10.9-5.95.04-12.14 1.07-16.09 5.1.81-6.01 3.52-11.83 9.67-14.04 3.75-1.35 8.42-.96 12.2.3 2.5.84 3.7 3.26 6.13 3.83.46.11.99.01 1.32-.35 1.74-1.88 6.03-7.44 6.23-10.08.2-2.54-1.99-3.2-3.99-4.3-9.92-7.89-28.34-7.26-37.11 1.01-2.84 2.67-5.95 6.06-7.65 9.59-1.94 4.02-2.32 8.72-3.08 13.07-1.34 7.66-2.19 16.58.9 24.03 3.25 7.85 10.47 13.4 17.8 17.11 6.85 3.5 15.9 2.58 22.88-.3 12.28-5.08 19.05-22.59 11.3-34.07m-13.75 31.95a34.9 34.9 0 0 1-12 1.7c-4.66-.13-8.7-2.57-12.48-5.08-4-2.66-6.83-5.86-9.33-9.94-2.15-3.5-2.56-7.05-3.15-11.07-1.08-7.42.48-16.7 2.79-23.87 2.87-8.94 12.2-15.96 21.38-16.56 8.16-.54 15.8 1.42 22.26 6.29-.02.36-.22.86-.56 1.73-.45 1.1-1.36 2.3-2.03 3.3-1.65 2.43-1.02 2.46-3.04 1.35-.58-.32-1.1-.79-1.71-1.1-3.9-2.06-10.53-2.8-14.77-1.69-9.96 2.62-13.55 13.2-13.29 22.47.05 1.63 2.23 1.84 2.76.37 3.22-8.87 18.88-10.22 26.15-6.16 7.36 4.1 11.87 11.79 10.92 20.22-.92 8.15-6.03 15.33-13.9 18.04"/><path id="v3owaR" d="M317.7 224.86c.68-.9-.86-2.1-1.6-1.22-.18.23-.34.48-.46.74a1.36 1.36 0 0 0-.71-.28c-1.23-.13-2.3 1.57-2.7 2.53-.08.17.04.41.26.34.57-.17 1.48-.51 1.86-1 .06 0 .1-.02.14-.04 0 .06.02.11.01.16.01.36-.03.72-.04 1.08-.06 1.39-.28 2.92 1.51 3.11 1.28.14 2.57-.61 2.66-1.98.09-1.42-1.98-2.05-.94-3.44"/><path id="v3owaS" d="M312.87 252.72c-.3-.73-.87-1.4-1.41-1.97-.3-.32-.95-.83-.8-1.37.1-.37.75-.8 1-1.14.12-.15 0-.4-.18-.45a2.22 2.22 0 0 0-2.55 1.31c-.29-.12-.6-.2-.98-.17-1.79.12-2.96 2.44-3.65 3.82-.45.9.76 2.02 1.48 1.14.56-.68 1.1-2.09 1.8-2.56.65-.46.84-.28.99.73.05.37.04.75.09 1.12.2 1.4 1.14 2.87 2.76 2.66 1.52-.19 1.98-1.86 1.45-3.12"/><path id="v3owaT" d="M315.95 250.68c-.1-.15-.29-.3-.49-.28-.46.05-.56.27-.53.55-.4.68-.08 1.76.2 2.39.15.31.66.37.88.11.69-.8.5-1.93-.06-2.77"/><path id="v3owaU" d="M334.22 275.82c-1.34-.57-3.42.6-4.54 1.28-.35.22-.47.6-.42.97a15.8 15.8 0 0 0-1.59 5.53c-.16 1.28-.13 2.66 1.06 3.45a2.1 2.1 0 0 0 2.8-.41c.98-1.13.75-2.66.53-4-.04-.32-.06-1.62-.14-2.45.22.11.51.2.71.22 1.16.18 2.14-.58 2.45-1.68.27-.96.18-2.47-.86-2.91"/><path id="v3owaV" d="M291.96 231.2a35.43 35.43 0 0 0-2.02 4.28.88.88 0 0 0-.35.62 17.48 17.48 0 0 1-.35 1.95c-.57 2.54-1.53 4.97-1.95 7.56-.21 1.35-.57 2.8.42 3.86.2.22.5.27.78.2 3.83-.87 3.17-10.15 3.04-13.9a30.71 30.71 0 0 1 1.75-3.8c.46-.87-.86-1.65-1.32-.78"/><path id="v3owaW" d="M287.81 257.95a.3.3 0 0 0-.22.03c-.1-.16-.38-.15-.43.06a9.02 9.02 0 0 0-.14 2.42c.03.46.38.92.9.73.56-.2.58-.99.57-1.48-.01-.57-.01-1.58-.68-1.76"/><path id="v3owaX" d="M332.7 225.34c-.56-.8-1.9-.04-1.33.78l.11.19c-.12.96.17 2.06.29 2.97.1.81.46 1.83 1.52 1.44 1.98-.72.16-4.34-.58-5.38"/><path id="v3owaY" d="M300.16 270.84a.39.39 0 0 0-.2-.15.88.88 0 0 0-.33-.5l-1.45-1.1a.6.6 0 0 0-.53-.1.8.8 0 0 0-1.27.65c-.1 1.27-.5 4.87 1.22 5.44 1 .33 1.41-.36 1.65-1.21.26 1.13.53 2.49.59 2.72.26 1.01.46 1.91 1.23 2.66.44.43 1.3.28 1.44-.38.69-3.22-.54-5.48-2.35-8.03"/><path id="v3owaZ" d="M288.88 247.26c-.06 0-.13-.01-.19-.03a.8.8 0 0 1-.52-.4c-.25-.45-.1-1.07-.04-1.25.33-1.08.74-2.14 1.23-3.15.1-.18.32-.26.5-.17.19.09.27.31.18.5-.47.97-.87 2-1.2 3.04-.07.26-.08.55-.01.67.1.05.25-.05.37-.24.15-.24.25-.52.29-.81.03-.2.2-.35.42-.33.2.03.35.22.32.43-.05.39-.19.78-.4 1.11-.25.4-.6.63-.95.63"/><path id="v3owba" d="M291.82 234.89l-.69-.3.35-.8c.08-.18.3-.27.5-.19a.37.37 0 0 1 .18.5z"/><path id="v3owbb" d="M295.26 263.44c-.1 0-.2-.04-.27-.12a11.54 11.54 0 0 1-3.2-9.3.4.4 0 0 1 .42-.33c.2.02.35.21.33.42-.36 3.16.75 6.41 2.99 8.69a.38.38 0 0 1-.27.64"/><path id="v3owbc" d="M296.57 265.6a.37.37 0 0 1-.37-.29c-.2.03-.35-.1-.38-.3-.02-.2.16-.36.36-.39a.7.7 0 0 1 .76.53.37.37 0 0 1-.37.46"/><path id="v3owbd" d="M287.87 260.49a.38.38 0 0 1-.38-.38v-.35a.38.38 0 0 1 .75 0v.35c0 .21-.17.38-.38.38"/><path id="v3owbe" d="M297.7 274.12a.7.7 0 0 1-.47-.17.38.38 0 0 1 .5-.57c.01 0 .12-.08.13-.16.04-.2-.09-.45-.24-.7a.38.38 0 0 1 .65-.37c.17.28.42.72.33 1.2a.98.98 0 0 1-.63.73.81.81 0 0 1-.27.04"/><path id="v3owbf" d="M301.28 278.2a.37.37 0 0 1-.32-.56c.29-.53.38-1.15.23-1.73-.05-.2.07-.4.28-.45.2-.04.4.07.45.27.2.77.08 1.6-.32 2.27a.37.37 0 0 1-.32.2"/><path id="v3owbg" d="M329.8 286.33l-.39-.03a.76.76 0 0 1-.45-.2c-.18-.18-.2-.43-.2-.54-.01-.47.02-.95.1-1.43.02-.2.21-.36.42-.31.2.03.34.22.31.43-.06.42-.1.86-.08 1.29.28.06.57.04.84-.03.2-.05.4.07.46.27.05.2-.07.4-.27.46-.24.06-.49.09-.73.09"/><path id="v3owbh" d="M324.5 287h-.09a.53.53 0 0 1-.36-.3.53.53 0 0 1 0-.46.38.38 0 0 1 .71.13.38.38 0 0 1-.26.64"/><path id="v3owbi" d="M333.69 279.56a.37.37 0 0 1-.25-.65l.23-.22a.37.37 0 1 1 .5.55l-.23.22a.37.37 0 0 1-.25.1"/><path id="v3owbj" d="M324.61 267.66a.37.37 0 0 1-.35-.27c-.06-.2.05-.4.25-.46 2.77-.82 4.9-1.93 6.48-3.38 1.92-1.76 3.02-4.13 2.97-6.36 0-.2.16-.37.37-.38.22.01.38.16.38.37.06 2.47-1.11 5-3.2 6.92-1.68 1.53-3.9 2.7-6.79 3.54a.36.36 0 0 1-.1.02"/><path id="v3owbk" d="M333.92 254.56a.38.38 0 0 1-.38-.37v-1.17a.38.38 0 0 1 .75 0v1.17c0 .2-.17.37-.38.37"/><path id="v3owbl" d="M331.58 237.37a.37.37 0 0 1-.23-.08c-1.46-1.14-3.43-1.41-5.17-1.52-3.03-.2-6.09-.02-9.08.53-.2.03-.4-.1-.43-.3-.04-.21.1-.4.3-.44 3.05-.56 6.17-.74 9.26-.54 1.85.12 3.97.41 5.58 1.68a.37.37 0 0 1-.23.67"/><path id="v3owbm" d="M316.44 229.11a.99.99 0 0 1-.38-.07.38.38 0 0 1-.2-.5c.08-.18.3-.27.49-.2.1.05.25 0 .31-.08a.29.29 0 0 0 .02-.32.37.37 0 1 1 .6-.43c.27.36.25.88-.03 1.22-.2.25-.5.38-.8.38"/><path id="v3owbn" d="M316.18 225.45c-.15 0-.29-.06-.35-.2-.1-.18-.06-.38.13-.47l.23-.12a.38.38 0 0 1 .5.17c.1.18.02.4-.16.5l-.16.08a.44.44 0 0 1-.2.04"/><path id="v3owbo" d="M333.02 229.8l-.1-.01a.37.37 0 0 1-.25-.47l.27-.95c.06-.2.26-.31.46-.26.2.06.32.27.26.47l-.28.95a.37.37 0 0 1-.36.27"/><path id="v3owbp" d="M339.81 220.06a.38.38 0 0 1-.34-.52l1.3-3.14c.05-.13.14-.33.1-.43-.04-.1-.2-.2-.3-.26-.84-.5-1.75-.9-2.68-1.19-.33-.1-.43-.34-.42-.53l.03-.3.34-.08c.18-.02.38.06.46.26.93.3 1.82.7 2.65 1.2.24.14.5.32.62.64.14.38-.01.75-.1.97l-1.31 3.15a.38.38 0 0 1-.35.23"/><path id="v3owbq" d="M299.84 218.96a.37.37 0 0 1-.29-.61 29.28 29.28 0 0 1 9.2-7.38c.17-.1.4-.02.5.17.1.18.02.4-.17.5a28.51 28.51 0 0 0-8.95 7.19.37.37 0 0 1-.29.13"/><path id="v3owbr" d="M313.68 279.09h-.05a6.83 6.83 0 0 1-2.7-1 .37.37 0 0 1-.11-.52.38.38 0 0 1 .52-.11c.72.46 1.55.76 2.4.88a.37.37 0 0 1-.06.75"/><path id="v3owbs" d="M158.48 270.18c.05 5.35-4.84 8.25-9.68 8.88.07 1.06.34 2.09.24 3.16-.03.31-.22.48-.52.52-2.02.27-3.58.42-3.53-1.87l.04-1.8a18.3 18.3 0 0 1-8.9-3.79c.03.45-.02.78.18 1.2.17.33.29.37.51.63.23.27.37.59.36.94-.04.82-.78 1.25-1.53 1a1.44 1.44 0 0 1-.95-1.89c.12-.38.29-.68.42-1.02-.02-.32 0-.66.06-.99a.4.4 0 0 1 .14-.25c.02-.12.05-.23.1-.34-.03-.11-.05-.24-.04-.42.09-1.23 1.94-3.27 2.59-4.34.2-.35.67-.4.96-.13 1.61 1.52 3.6 2.5 5.73 2.89-.08-.95-.12-1.9-.06-2.85.05-.86.08-1.72.12-2.59l-.43-.14c-2.14-.68-4.65-1.02-6.35-2.61-1.47-1.37-2.06-3.52-1.97-5.49.23-5.13 4.34-7.96 9.06-8.67.03-1.11.06-2.22.11-3.34-.15-.23-.05-.64.32-.65 1.11-.06 2.2-.05 3.31.02.27.02.43.2.45.45.12 1.18.11 2.32.06 3.46 3.22.37 6.28 1.7 8.16 3.93.04.05.06.1.07.16.1.13.13.32 0 .5-1.29 1.7-2.35 4.68-4.72 3.61-.74-.34-1.35-1.04-2.1-1.41-.5-.25-1.05-.46-1.61-.64.06 1.66.18 3.3.24 4.93 4.56 1.37 9.12 3.57 9.16 8.95m-13.6-10.14l.05-4.24c-.73.12-1.37.45-1.82 1.18-1.16 1.9.2 2.62 1.77 3.06m5.39 12.07c2.23-1.87.37-2.87-1.03-3.4l.01 3.83c.4-.09.76-.22 1.02-.43m9.26-12.47c.24.53.27 1.15-.17 1.58-.35.34-.88.4-1.3.2-.5-.24-.74-.77-.69-1.3.07-.69.74-1.32.61-2-.02-.1.11-.21.19-.12.11.14.18.28.23.43.56-.02.95.79 1.13 1.2m-3.77 22.49c.07.87-.73 1.48-1.54 1.45-.82-.03-1.6-.62-1.45-1.5.06-.43.31-.75.55-1.1.27-.42.33-.88.56-1.3.09-.17.33-.12.38.05.08 0 .16.03.22.1.33.38.35.89.69 1.28.28.33.55.56.59 1.02"/><path id="v3owc" d="M134 245.28h23.87v36.7H134z"/><path id="v3owbu" d="M157.87 269.28c.05 5.35-4.84 8.25-9.68 8.88.07 1.06.34 2.09.24 3.16-.03.31-.22.48-.52.52-2.02.27-3.58.42-3.53-1.87l.04-1.8a18.3 18.3 0 0 1-8.9-3.79c.03.45-.02.78.18 1.2.17.33.29.37.51.63.23.27.37.59.36.94-.04.82-.78 1.25-1.53 1a1.44 1.44 0 0 1-.95-1.89c.12-.38.3-.68.42-1.02-.02-.32 0-.65.06-.99a.4.4 0 0 1 .14-.25c.02-.12.05-.23.1-.34a1.1 1.1 0 0 1-.04-.42c.09-1.23 1.94-3.27 2.59-4.34.2-.35.67-.4.96-.13 1.61 1.52 3.6 2.5 5.73 2.89-.08-.95-.12-1.9-.06-2.85.05-.86.08-1.72.12-2.59l-.43-.14c-2.14-.68-4.65-1.02-6.35-2.61-1.47-1.37-2.06-3.52-1.97-5.49.23-5.13 4.34-7.96 9.06-8.67.03-1.11.06-2.22.11-3.34-.15-.23-.05-.63.32-.65 1.11-.06 2.2-.05 3.31.02.27.02.43.2.45.45.12 1.18.11 2.32.06 3.46 3.22.37 6.28 1.7 8.16 3.93.04.05.06.1.07.16.11.13.13.32 0 .5-1.29 1.7-2.35 4.68-4.72 3.61-.74-.34-1.35-1.04-2.1-1.41-.5-.24-1.05-.46-1.6-.64.05 1.66.17 3.29.23 4.94 4.56 1.36 9.12 3.56 9.16 8.94m-13.6-10.14l.05-4.24c-.72.12-1.37.45-1.82 1.18-1.16 1.9.2 2.62 1.77 3.06m5.4 12.07c2.24-1.87.37-2.87-1.04-3.4l.01 3.83c.4-.09.76-.22 1.02-.43"/><path id="v3owbv" d="M158.92 258.74c-.19-.42-.58-1.23-1.13-1.2-.05-.16-.12-.3-.23-.43-.08-.1-.2 0-.2.1.14.69-.54 1.33-.6 2-.05.54.18 1.06.68 1.3.43.21.95.14 1.3-.2.45-.42.41-1.04.18-1.57"/><path id="v3owbw" d="M154.56 280.2c-.34-.39-.36-.9-.7-1.28a.33.33 0 0 0-.21-.1c-.05-.16-.3-.22-.38-.05-.23.43-.29.88-.56 1.3-.24.35-.49.67-.55 1.1-.14.89.63 1.48 1.45 1.5.82.03 1.6-.57 1.54-1.45-.04-.46-.3-.69-.59-1.01"/><path id="v3owbx" d="M135.05 277.42a.6.6 0 0 1-.57-.4.6.6 0 0 1 .33-.75.37.37 0 0 1 .5.46c.08.05.14.13.16.23.05.2-.08.4-.28.45a.55.55 0 0 1-.14.01"/><path id="v3owby" d="M154.15 282.16a.38.38 0 0 1-.14-.72c.05-.2.27-.33.47-.28.2.06.32.25.27.45a.8.8 0 0 1-.46.52.38.38 0 0 1-.14.03"/><path id="v3owbz" d="M158.29 259.93a.37.37 0 0 1-.2-.06.37.37 0 0 1-.12-.52c.08-.13.14-.26.18-.4.05-.2.24-.33.45-.28.2.05.32.26.27.46-.05.22-.14.43-.27.62a.37.37 0 0 1-.31.18"/><path id="v3owbA" d="M155.63 253.83a.37.37 0 0 1-.28-.13 8.83 8.83 0 0 0-5.56-3.04.38.38 0 0 1-.33-.42c.03-.2.21-.36.42-.33a9.6 9.6 0 0 1 6.04 3.3.37.37 0 0 1-.29.62"/><path id="v3owbB" d="M138.9 263.52a.38.38 0 0 1-.22-.07 4.86 4.86 0 0 1-1.85-2.7 7.04 7.04 0 0 1-.08-3.23c.12-.65.31-1.29.57-1.9a.38.38 0 1 1 .7.3 8.67 8.67 0 0 0-.53 1.74 6.31 6.31 0 0 0 .06 2.88 4.1 4.1 0 0 0 1.56 2.3c.17.11.21.35.1.52-.08.1-.2.16-.31.16"/><path id="v3owbC" d="M141.42 264.85a.37.37 0 0 1-.3-.15c-.06-.08-.19-.12-.29-.13-.2 0-.38-.15-.39-.36 0-.2.15-.38.36-.39.37 0 .7.15.91.42.13.16.1.4-.06.52a.37.37 0 0 1-.23.09"/><path id="v3owbD" d="M147.04 281.66c-.15 0-.3-.03-.43-.08a.37.37 0 1 1 .27-.7l.05.02v-1.43c0-.21.16-.38.37-.38.22.03.37.17.37.37l.01 1.65c0 .05 0 .2-.1.34-.08.1-.2.17-.34.2l-.2.01zm.24-.43h.01z"/><path id="v3owbE" d="M145.43 259.04a.38.38 0 0 1-.37-.35c-.1-1.2-.2-2.38-.32-3.57a.37.37 0 0 1 .34-.4c.2-.02.39.12.4.33.12 1.2.23 2.38.32 3.58.02.2-.13.39-.34.4h-.03"/><path id="v3owbF" d="M150.03 276.59a.38.38 0 0 1-.07-.75 8.34 8.34 0 0 0 4.07-1.93c.6-.51 1.3-1.32 1.33-2.26 0-.2.17-.36.37-.36h.02c.2 0 .37.18.36.39-.03.95-.58 1.92-1.58 2.8a9.08 9.08 0 0 1-4.5 2.1"/><path id="v3owbG" d="M155.71 266.2a.37.37 0 0 1-.32-.18 8.54 8.54 0 0 0-2.34-2.17.37.37 0 0 1-.37-.54.5.5 0 0 1 .28-.23c.2-.05.38.06.45.1.91.65 1.95 1.4 2.62 2.44a.37.37 0 0 1-.32.58"/><clipPath id="v3owaI"><use xlink:href="#v3owa"/></clipPath><clipPath id="v3owaP"><use xlink:href="#v3owb"/></clipPath><clipPath id="v3owbt"><use xlink:href="#v3owc"/></clipPath></defs><g><g transform="translate(-134 -208)"><g><use fill="#c12020" xlink:href="#v3owd"/></g><g><use fill="#c12020" xlink:href="#v3owe"/></g><g><use fill="#c12020" xlink:href="#v3owf"/></g><g><use fill="#d53232" xlink:href="#v3owg"/></g><g><use fill="#c12020" xlink:href="#v3owh"/></g><g><use fill="#c12020" xlink:href="#v3owi"/></g><g><use fill="#c12020" xlink:href="#v3owj"/></g><g><use fill="#c12020" xlink:href="#v3owk"/></g><g><use fill="#c12020" xlink:href="#v3owl"/></g><g><use fill="#c12020" xlink:href="#v3owm"/></g><g><use fill="#c12020" xlink:href="#v3own"/></g><g><use fill="#c12020" xlink:href="#v3owo"/></g><g><use fill="#c12020" xlink:href="#v3owp"/></g><g><use fill="#c12020" xlink:href="#v3owq"/></g><g><use fill="#d53232" xlink:href="#v3owr"/></g><g><use fill="#d53232" xlink:href="#v3ows"/></g><g><use fill="#d53232" xlink:href="#v3owt"/></g><g><use fill="#d53232" xlink:href="#v3owu"/></g><g><use fill="#d53232" xlink:href="#v3owv"/></g><g><use fill="#d53232" xlink:href="#v3oww"/></g><g><use fill="#d53232" xlink:href="#v3owx"/></g><g><use fill="#d53232" xlink:href="#v3owy"/></g><g><use fill="#d53232" xlink:href="#v3owz"/></g><g><use fill="#d53232" xlink:href="#v3owA"/></g><g><use fill="#f8fafb" xlink:href="#v3owB"/></g><g><use fill="#f8fafb" xlink:href="#v3owC"/></g><g><use fill="#f8fafb" xlink:href="#v3owD"/></g><g><use fill="#f8fafb" xlink:href="#v3owE"/></g><g><use fill="#f8fafb" xlink:href="#v3owF"/></g><g><use fill="#f8fafb" xlink:href="#v3owG"/></g><g><use fill="#f8fafb" xlink:href="#v3owH"/></g><g><use fill="#f8fafb" xlink:href="#v3owI"/></g><g><use fill="#f8fafb" xlink:href="#v3owJ"/></g><g><use fill="#f8fafb" xlink:href="#v3owK"/></g><g><use fill="#f8fafb" xlink:href="#v3owL"/></g><g><use fill="#f8fafb" xlink:href="#v3owM"/></g><g><use fill="#f8fafb" xlink:href="#v3owN"/></g><g><use fill="#f8fafb" xlink:href="#v3owO"/></g><g><use fill="#c12020" xlink:href="#v3owP"/></g><g><use fill="#c12020" xlink:href="#v3owQ"/></g><g><use fill="#c12020" xlink:href="#v3owR"/></g><g><use fill="#c12020" xlink:href="#v3owS"/></g><g><use fill="#c12020" xlink:href="#v3owT"/></g><g><use fill="#c12020" xlink:href="#v3owU"/></g><g><use fill="#c12020" xlink:href="#v3owV"/></g><g><use fill="#c12020" xlink:href="#v3owW"/></g><g><use fill="#c12020" xlink:href="#v3owX"/></g><g><use fill="#c12020" xlink:href="#v3owY"/></g><g><use fill="#d53232" xlink:href="#v3owZ"/></g><g><use fill="#d53232" xlink:href="#v3owaa"/></g><g><use fill="#d53232" xlink:href="#v3owab"/></g><g><use fill="#d53232" xlink:href="#v3owac"/></g><g><use fill="#d53232" xlink:href="#v3owad"/></g><g><use fill="#d53232" xlink:href="#v3owae"/></g><g><use fill="#d53232" xlink:href="#v3owaf"/></g><g><use fill="#d53232" xlink:href="#v3owag"/></g><g><use fill="#d53232" xlink:href="#v3owah"/></g><g><use fill="#d53232" xlink:href="#v3owai"/></g><g><use fill="#f8fafb" xlink:href="#v3owaj"/></g><g><use fill="#f8fafb" xlink:href="#v3owak"/></g><g><use fill="#f8fafb" xlink:href="#v3owal"/></g><g><use fill="#f8fafb" xlink:href="#v3owam"/></g><g><use fill="#f8fafb" xlink:href="#v3owan"/></g><g><use fill="#f8fafb" xlink:href="#v3owao"/></g><g><use fill="#f8fafb" xlink:href="#v3owap"/></g><g><use fill="#f8fafb" xlink:href="#v3owaq"/></g><g><use fill="#f8fafb" xlink:href="#v3owar"/></g><g><use fill="#f8fafb" xlink:href="#v3owas"/></g><g><use fill="#f8fafb" xlink:href="#v3owat"/></g><g><use fill="#f8fafb" xlink:href="#v3owau"/></g><g><use fill="#f8fafb" xlink:href="#v3owav"/></g><g><use fill="#f8fafb" xlink:href="#v3owaw"/></g><g><use fill="#d53232" xlink:href="#v3owax"/></g><g><use fill="#d53232" xlink:href="#v3oway"/></g><g><use fill="#f8fafb" xlink:href="#v3owaz"/></g><g><use fill="#f8fafb" xlink:href="#v3owaA"/></g><g><use fill="#f8fafb" xlink:href="#v3owaB"/></g><g><use fill="#c12020" xlink:href="#v3owaC"/></g><g><use fill="#c12020" xlink:href="#v3owaD"/></g><g><use fill="#c12020" xlink:href="#v3owaE"/></g><g><use fill="#c12020" xlink:href="#v3owaF"/></g><g><use fill="#c12020" xlink:href="#v3owaG"/></g><g><use fill="#c12020" xlink:href="#v3owaH"/></g><g><g/><g clip-path="url(#v3owaI)"><use fill="#c12020" xlink:href="#v3owaJ"/></g></g><g><use fill="#c12020" xlink:href="#v3owaK"/></g><g><use fill="#c12020" xlink:href="#v3owaL"/></g><g><use fill="#c12020" xlink:href="#v3owaM"/></g><g><use fill="#c12020" xlink:href="#v3owaN"/></g><g><use fill="#d53232" xlink:href="#v3owaO"/></g><g><g/><g clip-path="url(#v3owaP)"><use fill="#d53232" xlink:href="#v3owaQ"/></g></g><g><use fill="#d53232" xlink:href="#v3owaR"/></g><g><use fill="#d53232" xlink:href="#v3owaS"/></g><g><use fill="#d53232" xlink:href="#v3owaT"/></g><g><use fill="#d53232" xlink:href="#v3owaU"/></g><g><use fill="#d53232" xlink:href="#v3owaV"/></g><g><use fill="#d53232" xlink:href="#v3owaW"/></g><g><use fill="#d53232" xlink:href="#v3owaX"/></g><g><use fill="#d53232" xlink:href="#v3owaY"/></g><g><use fill="#f8fafb" xlink:href="#v3owaZ"/></g><g><use fill="#f8fafb" xlink:href="#v3owba"/></g><g><use fill="#f8fafb" xlink:href="#v3owbb"/></g><g><use fill="#f8fafb" xlink:href="#v3owbc"/></g><g><use fill="#f8fafb" xlink:href="#v3owbd"/></g><g><use fill="#f8fafb" xlink:href="#v3owbe"/></g><g><use fill="#f8fafb" xlink:href="#v3owbf"/></g><g><use fill="#f8fafb" xlink:href="#v3owbg"/></g><g><use fill="#f8fafb" xlink:href="#v3owbh"/></g><g><use fill="#f8fafb" xlink:href="#v3owbi"/></g><g><use fill="#f8fafb" xlink:href="#v3owbj"/></g><g><use fill="#f8fafb" xlink:href="#v3owbk"/></g><g><use fill="#f8fafb" xlink:href="#v3owbl"/></g><g><use fill="#f8fafb" xlink:href="#v3owbm"/></g><g><use fill="#f8fafb" xlink:href="#v3owbn"/></g><g><use fill="#f8fafb" xlink:href="#v3owbo"/></g><g><use fill="#f8fafb" xlink:href="#v3owbp"/></g><g><use fill="#f8fafb" xlink:href="#v3owbq"/></g><g><use fill="#f8fafb" xlink:href="#v3owbr"/></g><g><use fill="#c12020" xlink:href="#v3owbs"/></g><g><g/><g clip-path="url(#v3owbt)"><use fill="#d53232" xlink:href="#v3owbu"/></g></g><g><use fill="#d53232" xlink:href="#v3owbv"/></g><g><use fill="#d53232" xlink:href="#v3owbw"/></g><g><use fill="#f8fafb" xlink:href="#v3owbx"/></g><g><use fill="#f8fafb" xlink:href="#v3owby"/></g><g><use fill="#f8fafb" xlink:href="#v3owbz"/></g><g><use fill="#f8fafb" xlink:href="#v3owbA"/></g><g><use fill="#f8fafb" xlink:href="#v3owbB"/></g><g><use fill="#f8fafb" xlink:href="#v3owbC"/></g><g><use fill="#f8fafb" xlink:href="#v3owbD"/></g><g><use fill="#f8fafb" xlink:href="#v3owbE"/></g><g><use fill="#f8fafb" xlink:href="#v3owbF"/></g><g><use fill="#f8fafb" xlink:href="#v3owbG"/></g></g></g></svg>