<svg xmlns="http://www.w3.org/2000/svg" xmlns:xlink="http://www.w3.org/1999/xlink" width="216" height="81" viewBox="0 0 216 81"><defs><path id="xbaqd" d="M258.67 271.37a4.92 4.92 0 0 1 4.87 4.86 4.92 4.92 0 0 1-4.87 4.87 4.92 4.92 0 0 1-4.86-4.87 4.92 4.92 0 0 1 4.86-4.86"/><path id="xbaqe" d="M260.51 270.82a.88.88 0 0 0-.69-.32h-.03c-.03-.03-.05-.06-.1-.09a1.3 1.3 0 0 0-.6-.19c-.22-.01-.4.1-.6.1a1 1 0 0 0-.32.09c-1.55-.19-3.54 1.57-4.12 2.76a7.22 7.22 0 0 0-.56 4.45c.3 1.47 1.32 2.34 2.67 2.93 1.95.86 3.86.78 5.25-.3a3.89 3.89 0 0 0 2.6-3.75c-.04-2.26-1.36-4.8-3.5-5.68m-.03 5.95c-.1.4-.26.76-.47 1.05a5 5 0 0 1-.36.11 1.2 1.2 0 0 0-.66.5c-.07.02-.11.05-.18.05a3.96 3.96 0 0 1-2.23-.63c-1.2-.81-.77-3.11-.06-4.17a4.02 4.02 0 0 1 1.66-1.28c.09.31.3.6.66.78a3.06 3.06 0 0 1 1.64 3.59"/><path id="xbaqf" d="M255.39 283.42c-.17-.55-.31-.99-.38-1.56-.05-.37-.6-.75-.94-.36a1.2 1.2 0 0 0-.3 1.02c-.63 1.15-1.3 2.86.27 2.99.62.04 1.23-.39 1.4-.93.12-.38.06-.78-.05-1.16"/><path id="xbaqg" d="M257.78 270.73a4.92 4.92 0 0 1 4.87 4.86 4.92 4.92 0 0 1-4.87 4.87 4.92 4.92 0 0 1-4.86-4.87 4.92 4.92 0 0 1 4.86-4.86"/><path id="xbaqh" d="M167.47 210.58c8.1 0 14.9 2.8 19.7 6.9l-6.4 10.7c-3.6-3.4-7.4-5.3-13.3-5.3-10.1 0-16.7 8.7-16.7 19.3 0 .5 0 1 .1 1.4 3.1-4.5 9.8-8.5 17.1-8.5 12 0 22.7 7.3 22.7 21.49 0 13-10.3 22.9-25.5 22.9-20.3 0-28.79-15.6-28.79-34.4 0-20.2 11.4-34.49 31.1-34.49m-3.6 36.3c-5 0-9.8 2.5-13 6.4.6 6.39 4.2 13.78 13.6 13.78 7.7 0 11.79-5.2 11.79-9.89 0-7.2-5.9-10.3-12.4-10.3"/><path id="xbaqi" d="M184.35 238.63c-7-5.62-16.34-5.57-24.4-2.33-2.34.94-4.27 2.35-6.48 3.5 4.36-2.27-1.73 1.18-1.64 1.2-1.9-.54-.4-3.68.06-5.19 2.9-9.78 12.04-12.41 21.36-9.9 2.6.71 5.81 3.26 8.55 1.97 1.46-.69 2.25-3.41 3.02-4.77 1.1-1.94 2.56-3.72 2.53-5.98 0-.46-.3-.7-.62-.76-12.63-11.21-35.56-8.53-45.13 5.26-5.91 8.52-6.47 20.43-5.7 30.43.67 8.64 4.04 18.68 11.42 24.03 3.96 2.86 9.03 3.35 13.7 4.14 4.51.76 8.55 1.65 12.96.03 8.89-3.28 15.17-7.9 16.84-17.8 1.46-8.61.76-18.02-6.47-23.83m-5.95 36.77c-4.07 1.51-7.54 3.4-12.04 3.02a65.26 65.26 0 0 1-13.04-2.27c-9.3-2.85-14.02-14.23-14.85-23.1-.82-8.7-.63-18.8 3.24-26.81 7.36-15.23 30.97-19.36 43.51-8l.17.13c-.88 2.41-3.26 6.95-4.34 7.3-1.3.43-3.2-1.43-4.55-1.89-4.56-1.55-10.83-2.1-15.43-.6-7.12 2.3-14.47 12.39-11.74 20.13.16.45.5.69.96.73 2.16.19 3.99-2.5 5.66-3.53 3.8-2.35 8.32-4.16 12.84-4.2 8.94-.08 17.78 5.27 19.48 14.4 1.65 8.9-.36 21.16-9.87 24.7"/><path id="xbaqj" d="M163.75 245.05c-.47-.02-.78.3-.9.7-5.4-.05-12.53 2.6-13.11 8.1-.73 6.82 6.97 13.72 13.16 14.81 6.94 1.23 13.92-3.8 14.66-10.94.82-7.85-6.98-12.34-13.8-12.67m-1.79 21c-3.75-1.1-11.24-7-10.1-11.55 1.36-5.41 7.87-6.15 12.58-7.33 4.5.9 9.47 2.63 10.7 7.62 1.9 7.68-6.63 13.21-13.18 11.27"/><path id="xbaqk" d="M149.61 279.78c-.35-1.19-.58-2.45-.98-3.6a.77.77 0 0 0-.52-.47 3.42 3.42 0 0 0-.96-1.57c-.16-.15-.38-.1-.5.07-.43.58-.16.9-.1 1.55.12 1.33-.46 1.96-.84 3.12-.46 1.4-1.52 2.54-.1 3.4 1.2.72 2.64 1.1 3.5.08.49-.6.72-1.86.5-2.58"/><path id="xbaql" d="M153.01 281.66c-.01-.03-.03-.04-.05-.06.04-.28-1.08-1.31-1.3-1.05-.67.78-1.81 1.9-1.9 3-.08.9.96 1.77 1.91 1.82.9.04 1.65-.62 1.79-1.5a2.8 2.8 0 0 0-.45-2.21"/><path id="xbaqm" d="M190.42 265.28c.44-1.9.93-3.16.26-5.05a.08.08 0 0 0-.14 0 29.82 29.82 0 0 0-1.88 8.28c-.47-.15-1.05.08-1 .7.25 3.28-1.04 5.18-1.93 8.15-.33 1.08-.6 2.13-.06 3.2.75 1.5 2.27 1.96 3.67 1.07 2.68-1.72 1.2-6.3.9-8.8-.31-2.65-.43-4.9.18-7.55"/><path id="xbaqa" d="M134 256.13h3.67v10.07H134z"/><path id="xbaqo" d="M137.56 260.92c-.03-1.24.11-2.53-.37-3.69a.57.57 0 0 0-.56-.37l.03-.55c0-.17-.26-.26-.35-.09-1 1.9 0 4.64-1.6 6.06-1.25 1.1-.77 3.38.82 3.85 1.18.35 1.92-.72 2.07-1.74.16-1.11-.02-2.34-.04-3.47"/><path id="xbaqp" d="M187.6 217.84c0-.72-1.15-.91-1.3-.17a6.4 6.4 0 0 0-.07 1.96.76.76 0 0 0-.4.49c-.74 2.62-3.3 4.59-3.65 7.26-.1.75.12 1.42.2 2.16.19 1.76-1.07 2.61-.6 4.33.19.72.82 1.35 1.76 1.22 1.75-.25 2.13-3.16 2.23-4.9.06-1.05-.25-2.12.17-3.01a2.5 2.5 0 0 0 1.4-1.03l.07-.05c2.72-1.79.15-5.63.19-8.26"/><path id="xbaqq" d="M182.22 281.67c-.11-.44-.16-.93-.53-1.23h-.02a.18.18 0 0 0-.13-.08c-.17-.05-.34.04-.42.24-.08.18-.09.36-.07.54-.46 1.1-1.72 2.11.4 2.96.64.25 1.05-.65 1.03-1.25-.02-.4-.16-.8-.26-1.18"/><path id="xbaqr" d="M167.65 249.57c.55-.73.44-1.7-.11-2.39-.87-1.07-2.44-.87-3.64-.76-1.8.17-3.56.48-5.31.91a.85.85 0 0 0-.62.52c-.3.1-.58.28-.76.63-.1.16-.01.34.16.4 2.92.98 1.52 5.37 5.17 5.74.91.1 1.95-.18 2.54-.93.3-.38.43-.8.46-1.27.03-.38-.4-1.48-.28-1.73.27-.59 1.85-.4 2.4-1.12"/><path id="xbaqs" d="M166.47 209.76c8.1 0 14.9 2.8 19.7 6.9l-6.4 10.7c-3.6-3.4-7.4-5.3-13.3-5.3-10.1 0-16.7 8.7-16.7 19.3 0 .5 0 1 .1 1.4 3.1-4.5 9.8-8.5 17.1-8.5 12 0 22.7 7.3 22.7 21.49 0 13-10.3 22.9-25.5 22.9-20.3 0-28.79-15.6-28.79-34.4 0-20.2 11.4-34.49 31.1-34.49m-3.6 36.3c-5 0-9.8 2.5-13 6.4.6 6.4 4.2 13.8 13.6 13.8 7.7 0 11.8-5.2 11.8-9.9 0-7.2-5.9-10.3-12.4-10.3"/><path id="xbaqt" d="M183.34 237.81c-7-5.62-16.34-5.57-24.4-2.33-2.34.94-4.27 2.35-6.48 3.5 4.36-2.27-1.73 1.18-1.64 1.2-1.9-.54-.4-3.68.06-5.19 2.9-9.78 12.6-13.06 21.91-10.54 2.61.7 5.26 3.9 8 2.61 1.46-.69 2.26-3.41 3.02-4.77 1.1-1.94 2.56-3.72 2.53-5.98 0-.45-.29-.7-.62-.76-12.63-11.21-35.56-8.53-45.13 5.26-5.91 8.52-6.47 20.43-5.7 30.43.67 8.64 4.05 18.69 11.43 24.03 3.95 2.86 9.02 3.35 13.69 4.14 4.51.76 8.55 1.65 12.96.03 8.89-3.28 15.17-7.9 16.84-17.8 1.46-8.61.76-18.01-6.47-23.83m-5.95 36.77c-4.07 1.52-7.54 3.4-12.04 3.02a65.24 65.24 0 0 1-13.04-2.27c-9.3-2.85-14.02-14.23-14.85-23.1-.82-8.7-.63-18.8 3.24-26.81 7.36-15.23 30.97-19.36 43.51-8l.17.13c-.88 2.41-3.26 6.95-4.34 7.3-1.3.43-3.2-1.42-4.55-1.89-4.56-1.55-10.83-2.1-15.43-.6-7.12 2.3-14.47 12.39-11.74 20.13.16.45.5.69.96.73 2.16.19 3.99-2.5 5.66-3.53 3.8-2.35 8.32-4.16 12.84-4.2 8.94-.08 17.78 5.27 19.48 14.4 1.65 8.9-.36 21.16-9.87 24.69"/><path id="xbaqu" d="M162.75 244.23c-.47-.02-.78.3-.9.7-5.4-.05-12.53 2.6-13.11 8.1-.73 6.82 6.97 13.72 13.17 14.81 6.93 1.23 13.9-3.8 14.65-10.94.82-7.85-6.98-12.34-13.8-12.67m-1.79 21c-3.75-1.1-11.24-7-10.1-11.55 1.36-5.41 7.87-6.15 12.58-7.33 4.5.9 9.47 2.63 10.7 7.62 1.9 7.68-6.63 13.21-13.18 11.27"/><path id="xbaqv" d="M148.61 278.96c-.35-1.19-.59-2.45-.99-3.6a.78.78 0 0 0-.51-.47 3.44 3.44 0 0 0-.96-1.57c-.16-.15-.38-.1-.5.07-.43.58-.16.9-.1 1.55.11 1.33-.46 1.95-.84 3.12-.46 1.4-.51 3.36.9 4.21 1.2.73 2.53.1 3.02-1.15.28-.72.2-1.44-.02-2.16"/><path id="xbaqw" d="M152 280.84l-.05-.06c.05-.28-.3-.56-.53-.3-.67.78-1.58 1.6-1.67 2.69-.08.9.47 1.77 1.43 1.82.9.04 1.65-.62 1.79-1.5.15-.97-.5-1.86-.96-2.65"/><path id="xbaqx" d="M189.41 264.45c.44-1.9.93-3.16.26-5.05a.08.08 0 0 0-.14 0 29.8 29.8 0 0 0-1.88 8.28c-.47-.15-1.05.08-1 .7.25 3.28-1.04 5.18-1.93 8.15-.33 1.08-.6 2.13-.06 3.2.75 1.5 2.27 1.96 3.67 1.07 2.68-1.72 1.2-6.3.9-8.8-.31-2.65-.43-4.9.18-7.55"/><path id="xbaqy" d="M137.11 260.5c-.03-1.24.12-2.53-.36-3.69a.57.57 0 0 0-.56-.37l.03-.55c-.01-.17-.26-.26-.35-.09-1 1.9-1.33 3.94-1.6 6.06-.16 1.17-.77 3.38.82 3.85 1.17.35 1.92-.72 2.07-1.74.16-1.11-.02-2.34-.05-3.47"/><path id="xbaqz" d="M186.6 217.03c0-.73-1.15-.92-1.3-.18a6.4 6.4 0 0 0-.07 1.96.76.76 0 0 0-.4.49c-.74 2.62-3.3 4.59-3.65 7.26-.1.75.12 1.42.2 2.16.19 1.76-.06 3.43.4 5.15.2.72 1.1.75 1.49.2a8.62 8.62 0 0 0 1.5-4.7c.06-1.05-.25-2.12.17-3.01a2.5 2.5 0 0 0 1.4-1.03l.07-.05c2.72-1.79.15-5.63.19-8.25"/><path id="xbaqA" d="M181.85 281.28c-.12-.44-.17-.93-.53-1.23h-.01a.19.19 0 0 0-.15-.08c-.17-.05-.34.04-.42.24-.08.18-.08.36-.06.54-.46 1.1-.97 2.9.4 2.96.68.02 1.05-.65 1.02-1.25-.02-.4-.15-.8-.25-1.18"/><path id="xbaqB" d="M166.64 248.75c.55-.73.44-1.7-.11-2.39-.87-1.07-2.44-.87-3.64-.76-1.8.17-3.56.48-5.31.91a.85.85 0 0 0-.62.52c-.3.1-.58.28-.77.63-.08.16 0 .34.17.4 2.92.98 1.51 5.37 5.17 5.74.91.1 1.95-.18 2.54-.93.3-.38.43-.8.46-1.27.03-.38-.4-1.48-.28-1.74.27-.58 1.85-.4 2.4-1.11"/><path id="xbaqC" d="M152.23 215.71a.37.37 0 0 1-.32-.18.37.37 0 0 1 .13-.51 30.19 30.19 0 0 1 25.55-2.47c.2.07.3.29.22.48-.07.2-.29.3-.48.22a29.44 29.44 0 0 0-24.9 2.4.37.37 0 0 1-.2.06"/><path id="xbaqD" d="M182.58 233.04c-.16 0-.3-.1-.36-.25-.07-.2.03-.41.23-.48l.34-.12c.2-.06.4.03.48.23.06.2-.04.41-.23.48l-.34.12a.4.4 0 0 1-.12.02"/><path id="xbaqE" d="M183.55 231.2a.37.37 0 0 1-.36-.47c.15-.6.24-1.22.27-1.84 0-.2.14-.37.39-.36.2.01.36.18.36.4a9.72 9.72 0 0 1-.3 1.98.38.38 0 0 1-.36.28"/><path id="xbaqF" d="M135.54 265.06a.37.37 0 0 1-.18-.7c.33-.2.49-.67.34-1.02a.38.38 0 0 1 .69-.3c.3.71 0 1.6-.67 1.97a.39.39 0 0 1-.18.05"/><path id="xbaqG" d="M146.32 281.48a.6.6 0 0 1-.45-.2c-.18-.2-.19-.45-.19-.6l-.03-1.55c0-.2.16-.38.37-.38.24-.02.38.16.38.37l.03 1.52c.05 0 .1 0 .15.02.2.06.3.27.25.47-.06.17-.2.3-.4.34a.6.6 0 0 1-.11.01zm-.2-.58z"/><path id="xbaqH" d="M151.58 284.25h-.46a.38.38 0 0 1 0-.75h.46a.38.38 0 0 1 0 .75"/><path id="xbaqI" d="M187.11 279.84a2 2 0 0 1-.84-.18.37.37 0 0 1-.18-.5.38.38 0 0 1 .5-.18c.46.22 1.07.1 1.44-.26.36-.37.47-.98.24-1.44a.38.38 0 0 1 .68-.32c.36.75.2 1.7-.39 2.29-.38.39-.91.6-1.45.6"/><path id="xbaqJ" d="M186.21 254.73h-.03a.37.37 0 0 1-.34-.4c.25-3.72-.14-6.8-1.2-9.39-1.28-3.11-3.67-5.54-6.4-6.5a.37.37 0 0 1-.23-.48c.07-.2.28-.3.48-.23 2.97 1.04 5.47 3.57 6.84 6.93 1.11 2.7 1.52 5.88 1.25 9.72a.38.38 0 0 1-.37.35"/><path id="xbaqK" d="M168.62 278.48c-2.14 0-4.38-.28-6.65-.61l-5.21-.76c-2.64-.38-5.14-.88-6.73-2.74a.38.38 0 1 1 .57-.49c1.42 1.67 3.78 2.13 6.27 2.5l5.2.75c5.22.75 10.22 1.22 14.1-1.35.18-.12.41-.07.53.1.11.17.06.4-.1.52-2.37 1.57-5.08 2.08-7.98 2.08"/><path id="xbaqL" d="M136.62 245.52a.37.37 0 0 1-.37-.35c-.22-4.1-.48-9.2 1.72-13.37.1-.18.32-.25.5-.16.19.1.26.33.16.5-2.1 4-1.84 8.98-1.63 12.99.01.2-.15.38-.36.39h-.02"/><path id="xbaqM" d="M137.38 249.49a.37.37 0 0 1-.32-.18 2.86 2.86 0 0 1-.39-1.57c.01-.21.18-.34.4-.36.2 0 .36.18.35.4-.02.4.08.8.29 1.14a.37.37 0 0 1-.33.57"/><path id="xbaqN" d="M161.59 252.58c-.28 0-.43-.13-.51-.23a.49.49 0 0 1 0-.56l.15-.22.33.04c.1.03.19.1.23.18.28-.09.51-.32.57-.6.04-.2.24-.33.45-.28.2.04.33.24.28.44a1.59 1.59 0 0 1-1.49 1.23z"/><path id="xbaqO" d="M164.86 248.81h-.57a.38.38 0 0 1-.38-.38c0-.2.17-.37.38-.37h.57c.2 0 .38.17.38.38 0 .2-.17.37-.38.37"/><path id="xbaqP" d="M181.14 283.2a.37.37 0 0 1-.2-.68l.18-.13a.37.37 0 1 1 .42.63l-.19.12a.37.37 0 0 1-.2.06"/><path id="xbaqQ" d="M226.12 211.28c8.1 0 14.9 2.8 19.7 6.9l-6.4 10.7c-3.6-3.4-7.4-5.3-13.3-5.3-10.1 0-16.7 8.7-16.7 19.3 0 .5 0 1 .1 1.4 3.1-4.5 9.8-8.5 17.1-8.5 12 0 22.7 7.3 22.7 21.49 0 13-10.3 22.9-25.5 22.9-20.3 0-28.79-15.6-28.79-34.4 0-20.2 11.4-34.49 31.1-34.49m-3.6 36.3c-5 0-9.8 2.5-13 6.4.6 6.4 4.2 13.8 13.6 13.8 7.7 0 11.8-5.2 11.8-9.9 0-7.2-5.9-10.3-12.4-10.3"/><path id="xbaqR" d="M243.6 241.26c-2.7-2.32-5.78-4.62-9.3-5.47-2.54-.61-5.16-.43-7.77-.22-1.93-.19-3.75-.11-5.74.3-.3.06-.5.2-.67.38a21.88 21.88 0 0 0-10.42 5.93c.03-2.63 1.67-5.75 2.5-7.8 1.9-4.7 4.48-7.44 9.57-8.7 3.17-.77 6.81-.92 10-.12 2.82.71 4.78 2.63 7.4 3.6.43.15.97-.03 1.28-.34 2.55-2.58 4.46-6.44 6.48-9.42.5-.74.1-1.45-.52-1.76a1.16 1.16 0 0 0-.5-.91c-11.65-8.46-27.9-9.54-39.69-.62-5.06 3.84-8.35 9.27-10.07 15.33-1.03 3.63-1.04 7.04-1.47 10.74-.47 4.08-1.77 7.12-.6 11.25 1.16 4.15 2.88 8.22 4.35 12.28 1.1 3.06 2.18 5.92 4.73 8.05 4.8 4.03 11.89 6.12 17.98 6.86 7.9.97 13.43.36 20.12-4.17 5.47-3.71 8.16-9.17 9.1-15.71.93-6.5-1.72-15.16-6.75-19.48m1.7 25.65c-3.42 8.55-13.3 11.54-21.67 10.69-7.5-.76-17.56-3.04-21.08-10.42-1.64-3.45-2.69-7.33-3.95-10.93-.63-1.77-1.34-3.48-1.57-5.35-.3-2.45.44-4.44.79-6.84 1.06-7.43.77-14.18 5.44-20.6 9.86-13.57 28-13.49 41.13-4.98-1.34 2.19-3.73 7.24-6 7.18-1.28-.03-4.43-2.27-5.93-2.64a25.16 25.16 0 0 0-14.66 1.1c-4.23 1.64-6.17 4.74-7.85 8.78-1.63 3.94-4.16 8.58-2.1 12.72.34.7 1.55.9 2.07.27a19.5 19.5 0 0 1 11.94-7.25c1.7.03 3.45-.13 5.2-.25l.43.02c.2.02.4-.01.55-.08 1.86-.1 3.7-.1 5.46.32 3.2.78 6.76 3.28 9 5.6 5.73 5.94 5.65 15.53 2.8 22.66"/><path id="xbaqS" d="M220.22 245.67c-1-.1-1.37.77-1.16 1.52-5.74.4-11.05 4.18-10.26 10.5.82 6.6 8.34 11.47 14.59 11.68 6.92.24 13.6-4.97 13.18-12.29-.5-8.49-9.42-10.69-16.35-11.41m.49 20.72c-4.23-1.12-9.87-5.2-9.63-10.18.3-6 5.84-6.05 9.87-7.88 5.57.77 13.12 2.36 13.07 9.51-.04 6.8-7.52 10.08-13.31 8.55"/><path id="xbaqT" d="M224.09 279.75c-.65-.32-1.23-.23-1.89-.07-.68.17-.84-.07-1.48-.17-.1-.02-.5-.1-.52-.03-.1-.11-.2-.25-.29-.33a4.06 4.06 0 0 0-1.84-.76.93.93 0 0 0-.77.16 2.62 2.62 0 0 0-.9-.02c-.36.06-.33.51-.1.68.25.17.46.35.65.54.06.14.16.27.31.36.98 1.2.32 1.7.53 3.43.14 1.13 1.38 3.26 2.66 3.43 1.22.15 2-.93 2.04-2.03a7.8 7.8 0 0 0-.24-2.05l.23.17c2.2 1.33 3.87-2.18 1.61-3.31"/><path id="xbaqU" d="M201.05 268.73c-.1-.4-.36-.61-.65-.68-.17-2.33-.74-4.61-2.35-6.3-.18-.19-.6-.06-.56.23.58 4.35.9 8.12.67 12.53-.1 1.95-2.65 4.13 1.5 7.5 4.9 4.01 1.78-11.7 1.39-13.28"/><path id="xbaqV" d="M227.68 225.94c-.3-2.85-5.46-1.2-7.14-.86-.38.08-.58.31-.65.58-2.07.54-4 1.8-5.35 3.4-.2.24.07.69.37.47 1-.72 1.96-1.34 3.13-1.78.8-.3 2.7-1.07 3.5-.67 1 .52-.4.27-.35 1.38.02.4.87 1.56 1.05 1.92.34.7 3.31.74 3.11-1.15-.03-.31-.12-.6-.25-.9-.42-.35-.45-.43-.09-.24.28-.11.88.12 1.26 0a2.12 2.12 0 0 0 1.41-2.15"/><path id="xbaqW" d="M247.4 218.76a5.3 5.3 0 0 0-1.48-2.03c-.15-.2.41.97.23 1.2l-.14.2c-.1.08-.19.2-.22.35-.62 1.1-1.98 2.54-2.01 3.77-.02.96 1.12 2.39 2.17 2.88 1.09.51 1.88-.59 2.07-1.52.34-1.65-.48-3.24-.61-4.85"/><path id="xbaqX" d="M246.38 228.74c.04-.37 0-.63-.3-.57-.06-.02.05.15 0 .21v.01a.5.5 0 0 0-.27.4c0 .02-.66-.2-.67-.19-.4.83.07 2.37 1.05 2.7.47.16.92-.2 1.06-.65.2-.7-.94-1.25-.87-1.91"/><path id="xbaqY" d="M205.55 280.07l-.06-.06.02-.14c.04-.23-.24-.36-.39-.16l-.05.1c-.43-.02-.86.4-.56.88l.08.1c-.26.74-1.21 0-1.1.83.1.77 1.32 2.3 2.21 2.23.88-.07 1.54-.13 1.51-.98-.04-1.2-1.05-1.89-1.66-2.8"/><path id="xbaqZ" d="M251.38 264.11c-.07-1.6-.53-1.38-1.09-2.9l-.03-.33a1 1 0 0 0-.28-.58l-.29-.98c-.04-.17-.3-.21-.38-.05-.12.23-.2.46-.29.7-.42.05-.79.35-.73.91a12.8 12.8 0 0 1-.07 4.16c-.23 1.03-.6 1.96-.41 3.03.17 1.06 1 2.42 2.24 1.92 1.52-.62 1.4-4.52 1.33-5.88"/><path id="xbaqaa" d="M225.25 209.76c8.1 0 14.9 2.8 19.7 6.9l-6.4 10.7c-3.6-3.4-7.4-5.3-13.3-5.3-10.1 0-16.7 8.7-16.7 19.3 0 .5 0 1 .1 1.4 3.1-4.5 9.8-8.5 17.1-8.5 12 0 22.7 7.3 22.7 21.49 0 13-10.3 22.9-25.5 22.9-20.3 0-28.79-15.6-28.79-34.4 0-20.2 11.4-34.49 31.1-34.49m-3.6 36.3c-5 0-9.8 2.5-13 6.4.6 6.4 4.2 13.8 13.6 13.8 7.7 0 11.8-5.2 11.8-9.9 0-7.2-5.9-10.3-12.4-10.3"/><path id="xbaqab" d="M242.73 239.75c-2.7-2.32-5.78-4.62-9.3-5.47-2.54-.61-5.16-.43-7.77-.22-1.93-.19-3.75-.11-5.74.3-.3.06-.5.2-.67.38a21.89 21.89 0 0 0-10.42 5.93c.03-2.63 1.66-5.75 2.5-7.8 1.9-4.7 4.48-7.44 9.57-8.7 3.17-.77 6.81-.92 10-.12 2.82.71 4.78 2.63 7.4 3.6.43.15.97-.03 1.28-.34 2.55-2.58 4.46-6.44 6.48-9.42.5-.74.1-1.45-.52-1.76a1.16 1.16 0 0 0-.5-.9c-11.66-8.47-27.9-9.55-39.69-.63-5.06 3.83-8.35 9.27-10.07 15.33-1.03 3.63-1.04 7.04-1.47 10.74-.47 4.08-1.77 7.12-.6 11.25 1.16 4.15 2.88 8.22 4.35 12.28 1.1 3.06 2.18 5.92 4.73 8.05 4.8 4.03 11.88 6.12 17.98 6.86 7.9.97 13.43.36 20.12-4.17 5.47-3.71 8.16-9.17 9.1-15.71.93-6.5-1.72-15.16-6.76-19.48m1.7 25.65c-3.41 8.55-13.3 11.54-21.66 10.69-7.5-.76-17.56-3.04-21.08-10.42-1.64-3.45-2.69-7.33-3.95-10.93-.63-1.77-1.34-3.48-1.57-5.35-.3-2.45.44-4.44.79-6.84 1.06-7.43.77-14.18 5.44-20.6 9.86-13.57 28-13.49 41.13-4.98-1.34 2.19-3.73 7.24-6 7.18-1.28-.03-4.43-2.27-5.93-2.64a25.16 25.16 0 0 0-14.66 1.1c-4.23 1.64-6.17 4.74-7.85 8.78-1.63 3.94-4.16 8.58-2.1 12.72.34.7 1.55.9 2.07.27a19.5 19.5 0 0 1 11.94-7.25c1.7.03 3.45-.13 5.2-.25l.43.02c.2.02.4-.01.55-.08 1.86-.1 3.7-.1 5.46.32 3.2.78 6.76 3.28 9 5.6 5.72 5.94 5.65 15.53 2.8 22.66"/><path id="xbaqac" d="M219.35 244.16c-1-.1-1.37.77-1.16 1.52-5.74.4-11.05 4.18-10.26 10.5.82 6.6 8.34 11.47 14.59 11.68 6.92.24 13.6-4.97 13.18-12.29-.5-8.49-9.42-10.69-16.35-11.41m.49 20.72c-4.23-1.12-9.87-5.2-9.63-10.18.3-6 5.84-6.05 9.87-7.88 5.57.77 13.12 2.35 13.07 9.51-.04 6.8-7.52 10.08-13.31 8.55"/><path id="xbaqad" d="M223.22 278.24c-.65-.32-1.23-.23-1.89-.07-.68.17-.84-.07-1.48-.17-.1-.02-.5-.1-.52-.03-.1-.11-.2-.25-.29-.33a4.08 4.08 0 0 0-1.84-.76.94.94 0 0 0-.77.16 2.64 2.64 0 0 0-.9-.02c-.36.06-.33.51-.1.68.25.17.46.35.65.54.06.14.16.27.31.36.98 1.2 1.1 2.66 1.3 4.39.14 1.13.61 2.3 1.9 2.47 1.2.15 1.99-.93 2.03-2.03a7.77 7.77 0 0 0-.23-2.05l.22.17c2.2 1.33 3.88-2.18 1.6-3.31"/><path id="xbaqae" d="M200.18 267.22c-.1-.4-.36-.61-.65-.68-.17-2.33-.74-4.61-2.35-6.3-.18-.19-.6-.06-.56.23.59 4.35.9 8.12.67 12.53-.1 1.95-.94 6.37 1.5 7.5 5.74 2.69 1.79-11.7 1.39-13.28"/><path id="xbaqaf" d="M226.8 224.43c-.3-2.85-5.44-1.2-7.13-.86-.38.08-.58.31-.65.58-2.07.54-4 1.8-5.35 3.4-.2.24.07.68.37.47 1-.72 1.96-1.34 3.13-1.78.8-.3 2.7-1.07 3.5-.67 1 .52.45 1.03.5 2.14.03.4.02.8.2 1.16.9 1.88 3.31.74 3.11-1.15-.03-.31-.12-.6-.25-.9-.42-.35-.45-.43-.09-.24.28-.11.88.12 1.26 0a2.12 2.12 0 0 0 1.4-2.15"/><path id="xbaqag" d="M246.53 217.24a.83.83 0 0 0-.6-.74c-.14-.21-.47-.3-.65-.08l-.14.2a.62.62 0 0 0-.23.35 7.88 7.88 0 0 0-.81 3.67c-.02.95-.07 2.48.98 2.98 1.09.51 1.87-.59 2.07-1.52.34-1.65-.49-3.24-.62-4.86"/><path id="xbaqah" d="M246.38 227.99c.04-.37-.28-.52-.57-.47-.06-.01-.13 0-.18.06a.5.5 0 0 0-.27.41v.04c-.4.83-.6 2.14.38 2.46.48.16.93-.2 1.06-.65.2-.7-.5-1.19-.42-1.85"/><path id="xbaqai" d="M204.68 278.56l-.06-.06.02-.14c.04-.23-.24-.36-.39-.16l-.05.1c-.43-.02-.86.4-.56.87l.08.11a4.94 4.94 0 0 0-.23 2.34c.1.77.52 1.5 1.4 1.44.89-.07 1.48-.85 1.45-1.7-.04-1.2-1.05-1.89-1.66-2.8"/><path id="xbaqaj" d="M251.38 264.1c-.07-1.6-.7-3.12-1.26-4.65l-.03-.32a1 1 0 0 0-.28-.58l-.29-.98c-.04-.17-.3-.21-.38-.05-.12.23-.2.46-.29.7-.42.05-.79.35-.73.91.14 1.42.24 2.76-.07 4.16-.23 1.03-.6 1.96-.41 3.03.18 1.06 1 2.42 2.24 1.92 1.52-.62 1.56-2.77 1.5-4.13"/><path id="xbaqak" d="M224.32 225.6a.38.38 0 0 1-.01-.75l.38-.02a.53.53 0 0 0-.13-.25.37.37 0 1 1 .55-.51c.3.32.42.8.3 1.23l-.08.27-1 .02zm.72-.4h.01z"/><path id="xbaqal" d="M222.43 228.84a.37.37 0 0 1-.32-.19l-.23-.38a.38.38 0 0 1 .13-.52c.18-.1.41-.05.52.13l.23.4a.37.37 0 0 1-.33.56"/><path id="xbaqam" d="M197.96 231.23c-.03 0-.07 0-.1-.02a.37.37 0 0 1-.25-.47 32.84 32.84 0 0 1 11.41-16.42c.17-.13.4-.1.53.07.12.16.1.4-.07.52a32.1 32.1 0 0 0-11.16 16.05.37.37 0 0 1-.36.27"/><path id="xbaqan" d="M196.99 236.19a.37.37 0 0 1-.37-.47l.41-1.73c.05-.2.25-.33.45-.28.2.05.33.25.28.45l-.41 1.74a.38.38 0 0 1-.36.29"/><path id="xbaqao" d="M235.73 254.14a.38.38 0 0 1-.37-.34c-.13-1.17-.76-2.35-1.92-3.6a14.16 14.16 0 0 0-6.83-4.02.37.37 0 1 1 .19-.73c2.72.69 5.27 2.2 7.19 4.25 1.27 1.36 1.96 2.68 2.11 4.02.02.2-.12.4-.33.42h-.04"/><path id="xbaqap" d="M249.6 265.77a.62.62 0 0 1-.35-.12.38.38 0 0 1 .35-.65.8.8 0 0 0 .04-.31l-.04-2.06c0-.2.17-.38.37-.38.18 0 .38.16.38.37l.03 2.02c0 .22.01.5-.14.76a.77.77 0 0 1-.63.37"/><path id="xbaqaq" d="M219.53 284.23a.87.87 0 0 1-.35-.08 1.09 1.09 0 0 1-.58-.63 2.1 2.1 0 0 1 .04-1.16c.05-.2.25-.33.45-.28.2.05.33.25.28.46-.06.25-.13.53-.06.74.02.08.1.15.17.18.18-.08.44 0 .53.2.09.18.04.4-.15.5a.78.78 0 0 1-.33.07"/><path id="xbaqar" d="M222.32 281.21c-.16 0-.3-.1-.36-.24a.37.37 0 0 1 .22-.49c.2-.07.35-.26.38-.46.03-.2.22-.35.43-.31.2.03.34.22.31.42-.07.48-.4.89-.85 1.06a.38.38 0 0 1-.13.02"/><path id="xbaqas" d="M204.52 282.36a.37.37 0 0 1-.18-.7c.2-.11.32-.38.26-.6-.06-.2.06-.41.26-.47.2-.05.4.07.46.27.15.56-.12 1.18-.62 1.46a.38.38 0 0 1-.18.04"/><path id="xbaqat" d="M199.84 279.62a.96.96 0 0 1-.76-.38c-.24-.31-.29-.7-.31-.97a41.7 41.7 0 0 1-.24-5.94c0-.2.2-.36.39-.36.2 0 .37.18.36.39-.06 1.94.02 3.9.23 5.83.03.24.06.46.16.59.06.07.17.1.2.09.15-.14.39-.11.52.04.14.16.11.4-.04.53a.78.78 0 0 1-.5.18"/><path id="xbaqau" d="M245.6 222.08a.58.58 0 0 1-.24-.05.37.37 0 0 1 .13-.72.43.43 0 0 0 .03-.13l-.02-1.45c0-.2.17-.38.37-.38.22.03.38.16.38.37l.02 1.45c0 .28-.11.65-.37.82-.1.06-.2.09-.3.09"/><path id="xbaqav" d="M238.38 226.1c-.48 0-.91-.23-1.28-.41a19.32 19.32 0 0 0-4.26-1.62.38.38 0 0 1 .18-.73c1.53.38 3.02.95 4.42 1.67.37.2.75.4 1.07.33.37-.07.65-.48.87-.86.4-.7.74-1.41 1.03-2.15.07-.2.29-.29.48-.21.2.07.3.29.22.48-.3.77-.67 1.53-1.08 2.25-.3.53-.7 1.1-1.37 1.23l-.28.02"/><path id="xbaqaw" d="M245.75 230.21a.38.38 0 0 1-.26-.1.84.84 0 0 1-.19-.92c.08-.19.3-.28.5-.2.18.08.27.3.2.49a.1.1 0 0 0 .01.09.38.38 0 0 1-.26.64"/><path id="xbaqax" d="M233.1 276.13a.37.37 0 0 1-.03-.75c2.52-.14 4.97-1.1 6.9-2.71.16-.14.4-.11.53.05.14.16.11.4-.05.52a12.65 12.65 0 0 1-7.33 2.89h-.03"/><path id="xbaqay" d="M259.62 270.18a.88.88 0 0 0-.69-.32h-.03c-.03-.03-.05-.06-.1-.09a1.3 1.3 0 0 0-.6-.19c-.22-.01-.4.1-.6.1-.12.01-.22.05-.32.09-1.55-.19-3.53 1.57-4.12 2.76a7.22 7.22 0 0 0-.56 4.45c.3 1.47 1.32 2.34 2.67 2.93 1.95.86 3.86.78 5.25-.3a3.89 3.89 0 0 0 2.6-3.75c-.04-2.26-1.36-4.8-3.5-5.68m-.02 5.94c-.1.4-.26.76-.47 1.05l-.36.12a1.2 1.2 0 0 0-.66.5c-.07 0-.11.04-.18.04a3.98 3.98 0 0 1-2.23-.63c-1.21-.81-.78-3.1-.07-4.17a4.03 4.03 0 0 1 1.67-1.27c.08.3.29.6.66.78a3.05 3.05 0 0 1 1.64 3.58"/><path id="xbaqaz" d="M254.77 283.14c-.14-.5-.26-.9-.32-1.42-.04-.34-.51-.68-.78-.33-.24.3-.3.57-.26.93-.53 1.04-1.1 2.6.23 2.71.52.04 1.03-.35 1.17-.84.1-.34.05-.71-.04-1.05"/><path id="xbaqaA" d="M258.13 279.6a8.9 8.9 0 0 1-2.52-.41 2.1 2.1 0 0 1-1.22-1.31.37.37 0 1 1 .73-.2c.09.33.39.64.8.82.4.18.88.24 1.36.3.58.05 1.14.1 1.65-.05.51-.15.91-.5 1.02-.9.06-.2.26-.32.46-.25.2.05.32.26.26.46-.18.65-.77 1.2-1.54 1.41-.33.1-.67.13-1 .13"/><path id="xbaqaB" d="M259.14 272.01a.4.4 0 0 1-.13-.02l-.76-.27a.37.37 0 0 1 .25-.7l.76.26a.38.38 0 0 1-.12.73"/><path id="xbaqaC" d="M253.84 284.42a.37.37 0 0 1-.33-.18.37.37 0 0 1 .03-.42.37.37 0 0 1 .2-.36c.2-.1.42-.02.5.17.14.26.04.6-.22.74a.38.38 0 0 1-.18.05zm-.26-.46z"/><path id="xbaqaD" d="M296.5 285.64c-.06-.44-.16-.88-.26-1.3-.1-.48-.12-.9-.57-1.14-.2-.1-.4-.04-.53.14-.22.29-.22.62-.14.97-.29.65-.6 1.35-.58 2.03.02.63.56 1.12 1.2.96.76-.2.96-.98.87-1.66"/><path id="xbaqaE" d="M294.77 210.5c8.1 0 14.9 2.8 19.7 6.9l-6.4 10.7c-3.6-3.4-7.4-5.3-13.3-5.3-10.1 0-16.7 8.7-16.7 19.3 0 .5 0 1 .1 1.39 3.1-4.5 9.8-8.5 17.1-8.5 12 0 22.7 7.3 22.7 21.5 0 13-10.3 22.9-25.5 22.9-20.3 0-28.79-15.6-28.79-34.4 0-20.2 11.4-34.49 31.1-34.49m-3.6 36.29c-5 0-9.8 2.5-13 6.4.6 6.4 4.2 13.8 13.6 13.8 7.7 0 11.79-5.2 11.79-9.9 0-7.2-5.9-10.3-12.4-10.3"/><path id="xbaqaF" d="M316.22 244.74c-5.17-7.67-11.5-10.98-20.52-10.9-5.95.04-12.14 1.07-16.09 5.1.81-6.01 3.52-11.83 9.67-14.04 3.75-1.35 8.42-.96 12.2.3 2.5.84 3.7 3.25 6.13 3.83.46.1.99.01 1.32-.35 1.74-1.88 6.03-7.44 6.23-10.08.19-2.54-1.99-3.2-3.99-4.3-9.92-7.89-28.34-7.26-37.11 1.01-2.84 2.67-5.95 6.06-7.65 9.59-1.94 4.02-2.32 8.72-3.08 13.06-1.34 7.67-2.19 16.59.9 24.04 3.25 7.85 10.47 13.4 17.8 17.11 6.85 3.5 15.9 2.57 22.87-.3 12.29-5.09 19.06-22.59 11.32-34.07m-13.75 31.95a34.91 34.91 0 0 1-12 1.7c-4.66-.13-8.7-2.57-12.49-5.08-4-2.66-6.83-5.86-9.33-9.94-2.15-3.5-2.56-7.05-3.15-11.07-1.08-7.42.48-16.7 2.79-23.87 2.87-8.94 12.2-15.96 21.39-16.57 8.15-.53 15.8 1.43 22.26 6.3-.02.36-.22.86-.57 1.73-.44 1.1-1.35 2.3-2.02 3.3-1.65 2.43-1.02 2.46-3.04 1.35-.59-.32-1.11-.79-1.71-1.1-3.91-2.06-10.54-2.8-14.78-1.69-9.96 2.62-13.55 13.2-13.29 22.47.05 1.63 2.23 1.84 2.77.37 3.22-8.87 18.88-10.22 26.15-6.16 7.36 4.1 11.87 11.79 10.92 20.21-.92 8.16-6.03 15.34-13.9 18.05"/><path id="xbaqaG" d="M290 225.6c.69-.9-.85-2.1-1.58-1.22-.19.23-.35.48-.47.73a1.37 1.37 0 0 0-.71-.27c-1.23-.13-2.3 1.57-2.7 2.53-.08.17.04.41.26.34.57-.17 1.48-.51 1.86-1a.5.5 0 0 0 .14-.04c0 .06.02.11.01.16.01.36-.03.72-.04 1.08-.06 1.39-.28 2.92 1.51 3.11 1.28.14 2.57-.61 2.66-1.98.09-1.42-1.98-2.05-.94-3.44"/><path id="xbaqaH" d="M285.19 253.45c-.31-.73-.87-1.4-1.41-1.97-.3-.32-.95-.83-.8-1.37.1-.37.75-.8 1-1.14.12-.15 0-.4-.18-.45a2.22 2.22 0 0 0-2.55 1.31c-.29-.12-.6-.2-.98-.17-1.8.12-2.96 2.44-3.65 3.82-.45.9.76 2.02 1.48 1.14.56-.68 1.1-2.09 1.8-2.56.66-.46.84-.28.99.73.05.37.04.75.09 1.12.2 1.4 1.14 2.87 2.76 2.67 1.52-.2 1.98-1.87 1.45-3.13"/><path id="xbaqaI" d="M287.42 251.21c-.1-.15-.29-.3-.5-.28-.45.05-.55.27-.52.55-.4.68-.08 1.76.2 2.39.15.31.66.37.88.11.69-.8.5-1.93-.06-2.77"/><path id="xbaqb" d="M299.92 276.4h7.6v11.74h-7.6z"/><path id="xbaqaK" d="M306.54 276.55c-1.34-.56-3.42.6-4.54 1.28-.35.22-.47.6-.42.97a15.77 15.77 0 0 0-1.59 5.53c-.16 1.28-.13 2.66 1.06 3.45a2.1 2.1 0 0 0 2.8-.41c.98-1.13.75-2.66.54-4-.05-.31-.06-1.62-.15-2.45.22.11.51.2.71.23 1.16.17 2.14-.59 2.45-1.69.27-.96.18-2.47-.86-2.91"/><path id="xbaqaL" d="M264.28 231.92a35.58 35.58 0 0 0-2.02 4.3.87.87 0 0 0-.35.6 17.6 17.6 0 0 1-.35 1.96c-.57 2.54-1.53 4.98-1.95 7.56-.21 1.35-.57 2.8.42 3.86.2.22.5.27.78.2 3.83-.87 3.17-10.15 3.04-13.9a30.71 30.71 0 0 1 1.75-3.8c.46-.87-.86-1.65-1.32-.78"/><path id="xbaqaM" d="M259.13 258.38a.3.3 0 0 0-.22.03c-.1-.16-.38-.15-.43.06a9.02 9.02 0 0 0-.14 2.42c.03.46.38.92.9.73.56-.2.58-.99.57-1.48-.01-.57-.01-1.58-.68-1.76"/><path id="xbaqaN" d="M305.03 226.08c-.58-.8-1.91-.04-1.34.78l.11.19c-.12.96.16 2.05.29 2.97.1.81.46 1.83 1.52 1.44 1.98-.72.16-4.34-.58-5.38"/><path id="xbaqaO" d="M272.48 271.57a.39.39 0 0 0-.2-.15.88.88 0 0 0-.33-.5l-1.45-1.1a.6.6 0 0 0-.53-.1.8.8 0 0 0-1.27.65c-.1 1.27-.5 4.87 1.22 5.44 1 .33 1.41-.36 1.65-1.21.27 1.13.53 2.49.59 2.72.26 1.01.46 1.91 1.23 2.66.44.43 1.3.28 1.44-.38.69-3.22-.54-5.48-2.35-8.03"/><path id="xbaqaP" d="M293.36 209.76c8.1 0 14.9 2.8 19.7 6.9l-6.4 10.7c-3.6-3.4-7.4-5.3-13.3-5.3-10.1 0-16.7 8.7-16.7 19.3 0 .5 0 1 .1 1.4 3.1-4.5 9.8-8.5 17.1-8.5 12 0 22.7 7.3 22.7 21.49 0 13-10.3 22.9-25.5 22.9-20.3 0-28.79-15.6-28.79-34.4 0-20.2 11.4-34.49 31.1-34.49m-3.6 36.3c-5 0-9.8 2.5-13 6.4.6 6.4 4.2 13.8 13.6 13.8 7.7 0 11.79-5.2 11.79-9.9 0-7.2-5.9-10.3-12.4-10.3"/><path id="xbaqc" d="M260.71 208h57.4v72.64h-57.4z"/><path id="xbaqaR" d="M314.8 244.01c-5.16-7.67-11.49-10.98-20.51-10.9-5.95.04-12.14 1.07-16.09 5.1.81-6.01 3.52-11.83 9.67-14.04 3.75-1.35 8.42-.96 12.2.3 2.5.84 3.7 3.26 6.13 3.83.46.11.98.01 1.32-.35 1.74-1.88 6.03-7.44 6.23-10.08.19-2.54-1.99-3.2-3.99-4.3-9.92-7.89-28.34-7.26-37.12 1.01-2.83 2.67-5.94 6.06-7.64 9.59-1.94 4.02-2.32 8.72-3.08 13.07-1.34 7.66-2.19 16.58.9 24.03 3.25 7.85 10.47 13.4 17.8 17.11 6.85 3.5 15.9 2.58 22.87-.3 12.29-5.08 19.06-22.59 11.32-34.07m-13.76 31.95a34.88 34.88 0 0 1-12 1.7c-4.66-.13-8.7-2.57-12.48-5.08-4-2.66-6.83-5.86-9.33-9.94-2.15-3.5-2.56-7.05-3.15-11.07-1.08-7.42.48-16.7 2.79-23.87 2.87-8.94 12.2-15.96 21.38-16.57 8.15-.53 15.8 1.43 22.26 6.3a6.4 6.4 0 0 1-.56 1.73c-.45 1.1-1.36 2.3-2.03 3.3-1.65 2.43-1.02 2.46-3.04 1.35-.59-.32-1.1-.79-1.71-1.1-3.9-2.06-10.53-2.8-14.77-1.69-9.97 2.62-13.55 13.2-13.29 22.47.05 1.63 2.23 1.84 2.76.37 3.22-8.87 18.88-10.22 26.15-6.16 7.36 4.1 11.87 11.79 10.92 20.22-.92 8.15-6.03 15.33-13.9 18.04"/><path id="xbaqaS" d="M288.6 224.86c.68-.9-.86-2.1-1.6-1.22-.18.23-.34.48-.46.74a1.36 1.36 0 0 0-.71-.28c-1.23-.13-2.3 1.57-2.7 2.53-.08.17.04.41.26.34.57-.17 1.48-.51 1.86-1 .06 0 .1-.02.14-.04 0 .06.02.11.01.16.01.36-.03.72-.04 1.08-.06 1.39-.28 2.92 1.51 3.11 1.28.14 2.57-.61 2.66-1.98.09-1.42-1.98-2.05-.94-3.44"/><path id="xbaqaT" d="M283.78 252.72c-.3-.73-.87-1.4-1.41-1.97-.3-.32-.95-.83-.8-1.37.1-.37.75-.8 1-1.14.12-.15 0-.4-.18-.45a2.22 2.22 0 0 0-2.55 1.31c-.29-.12-.6-.2-.98-.17-1.79.12-2.96 2.44-3.65 3.82-.45.9.76 2.02 1.48 1.14.56-.68 1.1-2.09 1.8-2.56.65-.46.84-.28.99.73.05.37.04.75.1 1.12.18 1.4 1.13 2.87 2.75 2.66 1.52-.19 1.98-1.86 1.45-3.12"/><path id="xbaqaU" d="M286.86 250.68c-.1-.15-.29-.3-.49-.28-.46.05-.56.27-.53.55-.4.68-.08 1.76.2 2.39.15.31.66.37.88.11.68-.8.5-1.93-.06-2.77"/><path id="xbaqaV" d="M305.13 275.82c-1.34-.57-3.42.6-4.54 1.28-.35.22-.47.6-.42.97a15.78 15.78 0 0 0-1.59 5.53c-.16 1.28-.13 2.66 1.06 3.45a2.1 2.1 0 0 0 2.8-.41c.98-1.13.75-2.66.54-4-.05-.32-.07-1.62-.15-2.45.22.11.51.2.71.22 1.16.18 2.14-.58 2.45-1.68.27-.96.18-2.47-.86-2.91"/><path id="xbaqaW" d="M262.87 231.2a35.43 35.43 0 0 0-2.02 4.28.87.87 0 0 0-.35.62 18.24 18.24 0 0 1-.35 1.95c-.57 2.54-1.53 4.97-1.95 7.56-.21 1.35-.57 2.8.42 3.86.2.22.5.27.78.2 3.83-.87 3.17-10.15 3.04-13.9a30.7 30.7 0 0 1 1.75-3.8c.46-.87-.86-1.65-1.32-.78"/><path id="xbaqaX" d="M258.72 257.95a.3.3 0 0 0-.22.03c-.1-.16-.38-.15-.43.06a9.01 9.01 0 0 0-.14 2.42c.03.46.38.92.9.73.56-.2.58-.99.57-1.48-.01-.57-.01-1.58-.68-1.76"/><path id="xbaqaY" d="M303.62 225.34c-.57-.8-1.91-.04-1.34.78l.12.19c-.13.96.16 2.06.28 2.97.1.81.46 1.83 1.52 1.44 1.98-.72.16-4.34-.58-5.38"/><path id="xbaqaZ" d="M271.07 270.84a.38.38 0 0 0-.2-.15.88.88 0 0 0-.33-.5l-1.45-1.1a.59.59 0 0 0-.53-.1.8.8 0 0 0-1.27.65c-.1 1.27-.5 4.87 1.22 5.44 1 .33 1.41-.36 1.65-1.21.26 1.13.53 2.49.59 2.72.26 1.01.46 1.91 1.23 2.66.44.43 1.3.28 1.44-.38.69-3.22-.54-5.48-2.35-8.03"/><path id="xbaqba" d="M259.8 247.26c-.07 0-.14-.01-.2-.03a.81.81 0 0 1-.52-.4c-.26-.45-.1-1.07-.04-1.25.33-1.08.74-2.14 1.23-3.15a.37.37 0 1 1 .68.33c-.47.97-.88 2-1.2 3.04-.07.26-.08.55-.01.67.1.05.25-.05.37-.24.15-.24.25-.52.29-.81.03-.2.2-.35.42-.33.2.03.35.22.32.43-.05.39-.19.77-.4 1.11-.25.4-.6.63-.95.63"/><path id="xbaqbb" d="M262.72 234.9l-.69-.3.35-.8.69.3z"/><path id="xbaqbc" d="M266.17 263.44c-.1 0-.2-.04-.27-.12a11.54 11.54 0 0 1-3.2-9.3c.03-.2.22-.34.42-.33.2.02.35.21.33.42-.36 3.16.75 6.41 3 8.69a.38.38 0 0 1-.28.64"/><path id="xbaqbd" d="M267.48 265.61a.37.37 0 0 1-.37-.3c-.2.03-.35-.09-.38-.3-.02-.2.16-.36.37-.39a.7.7 0 0 1 .75.54.37.37 0 0 1-.37.45"/><path id="xbaqbe" d="M258.77 260.49a.38.38 0 0 1-.37-.38v-.35a.38.38 0 0 1 .75 0v.35c0 .21-.17.38-.38.38"/><path id="xbaqbf" d="M268.61 274.12a.7.7 0 0 1-.47-.17.38.38 0 0 1 .5-.57c.01 0 .12-.08.13-.16.04-.2-.09-.45-.24-.71a.38.38 0 0 1 .14-.51c.18-.1.41-.04.52.14.16.29.41.73.32 1.22a.98.98 0 0 1-.63.72.82.82 0 0 1-.27.04"/><path id="xbaqbg" d="M272.19 278.2a.37.37 0 0 1-.32-.56c.29-.53.38-1.15.23-1.73-.05-.2.07-.4.28-.45.2-.04.4.07.45.27.2.77.08 1.6-.32 2.27a.37.37 0 0 1-.32.2"/><path id="xbaqbh" d="M300.7 286.33l-.39-.03a.76.76 0 0 1-.45-.2c-.18-.18-.2-.43-.2-.54-.01-.48.02-.96.1-1.43.02-.2.22-.35.42-.31.2.03.34.22.31.42-.06.43-.09.86-.08 1.3.28.06.57.04.84-.03.2-.05.4.07.46.27.05.2-.07.4-.27.46-.24.06-.49.09-.73.09"/><path id="xbaqbi" d="M295.4 287h-.08a.53.53 0 0 1-.36-.3.53.53 0 0 1 0-.46.37.37 0 1 1 .7.13.38.38 0 0 1-.25.64"/><path id="xbaqbj" d="M304.59 279.56a.37.37 0 0 1-.25-.65l.23-.22a.38.38 0 0 1 .53.02c.14.15.13.39-.02.53l-.24.22a.37.37 0 0 1-.25.1"/><path id="xbaqbk" d="M295.51 267.66a.37.37 0 0 1-.35-.27c-.06-.2.05-.4.25-.46 2.77-.82 4.9-1.93 6.48-3.38 1.92-1.76 3.02-4.13 2.97-6.36 0-.2.16-.37.37-.38.2 0 .38.16.38.37.06 2.47-1.11 5-3.2 6.92-1.68 1.53-3.9 2.7-6.79 3.54a.36.36 0 0 1-.1.02"/><path id="xbaqbl" d="M304.82 254.56a.38.38 0 0 1-.37-.37v-1.17a.38.38 0 0 1 .75 0v1.17c0 .2-.17.37-.38.37"/><path id="xbaqbm" d="M302.48 237.36a.37.37 0 0 1-.23-.08c-1.46-1.14-3.43-1.41-5.17-1.52-3.03-.2-6.09-.02-9.08.53-.2.04-.4-.1-.43-.3-.04-.2.1-.4.3-.44 3.05-.56 6.16-.74 9.26-.54 1.85.12 3.97.41 5.58 1.68a.37.37 0 0 1-.23.67"/><path id="xbaqbn" d="M287.34 229.11a.99.99 0 0 1-.38-.07.38.38 0 0 1 .29-.7c.1.05.25.01.32-.07a.3.3 0 0 0 0-.33.38.38 0 0 1 .62-.43c.26.36.24.88-.04 1.23-.2.24-.5.37-.8.37"/><path id="xbaqbo" d="M287.04 225.48a.37.37 0 0 1-.17-.7l.15-.09c.19-.09.45-.03.54.15.1.19.06.4-.12.49l-.08.04-.16.07a.37.37 0 0 1-.16.04"/><path id="xbaqbp" d="M303.94 229.8l-.1-.01a.37.37 0 0 1-.26-.47l.27-.95c.06-.2.26-.31.46-.26.2.06.32.27.26.47l-.27.95a.37.37 0 0 1-.36.27"/><path id="xbaqbq" d="M310.72 220.06a.38.38 0 0 1-.35-.52l1.3-3.14c.06-.13.15-.33.1-.44-.03-.09-.2-.2-.3-.25-.84-.5-1.74-.9-2.67-1.19-.34-.1-.44-.34-.42-.53l.03-.3.33-.08c.17-.02.39.06.47.26.93.3 1.81.7 2.65 1.2.17.1.5.29.62.64.14.38-.02.75-.1.98l-1.31 3.13a.38.38 0 0 1-.35.24"/><path id="xbaqbr" d="M270.75 218.96a.37.37 0 0 1-.29-.61 29.3 29.3 0 0 1 9.2-7.38c.17-.1.4-.02.5.17.1.18.02.4-.17.5a28.52 28.52 0 0 0-8.95 7.19.37.37 0 0 1-.29.13"/><path id="xbaqbs" d="M284.6 279.09h-.06a6.84 6.84 0 0 1-2.7-1 .37.37 0 1 1 .4-.63c.73.46 1.56.76 2.4.88a.37.37 0 0 1-.05.75"/><path id="xbaqbt" d="M344.6 274.65l4.84 2.32c-1.89 3.27-5.2 6.46-10.98 6.46-6.42 0-11.66-3.66-13.4-9.37h-2v-3h1.5c-.04-.39-.08-.82-.08-1.21 0-.48.04-.91.08-1.34h-1.5v-2.96h2.05c1.73-5.67 6.97-9.29 13.35-9.29 5.78 0 9.13 3.15 10.98 6.42l-4.84 2.36a7 7 0 0 0-6.15-3.82 7.83 7.83 0 0 0-7.16 4.33h9.57v2.96h-10.6c-.03.43-.03.86-.03 1.34 0 .39 0 .82.04 1.22h10.59v2.99h-9.61a7.8 7.8 0 0 0 7.2 4.4 6.94 6.94 0 0 0 6.15-3.81"/><path id="xbaqbu" d="M349.36 276.16c-1.4-.89-3.75-2.6-5.42-1.61-.83.5-1.37 1.63-2.2 2.23-.16.11-.32.2-.49.3-1.85.4-3.69.6-5.6.08-1.81-.5-2.53-2.17-3.96-3.04 1.53.04 3.06-.2 4.6-.15 1.27.04 2.63.48 3.88.26.19-.03.36-.22.4-.4.34-1.42.4-2.77-1.12-2.98-2.96-.4-6.43-.43-9.36.17.17-1.4.12-1.66 1.57-1.93.86-.15 1.9-.01 2.77-.03l5.94-.11c.2 0 .42-.15.47-.35.2-1.02.2-1.91-.02-2.93-.04-.21-.26-.35-.47-.36-2.89-.1-5.79-.18-8.68-.19.13-.34.28-.65.45-.93.64-.54 1.6-1.13 1.77-1.23 1.08-.6 2.25-.9 3.41-1.28h.42c2.87.03 4.9.84 6.56 3.23.24.34.7.23.81-.1 1.6-.32 4.79-.66 4.21-2.7-.37-1.34-2.41-2.93-3.4-3.77a10.24 10.24 0 0 0-3.8-2.1 18.24 18.24 0 0 0-11.5.93 8.49 8.49 0 0 0-3.4 2.7c-1.2 1.7-1.32 5.32-4.11 5.22a.64.64 0 0 0-.61.47c-.3 1.08-.58 2.51.55 3.24.27.18.8.13.98.3.38.36.58.85.77 1.4l-2.16-.1c-.46-.02-.68.43-.62.82l.4 2.71c.06.38.5.53.82.47 1.7-.33 2.84 3.16 3.67 4.28.67.9 1.5 1.65 2.43 2.28 2.4 1.65 5.4 2.4 8.27 2.64 5.1.4 10.3-1.62 12.06-6.72.1-.27-.06-.58-.3-.72m-1.9 2.38c-1.13 2.02-3.86 3.18-6.01 3.57-4.64.84-11.21-.57-13.84-4.83-1.24-2-1.46-4.39-4.01-4.25l-.21-1.31 2.3.07c.38.02.76-.41.61-.8-.37-.94-.6-1.77-.78-2.77-.05-.27-.34-.45-.6-.45-.7-.01-.52.17-.8-.67-.4-1.23-.07-.31.77-1.01.46-.4.95-.68 1.33-1.2.8-1.05.98-2.39 1.6-3.54.98-1.84 2.84-2.96 4.8-3.54 3.27-.97 8.08-1.28 11.09.52.77.47 3.54 2.43 3.79 3.48.29 1.22-1.43 1.84-2.55 2.25-2.03-5.43-15.13-5.46-14.43 1.09-.45.16-.4.93.17.94l5.64.09c.73.01 1.71-.09 2.42.06.74-.2 1.18.09 1.32.9-.05.68-.35.97-.88.87-1.33.47-3.7.07-5.15.1-1.34.04-2.97-.11-4.28.2a.42.42 0 0 0-.29.3c-.21.8.02 1.67.2 2.46.03.16.17.19.28.14-.01.1.03.23.15.25 1.5.25 3 .27 4.53.32.66.03 4.6-.21 4.88.52.5 1.35-3.05.53-3.59.52a13.02 13.02 0 0 0-4.61.52.4.4 0 0 0-.27.47c-.22-.07-.44.22-.3.41 1.4 1.97 2.4 3.52 4.6 4.19-.16.3-.07.76.32.84 1.92.4 3.85.17 5.56-.66a3.45 3.45 0 0 0 1.77-1.1l.04-.08c1.18-1.03 1.69-2.68 3.92-1.2 1.07.72 1.22 1.06.5 2.33"/><path id="xbaqbv" d="M347.7 266.87c-.1-.28-.2-.59-.36-.84-.22-.35-.68-.1-.63.27l.01.03c-.28.68-.54 1.73.3 1.92.43.1.8-.28.82-.69.02-.24-.06-.47-.14-.69"/><path id="xbaqbw" d="M326.64 281.22c-.13-.57-.5-1.08-.7-1.61-.25-.62-.33-1.3-.67-1.87-.12-.2-.44-.25-.62-.11l-.1-.06a.2.2 0 0 0-.3.22c.15.62.42 1.15.41 1.8 0 .6-.23 1.18-.2 1.78 0 .72.4 1.55 1.25 1.45.75-.1 1.09-.93.93-1.6"/><path id="xbaqbx" d="M349.26 281.52v-.06c.03-.14-.1-.2-.21-.18-.31-.18-.76.15-.54.53l.12.21c-.19.4-.4.81-.39 1.21 0 .48.44.86.91.81.48-.04.78-.46.8-.91.02-.58-.38-1.13-.7-1.6"/><path id="xbaqby" d="M343.99 273.5l4.84 2.32c-1.89 3.27-5.2 6.46-10.98 6.46-6.42 0-11.66-3.66-13.4-9.37h-2v-3h1.5c-.04-.39-.08-.82-.08-1.22 0-.47.04-.9.08-1.34h-1.5v-2.95h2.05c1.73-5.67 6.97-9.29 13.35-9.29 5.78 0 9.13 3.15 10.98 6.42l-4.84 2.36a7 7 0 0 0-6.15-3.82 7.83 7.83 0 0 0-7.16 4.33h9.57v2.95h-10.6c-.03.44-.03.87-.03 1.34 0 .4 0 .83.04 1.22h10.59v3h-9.61a7.8 7.8 0 0 0 7.2 4.4 6.93 6.93 0 0 0 6.15-3.81"/><path id="xbaqbz" d="M348.75 275.02c-1.4-.89-3.75-2.6-5.42-1.6-.83.48-1.37 1.62-2.2 2.22-.16.11-.32.21-.49.3-1.85.4-3.69.6-5.6.08-1.81-.5-2.53-2.17-3.96-3.04 1.53.04 3.06-.2 4.6-.15 1.27.04 2.63.48 3.88.26.19-.03.36-.22.4-.4.34-1.42.4-2.77-1.12-2.98-2.96-.4-6.43-.43-9.36.17.17-1.4.12-1.66 1.57-1.92.86-.16 1.9-.02 2.77-.04l5.94-.11c.2 0 .42-.15.47-.35.2-1.02.2-1.91-.02-2.93-.04-.21-.26-.35-.47-.36-2.89-.1-5.79-.18-8.68-.19.13-.34.28-.65.45-.93.64-.54 1.6-1.13 1.77-1.23 1.08-.6 2.25-.9 3.41-1.28h.42c2.87.03 4.9.84 6.56 3.23.24.34.7.23.81-.1 1.6-.32 4.79-.66 4.21-2.7-.37-1.34-2.41-2.93-3.4-3.77a10.24 10.24 0 0 0-3.8-2.1 18.25 18.25 0 0 0-11.5.93 8.48 8.48 0 0 0-3.4 2.7c-1.2 1.7-1.32 5.32-4.11 5.22a.64.64 0 0 0-.61.47c-.3 1.08-.58 2.52.55 3.24.27.18.8.13.98.3.38.36.58.85.77 1.4l-2.16-.1c-.46-.02-.68.43-.62.82l.4 2.72c.06.37.5.52.82.46 1.7-.33 2.84 3.16 3.67 4.28.67.9 1.5 1.65 2.43 2.28 2.4 1.66 5.4 2.4 8.27 2.64 5.1.4 10.3-1.62 12.06-6.72.1-.27-.06-.58-.3-.72m-1.9 2.38c-1.13 2.02-3.86 3.18-6.01 3.57-4.64.84-11.21-.57-13.84-4.83-1.24-2-1.46-4.39-4.01-4.25l-.21-1.31 2.3.07c.38.02.76-.41.61-.8-.37-.94-.6-1.77-.78-2.77-.05-.27-.34-.45-.6-.45-.7-.01-.52.17-.8-.67-.4-1.23-.07-.31.77-1.01.46-.4.95-.68 1.33-1.2.8-1.05.98-2.39 1.6-3.54.98-1.84 2.84-2.95 4.79-3.54 3.28-.97 8.1-1.28 11.1.52.77.47 3.54 2.43 3.79 3.48.29 1.22-1.43 1.84-2.55 2.25-2.03-5.43-15.13-5.46-14.44 1.09-.44.16-.39.93.18.94l5.64.09c.73.01 1.71-.09 2.42.06.74-.2 1.18.09 1.32.9-.05.68-.35.97-.88.87-1.33.47-3.7.07-5.15.1-1.34.04-2.97-.11-4.28.2a.42.42 0 0 0-.29.3c-.21.8.02 1.67.2 2.46.03.16.17.19.28.14-.01.1.03.23.15.25 1.5.25 3 .27 4.53.32.66.03 4.6-.21 4.88.52.5 1.35-3.05.53-3.59.52a13.02 13.02 0 0 0-4.61.52.4.4 0 0 0-.27.47c-.22-.07-.44.22-.3.41 1.4 1.97 2.4 3.52 4.6 4.19-.16.3-.07.76.32.84 1.92.4 3.85.17 5.56-.66a3.44 3.44 0 0 0 1.77-1.1l.04-.07c1.18-1.04 1.69-2.69 3.92-1.2 1.07.7 1.22 1.05.5 2.32"/><path id="xbaqbA" d="M347.1 265.73c-.1-.28-.2-.59-.36-.84-.22-.35-.68-.1-.63.27l.01.03c-.28.68-.54 1.73.3 1.92.43.1.8-.28.82-.69.02-.24-.06-.47-.14-.69"/><path id="xbaqbB" d="M326.04 280.08c-.13-.57-.5-1.08-.7-1.61-.25-.62-.33-1.3-.67-1.87-.12-.2-.44-.25-.62-.1l-.1-.07a.2.2 0 0 0-.3.22c.15.62.42 1.15.41 1.8 0 .6-.23 1.18-.2 1.78 0 .72.4 1.55 1.25 1.45.75-.1 1.09-.93.93-1.6"/><path id="xbaqbC" d="M348.66 280.37v-.06c.02-.14-.1-.2-.21-.18-.31-.18-.76.15-.54.53l.12.21c-.19.4-.4.81-.39 1.21 0 .48.44.86.91.81.47-.04.78-.46.8-.91.02-.58-.38-1.13-.7-1.6"/><path id="xbaqbD" d="M345.99 262.22c-.16 0-.32 0-.47-.02a.37.37 0 0 1-.33-.42c.03-.2.2-.36.42-.33.43.05.87.02 1.28-.1.22-.07.33-.16.35-.22.02-.08-.09-.26-.13-.32a8.56 8.56 0 0 0-3.31-3.13.38.38 0 0 1 .35-.67 9.32 9.32 0 0 1 3.6 3.41c.1.16.3.5.22.87-.06.25-.25.59-.87.77-.36.1-.74.16-1.11.16"/><path id="xbaqbE" d="M338.16 265.65h-.03a37.23 37.23 0 0 0-5.59 0c-.2.02-.38-.15-.4-.36a.38.38 0 0 1 .35-.4c1.89-.14 3.8-.13 5.7.01a.38.38 0 0 1-.03.75"/><path id="xbaqbF" d="M324.4 272.89h-.04l-1.32-.18a.37.37 0 0 1-.33-.42c.03-.2.2-.35.43-.33l1.32.18c.2.03.35.21.32.42a.38.38 0 0 1-.37.33"/><path id="xbaqbG" d="M341.7 281.36a.37.37 0 0 1-.08-.74c1.12-.27 2.52-.59 3.4-1.5.22-.23.42-.5.61-.78l1.02-1.42c.13-.2.25-.38.24-.52a.37.37 0 0 1 .35-.4c.22-.04.38.13.4.34.03.43-.22.78-.38 1.01l-1.01 1.43c-.21.29-.43.6-.7.87-1.02 1.06-2.54 1.41-3.76 1.7a.36.36 0 0 1-.09 0"/><path id="xbaqbH" d="M324.9 281.16a.66.66 0 0 1-.57-.34.53.53 0 0 1 .08-.64.38.38 0 0 1 .58.05l.01-.03c.1-.18.33-.25.5-.16.2.1.26.33.17.5-.1.19-.27.52-.64.6a.57.57 0 0 1-.13.02"/><path id="xbaqbI" d="M346.32 266.49a.38.38 0 0 1-.28-.64.6.6 0 0 1 .78-.07c.17.12.2.36.09.52a.37.37 0 0 1-.42.14.38.38 0 0 1-.17.05zm.06-.1z"/><path id="xbaqbJ" d="M348.67 282.48c-.04 0-.08 0-.12-.02a.63.63 0 0 1-.4-.33.63.63 0 0 1-.02-.5c.07-.2.29-.3.48-.22.17.06.26.22.24.4.18.06.26.23.2.42-.05.16-.21.25-.38.25"/><path id="xbaqbK" d="M326.43 262.64h-.1a.37.37 0 0 1-.27-.47 6.17 6.17 0 0 1 2.03-3.14c.16-.13.4-.1.53.06s.1.4-.05.52a5.4 5.4 0 0 0-1.78 2.76.38.38 0 0 1-.36.27"/><clipPath id="xbaqn"><use xlink:href="#xbaqa"/></clipPath><clipPath id="xbaqaJ"><use xlink:href="#xbaqb"/></clipPath><clipPath id="xbaqaQ"><use xlink:href="#xbaqc"/></clipPath></defs><g><g transform="translate(-134 -208)"><g><use fill="#c12020" xlink:href="#xbaqd"/></g><g><use fill="#c12020" xlink:href="#xbaqe"/></g><g><use fill="#c12020" xlink:href="#xbaqf"/></g><g><use fill="#d53232" xlink:href="#xbaqg"/></g><g><use fill="#c12020" xlink:href="#xbaqh"/></g><g><use fill="#c12020" xlink:href="#xbaqi"/></g><g><use fill="#c12020" xlink:href="#xbaqj"/></g><g><use fill="#c12020" xlink:href="#xbaqk"/></g><g><use fill="#c12020" xlink:href="#xbaql"/></g><g><use fill="#c12020" xlink:href="#xbaqm"/></g><g><g/><g clip-path="url(#xbaqn)"><use fill="#c12020" xlink:href="#xbaqo"/></g></g><g><use fill="#c12020" xlink:href="#xbaqp"/></g><g><use fill="#c12020" xlink:href="#xbaqq"/></g><g><use fill="#c12020" xlink:href="#xbaqr"/></g><g><use fill="#d53232" xlink:href="#xbaqs"/></g><g><use fill="#d53232" xlink:href="#xbaqt"/></g><g><use fill="#d53232" xlink:href="#xbaqu"/></g><g><use fill="#d53232" xlink:href="#xbaqv"/></g><g><use fill="#d53232" xlink:href="#xbaqw"/></g><g><use fill="#d53232" xlink:href="#xbaqx"/></g><g><use fill="#d53232" xlink:href="#xbaqy"/></g><g><use fill="#d53232" xlink:href="#xbaqz"/></g><g><use fill="#d53232" xlink:href="#xbaqA"/></g><g><use fill="#d53232" xlink:href="#xbaqB"/></g><g><use fill="#f8fafb" xlink:href="#xbaqC"/></g><g><use fill="#f8fafb" xlink:href="#xbaqD"/></g><g><use fill="#f8fafb" xlink:href="#xbaqE"/></g><g><use fill="#f8fafb" xlink:href="#xbaqF"/></g><g><use fill="#f8fafb" xlink:href="#xbaqG"/></g><g><use fill="#f8fafb" xlink:href="#xbaqH"/></g><g><use fill="#f8fafb" xlink:href="#xbaqI"/></g><g><use fill="#f8fafb" xlink:href="#xbaqJ"/></g><g><use fill="#f8fafb" xlink:href="#xbaqK"/></g><g><use fill="#f8fafb" xlink:href="#xbaqL"/></g><g><use fill="#f8fafb" xlink:href="#xbaqM"/></g><g><use fill="#f8fafb" xlink:href="#xbaqN"/></g><g><use fill="#f8fafb" xlink:href="#xbaqO"/></g><g><use fill="#f8fafb" xlink:href="#xbaqP"/></g><g><use fill="#c12020" xlink:href="#xbaqQ"/></g><g><use fill="#c12020" xlink:href="#xbaqR"/></g><g><use fill="#c12020" xlink:href="#xbaqS"/></g><g><use fill="#c12020" xlink:href="#xbaqT"/></g><g><use fill="#c12020" xlink:href="#xbaqU"/></g><g><use fill="#c12020" xlink:href="#xbaqV"/></g><g><use fill="#c12020" xlink:href="#xbaqW"/></g><g><use fill="#c12020" xlink:href="#xbaqX"/></g><g><use fill="#c12020" xlink:href="#xbaqY"/></g><g><use fill="#c12020" xlink:href="#xbaqZ"/></g><g><use fill="#d53232" xlink:href="#xbaqaa"/></g><g><use fill="#d53232" xlink:href="#xbaqab"/></g><g><use fill="#d53232" xlink:href="#xbaqac"/></g><g><use fill="#d53232" xlink:href="#xbaqad"/></g><g><use fill="#d53232" xlink:href="#xbaqae"/></g><g><use fill="#d53232" xlink:href="#xbaqaf"/></g><g><use fill="#d53232" xlink:href="#xbaqag"/></g><g><use fill="#d53232" xlink:href="#xbaqah"/></g><g><use fill="#d53232" xlink:href="#xbaqai"/></g><g><use fill="#d53232" xlink:href="#xbaqaj"/></g><g><use fill="#f8fafb" xlink:href="#xbaqak"/></g><g><use fill="#f8fafb" xlink:href="#xbaqal"/></g><g><use fill="#f8fafb" xlink:href="#xbaqam"/></g><g><use fill="#f8fafb" xlink:href="#xbaqan"/></g><g><use fill="#f8fafb" xlink:href="#xbaqao"/></g><g><use fill="#f8fafb" xlink:href="#xbaqap"/></g><g><use fill="#f8fafb" xlink:href="#xbaqaq"/></g><g><use fill="#f8fafb" xlink:href="#xbaqar"/></g><g><use fill="#f8fafb" xlink:href="#xbaqas"/></g><g><use fill="#f8fafb" xlink:href="#xbaqat"/></g><g><use fill="#f8fafb" xlink:href="#xbaqau"/></g><g><use fill="#f8fafb" xlink:href="#xbaqav"/></g><g><use fill="#f8fafb" xlink:href="#xbaqaw"/></g><g><use fill="#f8fafb" xlink:href="#xbaqax"/></g><g><use fill="#d53232" xlink:href="#xbaqay"/></g><g><use fill="#d53232" xlink:href="#xbaqaz"/></g><g><use fill="#f8fafb" xlink:href="#xbaqaA"/></g><g><use fill="#f8fafb" xlink:href="#xbaqaB"/></g><g><use fill="#f8fafb" xlink:href="#xbaqaC"/></g><g><use fill="#c12020" xlink:href="#xbaqaD"/></g><g><use fill="#c12020" xlink:href="#xbaqaE"/></g><g><use fill="#c12020" xlink:href="#xbaqaF"/></g><g><use fill="#c12020" xlink:href="#xbaqaG"/></g><g><use fill="#c12020" xlink:href="#xbaqaH"/></g><g><use fill="#c12020" xlink:href="#xbaqaI"/></g><g><g/><g clip-path="url(#xbaqaJ)"><use fill="#c12020" xlink:href="#xbaqaK"/></g></g><g><use fill="#c12020" xlink:href="#xbaqaL"/></g><g><use fill="#c12020" xlink:href="#xbaqaM"/></g><g><use fill="#c12020" xlink:href="#xbaqaN"/></g><g><use fill="#c12020" xlink:href="#xbaqaO"/></g><g><use fill="#d53232" xlink:href="#xbaqaP"/></g><g><g/><g clip-path="url(#xbaqaQ)"><use fill="#d53232" xlink:href="#xbaqaR"/></g></g><g><use fill="#d53232" xlink:href="#xbaqaS"/></g><g><use fill="#d53232" xlink:href="#xbaqaT"/></g><g><use fill="#d53232" xlink:href="#xbaqaU"/></g><g><use fill="#d53232" xlink:href="#xbaqaV"/></g><g><use fill="#d53232" xlink:href="#xbaqaW"/></g><g><use fill="#d53232" xlink:href="#xbaqaX"/></g><g><use fill="#d53232" xlink:href="#xbaqaY"/></g><g><use fill="#d53232" xlink:href="#xbaqaZ"/></g><g><use fill="#f8fafb" xlink:href="#xbaqba"/></g><g><use fill="#f8fafb" xlink:href="#xbaqbb"/></g><g><use fill="#f8fafb" xlink:href="#xbaqbc"/></g><g><use fill="#f8fafb" xlink:href="#xbaqbd"/></g><g><use fill="#f8fafb" xlink:href="#xbaqbe"/></g><g><use fill="#f8fafb" xlink:href="#xbaqbf"/></g><g><use fill="#f8fafb" xlink:href="#xbaqbg"/></g><g><use fill="#f8fafb" xlink:href="#xbaqbh"/></g><g><use fill="#f8fafb" xlink:href="#xbaqbi"/></g><g><use fill="#f8fafb" xlink:href="#xbaqbj"/></g><g><use fill="#f8fafb" xlink:href="#xbaqbk"/></g><g><use fill="#f8fafb" xlink:href="#xbaqbl"/></g><g><use fill="#f8fafb" xlink:href="#xbaqbm"/></g><g><use fill="#f8fafb" xlink:href="#xbaqbn"/></g><g><use fill="#f8fafb" xlink:href="#xbaqbo"/></g><g><use fill="#f8fafb" xlink:href="#xbaqbp"/></g><g><use fill="#f8fafb" xlink:href="#xbaqbq"/></g><g><use fill="#f8fafb" xlink:href="#xbaqbr"/></g><g><use fill="#f8fafb" xlink:href="#xbaqbs"/></g><g><use fill="#c12020" xlink:href="#xbaqbt"/></g><g><use fill="#c12020" xlink:href="#xbaqbu"/></g><g><use fill="#c12020" xlink:href="#xbaqbv"/></g><g><use fill="#c12020" xlink:href="#xbaqbw"/></g><g><use fill="#c12020" xlink:href="#xbaqbx"/></g><g><use fill="#d53232" xlink:href="#xbaqby"/></g><g><use fill="#d53232" xlink:href="#xbaqbz"/></g><g><use fill="#d53232" xlink:href="#xbaqbA"/></g><g><use fill="#d53232" xlink:href="#xbaqbB"/></g><g><use fill="#d53232" xlink:href="#xbaqbC"/></g><g><use fill="#f8fafb" xlink:href="#xbaqbD"/></g><g><use fill="#f8fafb" xlink:href="#xbaqbE"/></g><g><use fill="#f8fafb" xlink:href="#xbaqbF"/></g><g><use fill="#f8fafb" xlink:href="#xbaqbG"/></g><g><use fill="#f8fafb" xlink:href="#xbaqbH"/></g><g><use fill="#f8fafb" xlink:href="#xbaqbI"/></g><g><use fill="#f8fafb" xlink:href="#xbaqbJ"/></g><g><use fill="#f8fafb" xlink:href="#xbaqbK"/></g></g></g></svg>