<?xml version="1.0" encoding="UTF-8"?>
<svg width="561px" height="103px" viewBox="0 0 561 103" version="1.1" xmlns="http://www.w3.org/2000/svg" xmlns:xlink="http://www.w3.org/1999/xlink">
    <!-- Generator: Sketch 50.2 (55047) - http://www.bohemiancoding.com/sketch -->
    <title>flaticon-logo-footer</title>
    <desc>Created with Sketch.</desc>
    <defs></defs>
    <g id="Page-1" stroke="none" stroke-width="1" fill="none" fill-rule="evenodd">
        <g id="flaticon-logo-footer" fill-rule="nonzero">
            <g id="Group" transform="translate(141.000000, 21.000000)" fill="#FFFFFF">
                <path d="M0.596,8.675 C0.596,4.898 3.581,1.908 7.36,1.908 L41.798,1.908 C45.224,1.908 47.948,4.636 47.948,8.058 C47.948,11.488 45.224,14.207 41.798,14.207 L14.124,14.207 L14.124,27.298 L37.843,27.298 C41.272,27.298 43.994,30.022 43.994,33.448 C43.994,36.878 41.271,39.597 37.843,39.597 L14.124,39.597 L14.124,57.171 C14.124,60.944 11.138,63.932 7.36,63.932 C3.581,63.932 0.596,60.943 0.596,57.171 L0.596,8.675 Z" id="Shape"></path>
                <path d="M52.844,8.149 C52.844,4.368 55.829,1.382 59.608,1.382 C63.384,1.382 66.371,4.367 66.371,8.149 L66.371,51.106 L91.41,51.106 C94.836,51.106 97.559,53.832 97.559,57.259 C97.559,60.684 94.836,63.409 91.41,63.409 L59.608,63.409 C55.829,63.409 52.844,60.423 52.844,56.641 L52.844,8.149 Z" id="Shape"></path>
                <path d="M100.891,54.71 L122.329,6.303 C123.821,2.962 126.544,0.946 130.235,0.946 L131.027,0.946 C134.713,0.946 137.35,2.963 138.842,6.303 L160.281,54.71 C160.717,55.677 160.982,56.555 160.982,57.433 C160.982,61.035 158.173,63.934 154.568,63.934 C151.407,63.934 149.299,62.089 148.069,59.279 L143.937,49.618 L116.878,49.618 L112.577,59.72 C111.433,62.351 109.151,63.934 106.34,63.934 C102.823,63.934 100.1,61.124 100.1,57.609 C100.1,56.64 100.451,55.677 100.891,54.71 Z M138.932,37.666 L130.411,17.369 L121.885,37.666 L138.932,37.666 Z" id="Shape"></path>
                <path d="M173.864,14.387 L160.86,14.387 C157.431,14.387 154.621,11.574 154.621,8.149 C154.621,4.72 157.432,1.909 160.86,1.909 L200.393,1.909 C203.819,1.909 206.63,4.72 206.63,8.149 C206.63,11.574 203.819,14.387 200.393,14.387 L187.392,14.387 L187.392,57.172 C187.392,60.945 184.402,63.933 180.628,63.933 C176.849,63.933 173.864,60.944 173.864,57.172 L173.864,14.387 Z" id="Shape"></path>
                <path d="M211.615,8.149 C211.615,4.368 214.6,1.382 218.382,1.382 C222.156,1.382 225.143,4.367 225.143,8.149 L225.143,57.173 C225.143,60.946 222.156,63.934 218.382,63.934 C214.601,63.934 211.615,60.945 211.615,57.173 L211.615,8.149 Z" id="Shape"></path>
                <path d="M233.132,32.836 L233.132,32.657 C233.132,15.176 246.31,0.856 265.197,0.856 C274.417,0.856 280.656,3.314 285.754,7.094 C287.156,8.148 288.391,10.079 288.391,12.451 C288.391,16.143 285.406,19.041 281.71,19.041 C279.865,19.041 278.639,18.339 277.666,17.722 C273.89,14.909 269.937,13.329 265.104,13.329 C254.74,13.329 247.273,21.94 247.273,32.483 L247.273,32.656 C247.273,43.198 254.564,51.985 265.104,51.985 C270.819,51.985 274.596,50.229 278.463,47.151 C279.512,46.277 280.921,45.66 282.502,45.66 C285.931,45.66 288.827,48.473 288.827,51.896 C288.827,54.002 287.771,55.676 286.545,56.73 C281.006,61.564 274.509,64.463 264.667,64.463 C246.572,64.464 233.132,50.493 233.132,32.836 Z" id="Shape"></path>
                <path d="M292.009,32.836 L292.009,32.657 C292.009,15.176 305.799,0.856 324.775,0.856 C343.756,0.856 357.367,14.999 357.367,32.484 L357.367,32.657 C357.367,50.14 343.582,64.464 324.598,64.464 C305.625,64.464 292.009,50.32 292.009,32.836 Z M343.224,32.836 L343.224,32.657 C343.224,22.118 335.499,13.331 324.598,13.331 C313.705,13.331 306.149,21.942 306.149,32.485 L306.149,32.658 C306.149,43.2 313.879,51.987 324.775,51.987 C335.676,51.986 343.224,43.378 343.224,32.836 Z" id="Shape"></path>
                <path d="M365.233,8.321 C365.233,4.547 368.223,1.558 372,1.558 L373.401,1.558 C376.653,1.558 378.584,3.141 380.43,5.511 L406.523,39.776 L406.523,8.059 C406.523,4.367 409.513,1.382 413.204,1.382 C416.887,1.382 419.875,4.367 419.875,8.059 L419.875,56.993 C419.875,60.773 416.888,63.758 413.111,63.758 L412.675,63.758 C409.418,63.758 407.487,62.177 405.641,59.805 L378.585,24.313 L378.585,57.257 C378.585,60.944 375.6,63.933 371.907,63.933 C368.224,63.933 365.234,60.944 365.234,57.257 L365.234,8.321 L365.233,8.321 Z" id="Shape"></path>
            </g>
            <g id="Group">
                <path d="M48.372,56.137 L60.889,56.137 L72.045,37.6 L37.186,37.6 L25.688,18.539 L83.513,18.539 L94.668,0 L9.271,0 C5.925,0 2.842,1.801 1.198,4.716 C-0.446,7.623 -0.395,11.198 1.332,14.059 L51.712,97.56 C53.39,100.341 56.401,102.036 59.65,102.036 C62.896,102.036 65.907,100.341 67.585,97.56 L70.483,92.756 L48.372,56.137 Z" id="Shape" fill="#FFFFFF"></path>
                <g transform="translate(64.000000, 0.000000)" fill="#69E781" id="Shape">
                    <path d="M29.575,18.539 L29.606,18.539 L29.606,18.543 L51.258,18.547 L53.963,14.059 C55.69,11.198 55.741,7.623 54.096,4.716 C52.454,1.801 49.371,4.4408921e-15 46.026,4.4408921e-15 L40.732,4.4408921e-15 L29.575,18.539 Z"></path>
                    <polygon points="24.291 27.356 0.725 66.486 11.519 84.404 45.942 27.356"></polygon>
                </g>
            </g>
        </g>
    </g>
</svg>