<?xml version="1.0" encoding="utf-8"?>
<!-- Generator: Adobe Illustrator 21.0.0, SVG Export Plug-In . SVG Version: 6.00 Build 0)  -->
<svg version="1.1" id="Capa_1" xmlns="http://www.w3.org/2000/svg" xmlns:xlink="http://www.w3.org/1999/xlink" x="0px" y="0px"
	 viewBox="0 0 50.8 50.7" style="enable-background:new 0 0 50.8 50.7;" xml:space="preserve">
<style type="text/css">
	.st0{fill:#F0D05B;}
	.st1{fill:#F8FAFB;}
	.st2{fill:#ECB03B;}
	.st3{fill:#DB5353;}
	.st4{fill:#DD8F28;}
	.st5{fill:#A3CBF7;}
	.st6{fill:#7DAFF8;}
	.st7{fill:#1F2E48;}
	.st8{fill:#4372E6;}
	.st9{fill:#B1B0F8;}
	.st10{fill:#7F7FEC;}
	.st11{fill:#4A4AE1;}
	.st12{fill:#D0E9FD;}
	.st13{fill:#5F5FF1;}
</style>
<g id="XMLID_370_">
	<g id="XMLID_384_">
		<g id="XMLID_385_">
			<path id="XMLID_386_" class="st0" d="M47.7,16.2c-1.3-2.5-3.1-4.8-4.8-7.1c-4.7-6-13.4-9.2-21-8.2C0.2,4-7.3,36.2,12.6,47
				c4.7,2.6,10.1,3,15.4,2.6c10-0.8,19.5-9.1,21.6-19C50.6,25.8,49.9,20.6,47.7,16.2z"/>
		</g>
	</g>
	<g id="XMLID_382_">
		<path id="XMLID_383_" class="st1" d="M33.1,29c-1,12.1-15.6,9.7-15.2,0C20.8,31.9,29,31.5,33.1,29z"/>
	</g>
	<g id="XMLID_379_">
		<g id="XMLID_380_">
			<path id="XMLID_381_" class="st2" d="M49.4,20.9c0,1.3,0,2.6-0.1,3.9c-0.4,4.1-1.4,8.2-4,11.4c-2.2,2.8-5.3,4.8-8.5,6.2
				c-6.8,3-15.1,3.6-22.2,1c-3.3-1.2-6.2-3.2-8.3-6c-2.3-3.1-3.5-7-4.1-10.7c-0.3-1.9-0.5-3.8-0.5-5.6C-0.5,30.7,2.6,41.6,12.6,47
				c4.7,2.6,10.1,3,15.4,2.6c10-0.8,19.5-9.1,21.6-19C50.3,27.4,50.2,24,49.4,20.9z"/>
		</g>
	</g>
	<g id="XMLID_377_">
		<path id="XMLID_378_" class="st3" d="M20.6,14.9c-0.3-3.3-2.8-3.3-3.7-2.4c-1.5,1.4-1.3,2.1-1.9,2.1c-0.5,0-0.4-0.7-1.9-2.1
			c-0.9-0.9-3.4-0.9-3.7,2.4c-0.3,3.2,4,7.2,5.6,7.2C16.6,22.1,20.9,18.1,20.6,14.9z"/>
	</g>
	<g id="XMLID_375_">
		<path id="XMLID_376_" class="st3" d="M41.6,14.9c-0.3-3.3-2.8-3.3-3.7-2.4c-1.5,1.4-1.3,2.1-1.9,2.1s-0.4-0.7-1.9-2.1
			c-0.9-0.9-3.4-0.9-3.7,2.4c-0.3,3.2,4,7.2,5.6,7.2C37.6,22.1,41.9,18.1,41.6,14.9z"/>
	</g>
	<g id="XMLID_371_">
		<path id="XMLID_372_" class="st4" d="M25.6,38.1c-0.2,0-0.3,0-0.5,0c-4-0.3-8.2-3.5-8-9.1c0-0.3,0.2-0.6,0.5-0.8
			c0.3-0.1,0.7,0,0.9,0.2c2.3,2.4,10.1,2.3,14.1-0.1c0.3-0.2,0.6-0.2,0.9,0c0.3,0.2,0.4,0.5,0.4,0.8C33.5,35.4,29.5,38.1,25.6,38.1z
			 M18.9,30.7c0.6,3.5,3.5,5.5,6.3,5.7c2.7,0.2,5.9-1.3,6.8-5.9C28.1,32.2,22.3,32.4,18.9,30.7z"/>
	</g>
</g>
</svg>
