<svg version="1.1" xmlns="http://www.w3.org/2000/svg" viewBox="0 0 120 102" xmlns:xlink="http://www.w3.org/1999/xlink" enable-background="new 0 0 560.875 102.036">
  <g class="insignia">
    <path fill="#FFFFFF" d="M48.372,56.137h12.517l11.156-18.537H37.186L25.688,18.539h57.825L94.668,0H9.271   C5.925,0,2.842,1.801,1.198,4.716c-1.644,2.907-1.593,6.482,0.134,9.343l50.38,83.501c1.678,2.781,4.689,4.476,7.938,4.476   c3.246,0,6.257-1.695,7.935-4.476l2.898-4.804L48.372,56.137z"/>
    <g class="i" fill="#A9FD00">
      <path d="m93.575,18.539h0.031v0.004l21.652,.004 2.705-4.488c1.727-2.861 1.778-6.436 0.133-9.343-1.642-2.915-4.725-4.716-8.07-4.716h-5.294l-11.157,18.539z"/>
      <polygon points="88.291,27.356 64.725,66.486 75.519,84.404 109.942,27.356"/>
    </g>
  </g>
</svg>
