<?xml version="1.0" encoding="utf-8"?>
<!-- Generator: Adobe Illustrator 21.0.0, SVG Export Plug-In . SVG Version: 6.00 Build 0)  -->
<svg version="1.1" id="Capa_1" xmlns="http://www.w3.org/2000/svg" xmlns:xlink="http://www.w3.org/1999/xlink" x="0px" y="0px"
	 viewBox="0 0 50.8 50.7" style="enable-background:new 0 0 50.8 50.7;" xml:space="preserve">
<style type="text/css">
	.st0{fill:#F0D05B;}
	.st1{fill:#F8FAFB;}
	.st2{fill:#ECB03B;}
	.st3{fill:#DB5353;}
	.st4{fill:#DD8F28;}
	.st5{fill:#A3CBF7;}
	.st6{fill:#7DAFF8;}
	.st7{fill:#1F2E48;}
	.st8{fill:#4372E6;}
	.st9{fill:#B1B0F8;}
	.st10{fill:#7F7FEC;}
	.st11{fill:#4A4AE1;}
	.st12{fill:#D0E9FD;}
	.st13{fill:#5F5FF1;}
</style>
<g id="XMLID_351_">
	<g id="XMLID_367_">
		<path id="XMLID_368_" class="st5" d="M48.1,16.2c-1.9-4.5-4.9-8.7-8.9-11.5c-4.1-2.9-9-4.2-14-3.8c-5,0.4-9.9,2.2-14.1,5
			c-3.7,2.5-7.3,5.8-8.9,10c-2.5,6.5-1.4,16,2.5,21.9c7,10.7,24,17.4,34.6,7.9c3.8-3.4,7.8-8.4,9.7-13.2
			C51.1,27.1,50.4,21.4,48.1,16.2z"/>
	</g>
	<g id="XMLID_365_">
		<path id="XMLID_366_" class="st6" d="M48.1,16.2c-0.1-0.3-0.3-0.6-0.4-0.9c0.1,0.5,0.1,1,0.2,1.5c0.4,4.9-0.2,10.1-2,14.6
			c-1.3,3.5-3.5,6.6-6.5,8.8c-5.8,4.3-13.6,4.5-20.4,2.6c-3.7-1-7.2-2.7-10.3-4.9c-3.4-2.4-5.9-5.5-7.1-9.5
			c-0.5-1.6-0.8-3.2-0.9-4.9C0.7,28.6,2,34,4.5,37.8c7,10.7,24,17.4,34.6,7.9c3.8-3.4,7.8-8.4,9.7-13.2
			C51.1,27.1,50.4,21.4,48.1,16.2z"/>
	</g>
	<g id="XMLID_358_">
		<g id="XMLID_362_">
			<g id="XMLID_363_">
				<ellipse id="XMLID_364_" class="st7" cx="16.3" cy="23.6" rx="1.7" ry="2"/>
			</g>
		</g>
		<g id="XMLID_359_">
			<g id="XMLID_360_">
				<ellipse id="XMLID_361_" class="st7" cx="35.2" cy="23.6" rx="1.7" ry="2"/>
			</g>
		</g>
	</g>
	<g id="XMLID_356_">
		<path id="XMLID_357_" class="st8" d="M18.9,34.3c-0.4,0-0.8-0.3-0.8-0.7c-0.1-0.5,0.3-0.9,0.7-1c4.8-0.7,13,0,13.3,0
			c0.5,0,0.8,0.5,0.8,0.9c0,0.5-0.5,0.8-0.9,0.8c-0.1,0-8.3-0.7-12.9,0C19,34.3,19,34.3,18.9,34.3z"/>
	</g>
	<g id="XMLID_354_">
		<path id="XMLID_355_" class="st8" d="M8.3,14.9c-0.4,0-0.8-0.3-0.9-0.8c0-0.5,0.3-0.9,0.8-0.9c1.9-0.1,11.6-0.1,13.1,0
			c0.5,0,0.8,0.4,0.8,0.9c0,0.5-0.4,0.8-0.9,0.8C19.8,14.8,10.1,14.8,8.3,14.9C8.3,14.9,8.3,14.9,8.3,14.9z"/>
	</g>
	<g id="XMLID_352_">
		<path id="XMLID_353_" class="st8" d="M40,14.9C39.9,14.9,39.9,14.9,40,14.9c-0.1,0-8.5-0.5-12.3-2c-0.4-0.2-0.7-0.7-0.5-1.1
			c0.2-0.4,0.7-0.7,1.1-0.5c2.9,1.2,9.5,1.8,11.8,1.9c0.5,0,0.8,0.4,0.8,0.9C40.8,14.6,40.4,14.9,40,14.9z"/>
	</g>
</g>
</svg>
