<?xml version="1.0" encoding="utf-8"?>
<!-- Generator: Adobe Illustrator 21.0.0, SVG Export Plug-In . SVG Version: 6.00 Build 0)  -->
<svg version="1.1" id="Capa_1" xmlns="http://www.w3.org/2000/svg" xmlns:xlink="http://www.w3.org/1999/xlink" x="0px" y="0px"
	 viewBox="0 0 50.8 50.7" style="enable-background:new 0 0 50.8 50.7;" xml:space="preserve">
<style type="text/css">
	.st0{fill:#F0D05B;}
	.st1{fill:#F8FAFB;}
	.st2{fill:#ECB03B;}
	.st3{fill:#DB5353;}
	.st4{fill:#DD8F28;}
	.st5{fill:#A3CBF7;}
	.st6{fill:#7DAFF8;}
	.st7{fill:#1F2E48;}
	.st8{fill:#4372E6;}
	.st9{fill:#B1B0F8;}
	.st10{fill:#7F7FEC;}
	.st11{fill:#4A4AE1;}
	.st12{fill:#D0E9FD;}
	.st13{fill:#5F5FF1;}
</style>
<g id="XMLID_46_">
	<g id="XMLID_51_">
		<g id="XMLID_347_">
			<g id="XMLID_348_">
				<path id="XMLID_349_" class="st9" d="M49.5,18.9c-0.6-3.1-2.8-5.7-4.8-8C38.4,3.8,28.1-0.8,18.7,2.7c-0.8,0.3-1.6,0.7-2.3,1.1
					c0,0,0,0-0.1,0c0,0-0.1,0.1-0.1,0.1c-1.6,0.9-3.7,2-5.1,3.2c-2.9,2.6-5.6,5.7-7.5,9.1C-0.8,22.8,2,33.7,6.2,39.7
					c5.3,7.6,15.9,12.1,25.1,9.5c1.6-0.5,3.1-1.2,4.6-2c7.8-3.9,11.7-9.3,13.1-17.6C49.5,26.2,50.1,22.3,49.5,18.9z"/>
			</g>
		</g>
		<g id="XMLID_344_">
			<g id="XMLID_345_">
				<path id="XMLID_346_" class="st10" d="M49.6,23.8c-0.6,3.8-1.5,7.9-3.5,11.3c-1.9,3.1-4.7,5.5-7.9,7.2
					c-6.6,3.4-14.7,3.5-21.5,0.6c-3.2-1.4-6.1-3.5-8.2-6.3c-2.1-2.9-3.6-6.2-4.7-9.6c-0.7-2.4-1.4-5.3-1.5-8.2
					c-2.5,6.6,0.1,15.6,3.8,21c5.3,7.6,15.9,12.1,25.1,9.5c1.6-0.5,3.1-1.2,4.6-2c7.8-3.9,11.7-9.3,13.1-17.6
					c0.3-2.1,0.7-4.4,0.8-6.7C49.7,23.2,49.7,23.5,49.6,23.8z"/>
			</g>
		</g>
		<g id="XMLID_341_">
			<g id="XMLID_342_">
				<path id="XMLID_343_" class="st7" d="M19.1,22.5c0.2-0.3,0.3-0.8,0.4-1.2c0-1.2-0.8-2.2-1.8-2.3c-1.1,0-2,0.9-2,2.1
					c0,0.6,0.2,1.1,0.5,1.6C17,22.4,18.2,22.5,19.1,22.5z"/>
			</g>
		</g>
		<g id="XMLID_338_">
			<g id="XMLID_339_">
				<path id="XMLID_340_" class="st11" d="M29.3,32.4c-0.4,0-0.8-0.3-0.8-0.7c-0.2-1.6-1.1-3.5-2.7-3.6c-1.6-0.1-2.7,1.7-3.1,3.4
					c-0.1,0.4-0.6,0.7-1,0.6c-0.4-0.1-0.7-0.6-0.6-1c0.6-2.3,2.3-4.8,4.8-4.6c2.6,0.2,3.9,2.8,4.2,5c0.1,0.5-0.2,0.9-0.7,1
					C29.4,32.4,29.3,32.4,29.3,32.4z"/>
			</g>
		</g>
		<g id="XMLID_326_">
			<g id="XMLID_335_">
				<g id="XMLID_336_">
					<path id="XMLID_337_" class="st12" d="M14.9,24.5c-0.4,0-0.7-0.2-0.8-0.6c-0.1-0.4,0.1-0.9,0.6-1c0.7-0.2,1.4-0.3,2.1-0.4
						c0.5,0,0.9,0.3,0.9,0.7c0,0.5-0.3,0.9-0.7,0.9c-0.6,0.1-1.2,0.2-1.8,0.3C15.1,24.5,15,24.5,14.9,24.5z"/>
				</g>
			</g>
			<g id="XMLID_330_">
				<g id="XMLID_331_">
					<path id="XMLID_332_" class="st12" d="M6.3,34.5c-0.1,0-0.1,0-0.2,0c-0.5-0.1-0.7-0.6-0.6-1c0.3-1.2,0.7-2.4,1.2-3.4
						c0.2-0.4,0.7-0.6,1.1-0.4c0.4,0.2,0.6,0.7,0.4,1.1c-0.4,1-0.8,2-1.1,3.1C7,34.2,6.7,34.5,6.3,34.5z M9.3,28.3
						c-0.2,0-0.4-0.1-0.5-0.2c-0.4-0.3-0.4-0.8-0.1-1.2c0.8-1,1.7-1.8,2.7-2.5c0.4-0.3,0.9-0.2,1.2,0.2c0.3,0.4,0.2,0.9-0.2,1.2
						c-0.9,0.6-1.7,1.3-2.4,2.2C9.7,28.2,9.5,28.3,9.3,28.3z"/>
				</g>
			</g>
			<g id="XMLID_327_">
				<g id="XMLID_328_">
					<path id="XMLID_329_" class="st12" d="M5.8,39.9c-0.4,0-0.8-0.4-0.8-0.8c0-0.7,0-1.4,0-2.1c0-0.5,0.4-0.8,0.9-0.8
						c0.5,0,0.8,0.4,0.8,0.9c0,0.6,0,1.3,0,1.9C6.7,39.5,6.3,39.9,5.8,39.9C5.9,39.9,5.8,39.9,5.8,39.9z"/>
				</g>
			</g>
		</g>
		<g id="XMLID_323_">
			<g id="XMLID_324_">
				<path id="XMLID_325_" class="st7" d="M32.1,22.5c-0.2-0.3-0.3-0.8-0.4-1.2c0-1.2,0.8-2.2,1.8-2.3c1.1,0,2,0.9,2,2.1
					c0,0.6-0.2,1.1-0.5,1.6C34.2,22.4,33,22.5,32.1,22.5z"/>
			</g>
		</g>
		<g id="XMLID_54_">
			<g id="XMLID_320_">
				<g id="XMLID_321_">
					<path id="XMLID_322_" class="st12" d="M36.3,24.5c-0.1,0-0.2,0-0.2,0c-0.6-0.2-1.2-0.3-1.8-0.3c-0.5,0-0.8-0.5-0.7-0.9
						c0-0.5,0.5-0.8,0.9-0.7c0.7,0.1,1.4,0.2,2.1,0.4c0.4,0.1,0.7,0.6,0.6,1C37,24.3,36.7,24.5,36.3,24.5z"/>
				</g>
			</g>
			<g id="XMLID_315_">
				<g id="XMLID_316_">
					<path id="XMLID_317_" class="st12" d="M44.9,34.5c-0.4,0-0.7-0.3-0.8-0.6c-0.3-1.1-0.6-2.1-1.1-3.1c-0.2-0.4,0-0.9,0.4-1.1
						c0.4-0.2,0.9,0,1.1,0.4c0.5,1.1,0.9,2.2,1.2,3.4c0.1,0.5-0.2,0.9-0.6,1C45,34.5,45,34.5,44.9,34.5z M42,28.3
						c-0.2,0-0.5-0.1-0.7-0.3c-0.7-0.9-1.5-1.6-2.4-2.2c-0.4-0.3-0.5-0.8-0.2-1.2c0.3-0.4,0.8-0.5,1.2-0.2c1,0.7,1.9,1.5,2.7,2.5
						c0.3,0.4,0.2,0.9-0.1,1.2C42.3,28.2,42.2,28.3,42,28.3z"/>
				</g>
			</g>
			<g id="XMLID_312_">
				<g id="XMLID_313_">
					<path id="XMLID_314_" class="st12" d="M45.4,39.9C45.4,39.9,45.4,39.9,45.4,39.9c-0.5,0-0.9-0.4-0.8-0.9c0-0.6,0-1.3,0-1.9
						c0-0.5,0.3-0.9,0.8-0.9c0.5,0,0.9,0.3,0.9,0.8c0,0.7,0,1.4,0,2.1C46.2,39.6,45.8,39.9,45.4,39.9z"/>
				</g>
			</g>
		</g>
	</g>
	<g id="XMLID_49_">
		<path id="XMLID_50_" class="st13" d="M13.6,18.5c-0.4,0-0.7-0.3-0.8-0.7c-0.1-0.5,0.2-0.9,0.7-1c2.7-0.5,6.6-3.8,7.6-6.3
			c0.2-0.4,0.7-0.6,1.1-0.5c0.4,0.2,0.6,0.7,0.5,1.1c-1.2,3.1-5.6,6.7-8.9,7.3C13.7,18.4,13.7,18.5,13.6,18.5z"/>
	</g>
	<g id="XMLID_47_">
		<path id="XMLID_48_" class="st13" d="M39.7,18.5c-0.1,0-0.1,0-0.2,0c-3.3-0.6-7.7-4.3-8.9-7.3c-0.2-0.4,0-0.9,0.5-1.1
			c0.4-0.2,0.9,0,1.1,0.5c1,2.5,4.9,5.8,7.6,6.3c0.5,0.1,0.8,0.5,0.7,1C40.5,18.2,40.1,18.5,39.7,18.5z"/>
	</g>
</g>
</svg>
